<svg width="96" height="80" viewBox="0 0 96 80" fill="none" xmlns="http://www.w3.org/2000/svg">
<g clip-path="url(#clip0_380_94)">
<path d="M6.21737 69.941L5.52607 71.6041H6.4478V72.4757H3.95312V71.6041H4.49414L8.2612 63.6191H9.25306L12.5693 71.6041H13.6112V72.4757H9.67385V71.6041H10.5956L9.90428 69.941H6.21737ZM6.59808 69.0293H9.53359L8.06083 65.5127L6.59808 69.0293Z" fill="black"/>
<path d="M22.2275 72.1352C21.3359 72.5159 20.364 72.7063 19.3221 72.7063C17.8493 72.7063 16.7072 72.3055 15.8856 71.494C15.0641 70.6825 14.6533 69.5503 14.6533 68.1076C14.6533 66.6649 15.0541 65.5228 15.8556 64.7213C16.6571 63.9198 17.7992 63.5291 19.262 63.5291C19.7128 63.5291 20.1837 63.5591 20.6546 63.6192C21.1355 63.6793 21.6264 63.7795 22.1374 63.8997V65.7332H21.1856L21.0954 64.8615C20.7948 64.7113 20.4943 64.591 20.1937 64.5109C19.8931 64.4307 19.5826 64.4007 19.282 64.4007C18.4504 64.4007 17.7892 64.7313 17.3183 65.3925C16.8474 66.0538 16.607 66.9555 16.607 68.1076C16.607 69.2598 16.8775 70.1114 17.4285 70.7626C17.9796 71.4138 18.7209 71.7445 19.6627 71.7445C20.5444 71.7445 21.396 71.5341 22.2275 71.1033V72.1452V72.1352Z" fill="black"/>
<path d="M33.8892 72.4759V71.6043H34.7608V64.6111H33.8892V63.7395H38.2073C39.5898 63.7395 40.6719 64.1102 41.4533 64.8516C42.2348 65.593 42.6155 66.6249 42.6155 67.9474C42.6155 69.2699 42.2348 70.422 41.4834 71.2436C40.732 72.0651 39.7201 72.4759 38.4677 72.4759H33.8892ZM36.5842 71.5341H37.5861C38.618 71.5341 39.3895 71.2336 39.9004 70.6324C40.4114 70.0313 40.6719 69.1296 40.6719 67.9374C40.6719 66.8253 40.4014 65.9937 39.8704 65.4427C39.3394 64.8917 38.5379 64.6111 37.4659 64.6111H36.5742V71.5341H36.5842Z" fill="black"/>
<path d="M50.831 72.4759H43.8579V71.6043H44.7796V64.6111H43.8579V63.7395H50.5404V65.4928H49.5486V64.6212H46.7032V67.5366H48.6269V66.9555H49.5486V68.9994H48.6269V68.4183H46.7032V71.5542H49.8391V70.6024H50.831V72.4959V72.4759Z" fill="black"/>
<path d="M59.3568 72.1352C58.5152 72.5159 57.5935 72.7063 56.6116 72.7063C55.219 72.7063 54.137 72.3055 53.3555 71.494C52.5741 70.6825 52.1934 69.5503 52.1934 68.1076C52.1934 66.6649 52.5741 65.5228 53.3355 64.7213C54.0969 63.9198 55.1689 63.5291 56.5615 63.5291C56.9924 63.5291 57.4332 63.5591 57.884 63.6192C58.3349 63.6793 58.8058 63.7795 59.2867 63.8997V65.7332H58.385L58.2948 64.8615C58.0143 64.7113 57.7237 64.591 57.4432 64.5109C57.1627 64.4307 56.8721 64.4007 56.5816 64.4007C55.7901 64.4007 55.1689 64.7313 54.7181 65.3925C54.2672 66.0538 54.0368 66.9555 54.0368 68.1076C54.0368 69.2598 54.2973 70.1114 54.8183 70.7626C55.3393 71.4138 56.0406 71.7445 56.9322 71.7445C57.7638 71.7445 58.5753 71.5341 59.3568 71.1033V72.1452V72.1352Z" fill="#ADDB42"/>
<path d="M63.4048 68.7489V71.6143H64.1662V72.4859H60.6997V71.6143H61.6014V64.6211H60.6997V63.7495H64.597C65.5688 63.7495 66.3202 63.9399 66.8412 64.3206C67.3622 64.7013 67.6327 65.2423 67.6327 65.9436C67.6327 66.5347 67.4824 67.0457 67.1919 67.4565C66.9013 67.8672 66.4605 68.1878 65.8694 68.4183L68.2539 71.6243H68.855V72.4959H66.5306L64.0961 68.7589H63.4048V68.7489ZM63.4048 67.9073H63.7254C64.4167 67.9073 64.9276 67.747 65.2683 67.4364C65.6089 67.1258 65.7792 66.655 65.7792 66.0238C65.7792 65.5529 65.629 65.1922 65.3384 64.9618C65.0479 64.7213 64.597 64.6111 64.0059 64.6111H63.4048V67.9073Z" fill="#ADDB42"/>
<path d="M82.25 68.5786V71.6043H83.2719V72.4759H79.5449V71.6043H80.4266V64.6111H79.5449V63.7395H85.9068V65.4928H84.9551V64.6212H82.25V67.717H84.0734V67.1359H84.9551V69.1797H84.0734V68.5986H82.25V68.5786Z" fill="#ADDB42"/>
<path d="M89.9044 64.6813H87.57V65.623H86.5781V63.7295H95.1642V65.623H94.1724V64.6813H91.838V71.6043H92.7597V72.4759H88.9927V71.6043H89.9144V64.6813H89.9044Z" fill="#ADDB42"/>
<path d="M25.5338 69.941L24.8425 71.6041H25.7642V72.4757H23.2695V71.6041H23.8105L27.5776 63.6191H28.5695L31.8857 71.6041H32.9276V72.4757H28.9903V71.6041H29.912L29.2207 69.941H25.5338ZM25.9145 69.0293H28.85L27.3772 65.5127L25.9145 69.0293Z" fill="black"/>
<path d="M71.6602 69.941L70.9689 71.6041H71.8907V72.4757H69.396V71.6041H69.937L73.7041 63.6191H74.6959L78.0122 71.6041H79.0541V72.4757H75.1167V71.6041H76.0384L75.3471 69.941H71.6602ZM72.041 69.0293H74.9765L73.5037 65.5127L72.041 69.0293Z" fill="#ADDB42"/>
<path d="M3.6526 77.916L4.33387 77.8458C4.37395 78.0763 4.4541 78.2466 4.58434 78.3468C4.70457 78.457 4.87489 78.5071 5.0953 78.5071C5.31572 78.5071 5.48603 78.457 5.60626 78.3668C5.71647 78.2666 5.77658 78.1564 5.77658 78.0362C5.77658 77.9561 5.75654 77.8859 5.70645 77.8258C5.65635 77.7657 5.5762 77.7156 5.45598 77.6755C5.37583 77.6455 5.18547 77.5954 4.89493 77.5252C4.52423 77.4351 4.25372 77.3149 4.10344 77.1846C3.89305 76.9942 3.78284 76.7638 3.78284 76.4833C3.78284 76.3029 3.83294 76.1427 3.93312 75.9924C4.03331 75.8421 4.17357 75.7219 4.36393 75.6417C4.55429 75.5616 4.7747 75.5215 5.04521 75.5215C5.47602 75.5215 5.80664 75.6217 6.02705 75.812C6.24746 76.0024 6.35767 76.2529 6.37771 76.5735L5.67639 76.6035C5.64634 76.4232 5.58622 76.2929 5.48603 76.2228C5.38585 76.1427 5.23557 76.1026 5.04521 76.1026C4.85485 76.1026 4.68453 76.1427 4.56431 76.2228C4.49418 76.2729 4.4541 76.343 4.4541 76.4332C4.4541 76.5133 4.48416 76.5835 4.55429 76.6436C4.64446 76.7137 4.85485 76.7939 5.19549 76.874C5.53613 76.9542 5.7866 77.0343 5.9469 77.1245C6.1072 77.2147 6.23744 77.3249 6.32761 77.4752C6.41778 77.6254 6.46788 77.8058 6.46788 78.0262C6.46788 78.2266 6.41778 78.4069 6.29756 78.5872C6.17733 78.7676 6.02705 78.8878 5.82667 78.978C5.6263 79.0581 5.37583 79.1082 5.07526 79.1082C4.63444 79.1082 4.30382 79.008 4.06337 78.8077C3.83294 78.6073 3.69267 78.3067 3.64258 77.926L3.6526 77.916Z" fill="#ADDB42"/>
<path d="M7.81055 76.5335H8.42169V76.8741C8.64211 76.6036 8.90259 76.4734 9.20316 76.4734C9.36346 76.4734 9.50372 76.5034 9.62395 76.5736C9.74417 76.6437 9.83434 76.7439 9.91449 76.8741C10.0247 76.7439 10.1449 76.6437 10.2752 76.5736C10.4054 76.5034 10.5357 76.4734 10.6859 76.4734C10.8663 76.4734 11.0266 76.5135 11.1568 76.5836C11.2871 76.6537 11.3772 76.7639 11.4474 76.9142C11.4975 77.0244 11.5175 77.1947 11.5175 77.4352V79.0382H10.8563V77.6055C10.8563 77.355 10.8362 77.1947 10.7861 77.1246C10.726 77.0344 10.6258 76.9843 10.5056 76.9843C10.4154 76.9843 10.3253 77.0144 10.2451 77.0645C10.165 77.1246 10.1048 77.2048 10.0648 77.315C10.0247 77.4252 10.0147 77.5955 10.0147 77.8359V79.0382H9.35344V77.6656C9.35344 77.4252 9.34342 77.2649 9.31336 77.1947C9.29333 77.1246 9.25325 77.0745 9.20316 77.0344C9.15306 77.0044 9.08293 76.9843 9.00278 76.9843C8.90259 76.9843 8.81243 77.0144 8.72226 77.0645C8.63209 77.1146 8.58199 77.1947 8.54192 77.3049C8.50184 77.4051 8.49182 77.5855 8.49182 77.8259V79.0482H7.83058V76.5435L7.81055 76.5335Z" fill="#ADDB42"/>
<path d="M13.471 77.2949L12.8699 77.1847C12.94 76.9443 13.0503 76.7639 13.2206 76.6437C13.3909 76.5235 13.6313 76.4734 13.962 76.4734C14.2625 76.4734 14.4829 76.5034 14.6232 76.5736C14.7635 76.6437 14.8737 76.7339 14.9338 76.8441C14.9939 76.9543 15.024 77.1547 15.024 77.4352V78.2066C15.024 78.427 15.024 78.5874 15.044 78.6976C15.064 78.7977 15.1041 78.918 15.1642 79.0382H14.503C14.503 79.0382 14.4629 78.928 14.4429 78.8378C14.4328 78.7977 14.4228 78.7677 14.4228 78.7577C14.3126 78.8679 14.1924 78.948 14.0622 79.0081C13.9319 79.0683 13.7916 79.0883 13.6514 79.0883C13.3909 79.0883 13.1905 79.0182 13.0402 78.8779C12.89 78.7376 12.8198 78.5573 12.8198 78.3469C12.8198 78.2066 12.8499 78.0764 12.92 77.9662C12.9901 77.856 13.0803 77.7658 13.2005 77.7157C13.3208 77.6556 13.5011 77.6055 13.7315 77.5654C14.0421 77.5053 14.2525 77.4552 14.3727 77.4051V77.335C14.3727 77.2048 14.3427 77.1146 14.2826 77.0645C14.2225 77.0144 14.1022 76.9843 13.9219 76.9843C13.8017 76.9843 13.7115 77.0044 13.6414 77.0545C13.5712 77.1046 13.5211 77.1847 13.4811 77.2949H13.471ZM14.3627 77.8359C14.2826 77.866 14.1423 77.8961 13.962 77.9361C13.7816 77.9762 13.6614 78.0163 13.6013 78.0564C13.5111 78.1165 13.471 78.1966 13.471 78.2868C13.471 78.377 13.5011 78.4571 13.5712 78.5272C13.6414 78.5974 13.7315 78.6274 13.8317 78.6274C13.9519 78.6274 14.0622 78.5874 14.1724 78.5072C14.2525 78.4471 14.3026 78.377 14.3327 78.2868C14.3527 78.2267 14.3627 78.1265 14.3627 77.9662V77.8359Z" fill="#ADDB42"/>
<path d="M17.108 79.0382H16.4468V76.5335H17.0679V76.8942C17.1781 76.7239 17.2683 76.6136 17.3485 76.5636C17.4286 76.5135 17.5288 76.4834 17.639 76.4834C17.7893 76.4834 17.9396 76.5235 18.0798 76.6036L17.8694 77.1847C17.7592 77.1146 17.649 77.0745 17.5589 77.0745C17.4687 77.0745 17.3885 77.1046 17.3184 77.1547C17.2583 77.2048 17.1982 77.2949 17.1681 77.4352C17.1381 77.5755 17.108 77.846 17.108 78.2768V79.0482V79.0382Z" fill="#ADDB42"/>
<path d="M20.3138 76.5333V77.0643H19.8629V78.0762C19.8629 78.2766 19.8629 78.3968 19.8729 78.4369C19.8729 78.4669 19.903 78.497 19.933 78.517C19.9631 78.537 20.0032 78.5471 20.0433 78.5471C20.1034 78.5471 20.1935 78.527 20.3138 78.4869L20.3739 78.9979C20.2236 79.068 20.0433 79.0981 19.8529 79.0981C19.7327 79.0981 19.6225 79.0781 19.5323 79.038C19.4321 78.9979 19.362 78.9478 19.3219 78.8777C19.2818 78.8176 19.2418 78.7274 19.2317 78.6172C19.2217 78.537 19.2117 78.3868 19.2117 78.1463V77.0543H18.9111V76.5233H19.2117V76.0223L19.883 75.6316V76.5132H20.3338L20.3138 76.5333Z" fill="#ADDB42"/>
<path d="M23.7402 79.038V75.5715H24.8623C25.2831 75.5715 25.5637 75.5916 25.6939 75.6216C25.8943 75.6717 26.0546 75.7819 26.1948 75.9623C26.3251 76.1326 26.3952 76.363 26.3952 76.6335C26.3952 76.8439 26.3551 77.0243 26.275 77.1745C26.1948 77.3148 26.0946 77.435 25.9844 77.5152C25.8642 77.5953 25.744 77.6554 25.6238 77.6755C25.4534 77.7055 25.213 77.7256 24.9024 77.7256H24.4416V79.028H23.7402V79.038ZM24.4416 76.1626V77.1445H24.8223C25.0928 77.1445 25.2831 77.1244 25.3733 77.0944C25.4635 77.0543 25.5436 77.0042 25.5937 76.9241C25.6438 76.8439 25.6739 76.7538 25.6739 76.6536C25.6739 76.5233 25.6338 76.4231 25.5637 76.343C25.4935 76.2628 25.3933 76.2127 25.2831 76.1927C25.203 76.1727 25.0327 76.1727 24.7822 76.1727H24.4416V76.1626Z" fill="#ADDB42"/>
<path d="M29.2205 78.2467L29.8817 78.3569C29.8016 78.5974 29.6613 78.7877 29.481 78.908C29.3006 79.0382 29.0702 79.0983 28.7897 79.0983C28.3488 79.0983 28.0282 78.958 27.8179 78.6675C27.6475 78.4371 27.5674 78.1465 27.5674 77.8059C27.5674 77.3851 27.6776 77.0645 27.898 76.824C28.1184 76.5836 28.3889 76.4734 28.7195 76.4734C29.0902 76.4734 29.3908 76.5936 29.6012 76.8441C29.8216 77.0945 29.9218 77.4652 29.9118 77.9762H28.2487C28.2487 78.1766 28.3088 78.3269 28.409 78.4371C28.5091 78.5473 28.6394 78.5974 28.7897 78.5974C28.8899 78.5974 28.98 78.5673 29.0502 78.5172C29.1203 78.4671 29.1704 78.3669 29.2105 78.2467H29.2205ZM29.2606 77.5755C29.2606 77.3851 29.2105 77.2348 29.1103 77.1346C29.0201 77.0344 28.8999 76.9843 28.7696 76.9843C28.6294 76.9843 28.5091 77.0344 28.409 77.1446C28.3088 77.2549 28.2687 77.3951 28.2687 77.5755H29.2606Z" fill="#ADDB42"/>
<path d="M31.1143 77.7558C31.1143 77.5354 31.1644 77.325 31.2746 77.1146C31.3848 76.9042 31.535 76.7539 31.7354 76.6437C31.9358 76.5335 32.1562 76.4834 32.4067 76.4834C32.7874 76.4834 33.098 76.6036 33.3384 76.8541C33.5789 77.1046 33.6991 77.4151 33.6991 77.7858C33.6991 78.1565 33.5789 78.4771 33.3284 78.7276C33.088 78.9781 32.7774 79.0983 32.4067 79.0983C32.1763 79.0983 31.9558 79.0482 31.7454 78.938C31.535 78.8278 31.3747 78.6775 31.2746 78.4771C31.1644 78.2768 31.1143 78.0363 31.1143 77.7458V77.7558ZM31.7955 77.7959C31.7955 78.0463 31.8556 78.2367 31.9759 78.3669C32.0961 78.4972 32.2364 78.5673 32.4167 78.5673C32.597 78.5673 32.7373 78.4972 32.8575 78.3669C32.9777 78.2367 33.0379 78.0463 33.0379 77.7858C33.0379 77.5254 32.9777 77.355 32.8575 77.2148C32.7373 77.0745 32.597 77.0144 32.4167 77.0144C32.2364 77.0144 32.0961 77.0845 31.9759 77.2148C31.8556 77.345 31.7955 77.5354 31.7955 77.7858V77.7959Z" fill="#ADDB42"/>
<path d="M35.0112 76.5335H35.6324V76.9042C35.7125 76.774 35.8228 76.6738 35.963 76.5936C36.1033 76.5135 36.2536 76.4734 36.4139 76.4734C36.7044 76.4734 36.9549 76.5836 37.1553 76.814C37.3556 77.0445 37.4558 77.3651 37.4558 77.7658C37.4558 78.1666 37.3556 78.5072 37.1452 78.7476C36.9449 78.9781 36.6944 79.0983 36.4038 79.0983C36.2636 79.0983 36.1434 79.0683 36.0231 79.0182C35.9029 78.9681 35.7927 78.8679 35.6725 78.7376V80H35.0112V76.5335ZM35.6725 77.7458C35.6725 78.0263 35.7326 78.2367 35.8428 78.3669C35.953 78.4972 36.0933 78.5673 36.2536 78.5673C36.4139 78.5673 36.5341 78.5072 36.6343 78.377C36.7345 78.2567 36.7846 78.0463 36.7846 77.7658C36.7846 77.5053 36.7345 77.3049 36.6243 77.1847C36.514 77.0645 36.3838 76.9944 36.2335 76.9944C36.0832 76.9944 35.933 77.0545 35.8328 77.1847C35.7226 77.3049 35.6725 77.4953 35.6725 77.7458Z" fill="#ADDB42"/>
<path d="M38.7983 79.038V75.5715H39.4596V79.038H38.7983Z" fill="#ADDB42"/>
<path d="M42.4051 78.2467L43.0663 78.3569C42.9861 78.5974 42.8459 78.7877 42.6655 78.908C42.4852 79.0382 42.2548 79.0983 41.9742 79.0983C41.5334 79.0983 41.2128 78.958 41.0024 78.6675C40.8321 78.4371 40.752 78.1465 40.752 77.8059C40.752 77.3851 40.8622 77.0645 41.0826 76.824C41.303 76.5836 41.5735 76.4734 41.9041 76.4734C42.2748 76.4734 42.5754 76.5936 42.7858 76.8441C43.0062 77.0945 43.1064 77.4652 43.0963 77.9762H41.4332C41.4332 78.1766 41.4933 78.3269 41.5935 78.4371C41.6937 78.5473 41.824 78.5974 41.9742 78.5974C42.0744 78.5974 42.1646 78.5673 42.2347 78.5172C42.3049 78.4671 42.355 78.3669 42.395 78.2467H42.4051ZM42.4451 77.5755C42.4451 77.3851 42.395 77.2348 42.2948 77.1346C42.2047 77.0344 42.0845 76.9843 41.9542 76.9843C41.8139 76.9843 41.6937 77.0344 41.5935 77.1446C41.4933 77.2549 41.4533 77.3951 41.4533 77.5755H42.4451Z" fill="#ADDB42"/>
<path d="M46.5831 78.377H47.2443V78.8478C47.2443 79.0382 47.2243 79.1885 47.1942 79.2987C47.1641 79.4089 47.094 79.5091 47.0039 79.5992C46.9137 79.6894 46.7935 79.7595 46.6532 79.8096L46.5229 79.5391C46.6532 79.4991 46.7534 79.4389 46.8135 79.3588C46.8736 79.2786 46.9037 79.1785 46.9037 79.0382H46.5831V78.377Z" fill="#ADDB42"/>
<path d="M50.7307 77.916L51.412 77.8458C51.4521 78.0763 51.5322 78.2466 51.6625 78.3468C51.7827 78.457 51.953 78.5071 52.1734 78.5071C52.3938 78.5071 52.5642 78.457 52.6844 78.3668C52.7946 78.2666 52.8547 78.1564 52.8547 78.0362C52.8547 77.9561 52.8347 77.8859 52.7846 77.8258C52.7345 77.7657 52.6543 77.7156 52.5341 77.6755C52.454 77.6455 52.2636 77.5954 51.9731 77.5252C51.6024 77.4351 51.3318 77.3149 51.1816 77.1846C50.9712 76.9942 50.861 76.7638 50.861 76.4833C50.861 76.3029 50.9111 76.1427 51.0112 75.9924C51.1114 75.8421 51.2517 75.7219 51.4421 75.6417C51.6324 75.5616 51.8528 75.5215 52.1233 75.5215C52.5541 75.5215 52.8848 75.6217 53.1052 75.812C53.3256 76.0024 53.4358 76.2529 53.4558 76.5735L52.7545 76.6035C52.7245 76.4232 52.6643 76.2929 52.5642 76.2228C52.464 76.1427 52.3137 76.1026 52.1233 76.1026C51.933 76.1026 51.7627 76.1427 51.6424 76.2228C51.5723 76.2729 51.5322 76.343 51.5322 76.4332C51.5322 76.5133 51.5623 76.5835 51.6324 76.6436C51.7226 76.7137 51.933 76.7939 52.2736 76.874C52.6143 76.9542 52.8647 77.0343 53.025 77.1245C53.1853 77.2147 53.3156 77.3249 53.4057 77.4752C53.4959 77.6254 53.546 77.8058 53.546 78.0262C53.546 78.2266 53.4959 78.4069 53.3757 78.5872C53.2555 78.7676 53.1052 78.8878 52.9048 78.978C52.7044 79.0581 52.454 79.1082 52.1534 79.1082C51.7126 79.1082 51.3819 79.008 51.1415 78.8077C50.9111 78.6073 50.7708 78.3067 50.7207 77.926L50.7307 77.916Z" fill="black"/>
<path d="M54.8887 76.5335H55.4998V76.8741C55.7202 76.6036 55.9807 76.4734 56.2813 76.4734C56.4416 76.4734 56.5818 76.5034 56.7021 76.5736C56.8223 76.6437 56.9125 76.7439 56.9926 76.8741C57.1028 76.7439 57.223 76.6437 57.3533 76.5736C57.4835 76.5034 57.6138 76.4734 57.7641 76.4734C57.9444 76.4734 58.1047 76.5135 58.2349 76.5836C58.3652 76.6537 58.4554 76.7639 58.5255 76.9142C58.5756 77.0244 58.5956 77.1947 58.5956 77.4352V79.0382H57.9344V77.6055C57.9344 77.355 57.9143 77.1947 57.8643 77.1246C57.8041 77.0344 57.7039 76.9843 57.5837 76.9843C57.4936 76.9843 57.4034 77.0144 57.3232 77.0645C57.2431 77.1246 57.183 77.2048 57.1429 77.315C57.1028 77.4252 57.0928 77.5955 57.0928 77.8359V79.0382H56.4316V77.6656C56.4316 77.4252 56.4215 77.2649 56.3915 77.1947C56.3715 77.1246 56.3314 77.0745 56.2813 77.0344C56.2312 77.0044 56.1611 76.9843 56.0809 76.9843C55.9807 76.9843 55.8906 77.0144 55.8004 77.0645C55.7102 77.1146 55.6601 77.1947 55.62 77.3049C55.58 77.4051 55.5699 77.5855 55.5699 77.8259V79.0482H54.9087V76.5435L54.8887 76.5335Z" fill="black"/>
<path d="M60.5492 77.2949L59.948 77.1847C60.0182 76.9443 60.1284 76.7639 60.2987 76.6437C60.469 76.5235 60.7095 76.4734 61.0401 76.4734C61.3407 76.4734 61.5611 76.5034 61.7013 76.5736C61.8416 76.6437 61.9518 76.7339 62.0119 76.8441C62.072 76.9543 62.1021 77.1547 62.1021 77.4352V78.2066C62.1021 78.427 62.1021 78.5874 62.1221 78.6976C62.1422 78.7977 62.1822 78.918 62.2423 79.0382H61.5811C61.5811 79.0382 61.541 78.928 61.521 78.8378C61.511 78.7977 61.501 78.7677 61.501 78.7577C61.3907 78.8679 61.2705 78.948 61.1403 79.0081C61.01 79.0683 60.8698 79.0883 60.7295 79.0883C60.469 79.0883 60.2686 79.0182 60.1184 78.8779C59.9681 78.7376 59.8979 78.5573 59.8979 78.3469C59.8979 78.2066 59.928 78.0764 59.9981 77.9662C60.0683 77.856 60.1584 77.7658 60.2787 77.7157C60.3989 77.6556 60.5792 77.6055 60.8097 77.5654C61.1202 77.5053 61.3306 77.4552 61.4509 77.4051V77.335C61.4509 77.2048 61.4208 77.1146 61.3607 77.0645C61.3006 77.0144 61.1804 76.9843 61 76.9843C60.8798 76.9843 60.7896 77.0044 60.7195 77.0545C60.6494 77.1046 60.5993 77.1847 60.5592 77.2949H60.5492ZM61.4408 77.8359C61.3607 77.866 61.2204 77.8961 61.0401 77.9361C60.8598 77.9762 60.7395 78.0163 60.6794 78.0564C60.5892 78.1165 60.5492 78.1966 60.5492 78.2868C60.5492 78.377 60.5792 78.4571 60.6494 78.5272C60.7195 78.5974 60.8097 78.6274 60.9098 78.6274C61.0301 78.6274 61.1403 78.5874 61.2505 78.5072C61.3306 78.4471 61.3807 78.377 61.4108 78.2868C61.4308 78.2267 61.4408 78.1265 61.4408 77.9662V77.8359Z" fill="black"/>
<path d="M64.1861 79.0382H63.5249V76.5335H64.1461V76.8942C64.2563 76.7239 64.3464 76.6136 64.4266 76.5636C64.5067 76.5135 64.6069 76.4834 64.7171 76.4834C64.8674 76.4834 65.0177 76.5235 65.158 76.6036L64.9476 77.1847C64.8374 77.1146 64.7272 77.0745 64.637 77.0745C64.5468 77.0745 64.4667 77.1046 64.3965 77.1547C64.3364 77.2048 64.2763 77.2949 64.2463 77.4352C64.2162 77.5755 64.1861 77.846 64.1861 78.2768V79.0482V79.0382Z" fill="black"/>
<path d="M67.3919 76.5333V77.0643H66.941V78.0762C66.941 78.2766 66.941 78.3968 66.9511 78.4369C66.9511 78.4669 66.9811 78.497 67.0112 78.517C67.0412 78.537 67.0813 78.5471 67.1214 78.5471C67.1815 78.5471 67.2717 78.527 67.3919 78.4869L67.452 78.9979C67.3017 79.068 67.1214 79.0981 66.931 79.0981C66.8108 79.0981 66.7006 79.0781 66.6104 79.038C66.5102 78.9979 66.4401 78.9478 66.4 78.8777C66.3599 78.8176 66.3199 78.7274 66.3099 78.6172C66.2998 78.537 66.2898 78.3868 66.2898 78.1463V77.0543H65.9893V76.5233H66.2898V76.0223L66.9611 75.6316V76.5132H67.4119L67.3919 76.5333Z" fill="black"/>
<path d="M73.0326 77.7657L73.7139 77.9761C73.6137 78.3568 73.4334 78.6373 73.1929 78.8177C72.9525 78.998 72.6419 79.0882 72.2712 79.0882C71.8103 79.0882 71.4296 78.9279 71.1391 78.6173C70.8385 78.3067 70.6982 77.8759 70.6982 77.3249C70.6982 76.7438 70.8485 76.303 71.1491 75.9824C71.4497 75.6618 71.8404 75.5015 72.3213 75.5015C72.7421 75.5015 73.0927 75.6217 73.3532 75.8722C73.5135 76.0224 73.6337 76.2328 73.7039 76.5134L73.0126 76.6837C72.9725 76.5033 72.8823 76.3631 72.7521 76.2629C72.6219 76.1627 72.4616 76.1026 72.2812 76.1026C72.0207 76.1026 71.8203 76.1928 71.66 76.3831C71.4997 76.5735 71.4196 76.864 71.4196 77.2748C71.4196 77.7156 71.4997 78.0262 71.66 78.2065C71.8203 78.3869 72.0207 78.4871 72.2712 78.4871C72.4615 78.4871 72.6219 78.427 72.7521 78.3067C72.8823 78.1865 72.9825 78.0062 73.0426 77.7457L73.0326 77.7657Z" fill="black"/>
<path d="M74.9663 77.7558C74.9663 77.5354 75.0164 77.325 75.1266 77.1146C75.2368 76.9042 75.3871 76.7539 75.5875 76.6437C75.7879 76.5335 76.0083 76.4834 76.2587 76.4834C76.6394 76.4834 76.95 76.6036 77.1905 76.8541C77.4309 77.1046 77.5512 77.4151 77.5512 77.7858C77.5512 78.1565 77.4309 78.4771 77.1805 78.7276C76.94 78.9781 76.6294 79.0983 76.2587 79.0983C76.0283 79.0983 75.8079 79.0482 75.5975 78.938C75.3871 78.8278 75.2268 78.6775 75.1266 78.4771C75.0164 78.2768 74.9663 78.0363 74.9663 77.7458V77.7558ZM75.6476 77.7959C75.6476 78.0463 75.7077 78.2367 75.8279 78.3669C75.9482 78.4972 76.0884 78.5673 76.2687 78.5673C76.4491 78.5673 76.5893 78.4972 76.7096 78.3669C76.8298 78.2367 76.8899 78.0463 76.8899 77.7858C76.8899 77.5254 76.8298 77.355 76.7096 77.2148C76.5893 77.0745 76.4491 77.0144 76.2687 77.0144C76.0884 77.0144 75.9482 77.0845 75.8279 77.2148C75.7077 77.345 75.6476 77.5354 75.6476 77.7858V77.7959Z" fill="black"/>
<path d="M81.1578 79.0382H80.4966V77.7558C80.4966 77.4853 80.4866 77.3049 80.4565 77.2348C80.4264 77.1547 80.3864 77.0946 80.3162 77.0445C80.2561 77.0044 80.176 76.9743 80.0858 76.9743C79.9756 76.9743 79.8654 77.0044 79.7752 77.0645C79.6851 77.1246 79.6249 77.2148 79.5849 77.315C79.5448 77.4152 79.5348 77.6155 79.5348 77.8961V79.0282H78.8735V76.5235H79.4947V76.8942C79.7151 76.6136 79.9856 76.4734 80.3263 76.4734C80.4765 76.4734 80.6068 76.5034 80.727 76.5535C80.8472 76.6036 80.9374 76.6738 80.9975 76.7539C81.0576 76.8341 81.1077 76.9242 81.1278 77.0344C81.1478 77.1446 81.1678 77.2849 81.1678 77.4853V79.0482L81.1578 79.0382Z" fill="black"/>
<path d="M83.7928 76.5333V77.0643H83.3419V78.0762C83.3419 78.2766 83.3419 78.3968 83.3519 78.4369C83.3519 78.4669 83.382 78.497 83.4121 78.517C83.4421 78.537 83.4822 78.5471 83.5223 78.5471C83.5824 78.5471 83.6725 78.527 83.7928 78.4869L83.8529 78.9979C83.7026 79.068 83.5223 79.0981 83.3319 79.0981C83.2117 79.0981 83.1015 79.0781 83.0113 79.038C82.9111 78.9979 82.841 78.9478 82.8009 78.8777C82.7608 78.8176 82.7208 78.7274 82.7107 78.6172C82.7007 78.537 82.6907 78.3868 82.6907 78.1463V77.0543H82.3901V76.5233H82.6907V76.0223L83.362 75.6316V76.5132H83.8128L83.7928 76.5333Z" fill="black"/>
<path d="M86.5178 78.2467L87.1791 78.3569C87.0989 78.5974 86.9587 78.7877 86.7783 78.908C86.598 79.0382 86.3676 79.0983 86.087 79.0983C85.6462 79.0983 85.3256 78.958 85.1152 78.6675C84.9449 78.4371 84.8647 78.1465 84.8647 77.8059C84.8647 77.3851 84.975 77.0645 85.1954 76.824C85.4158 76.5836 85.6863 76.4734 86.0169 76.4734C86.3876 76.4734 86.6882 76.5936 86.8986 76.8441C87.119 77.0945 87.2192 77.4652 87.2091 77.9762H85.546C85.546 78.1766 85.6061 78.3269 85.7063 78.4371C85.8065 78.5473 85.9368 78.5974 86.087 78.5974C86.1872 78.5974 86.2774 78.5673 86.3475 78.5172C86.4177 78.4671 86.4678 78.3669 86.5078 78.2467H86.5178ZM86.5579 77.5755C86.5579 77.3851 86.5078 77.2348 86.4076 77.1346C86.3175 77.0344 86.1972 76.9843 86.067 76.9843C85.9267 76.9843 85.8065 77.0344 85.7063 77.1446C85.6061 77.2549 85.5661 77.3951 85.5661 77.5755H86.5579Z" fill="black"/>
<path d="M90.8463 79.0382H90.1851V77.7558C90.1851 77.4853 90.175 77.3049 90.145 77.2348C90.1149 77.1547 90.0749 77.0946 90.0047 77.0445C89.9446 77.0044 89.8645 76.9743 89.7743 76.9743C89.6641 76.9743 89.5539 77.0044 89.4637 77.0645C89.3735 77.1246 89.3134 77.2148 89.2733 77.315C89.2333 77.4152 89.2232 77.6155 89.2232 77.8961V79.0282H88.562V76.5235H89.1832V76.8942C89.4036 76.6136 89.6741 76.4734 90.0147 76.4734C90.165 76.4734 90.2953 76.5034 90.4155 76.5535C90.5357 76.6036 90.6259 76.6738 90.686 76.7539C90.7461 76.8341 90.7962 76.9242 90.8162 77.0344C90.8363 77.1446 90.8563 77.2849 90.8563 77.4853V79.0482L90.8463 79.0382Z" fill="black"/>
<path d="M93.4812 76.5333V77.0643H93.0304V78.0762C93.0304 78.2766 93.0304 78.3968 93.0404 78.4369C93.0404 78.4669 93.0705 78.497 93.1005 78.517C93.1306 78.537 93.1707 78.5471 93.2107 78.5471C93.2708 78.5471 93.361 78.527 93.4812 78.4869L93.5414 78.9979C93.3911 79.068 93.2107 79.0981 93.0204 79.0981C92.9001 79.0981 92.7899 79.0781 92.6998 79.038C92.5996 78.9979 92.5295 78.9478 92.4894 78.8777C92.4493 78.8176 92.4092 78.7274 92.3992 78.6172C92.3892 78.537 92.3792 78.3868 92.3792 78.1463V77.0543H92.0786V76.5233H92.3792V76.0223L93.0504 75.6316V76.5132H93.5013L93.4812 76.5333Z" fill="black"/>
<path d="M67.2215 17.553L55.8602 26.1892L52.5239 20.6088L45.4607 32.4309L23.4995 38.7027L47.2841 3.59686C49.7988 -0.110087 55.2591 -0.110087 57.7638 3.59686L67.2215 17.563V17.553Z" fill="#ADDB42"/>
<path d="M87.7203 47.8196H34.25C39.049 45.4953 44.1486 42.8403 49.4285 39.9048C50.9112 39.0833 52.364 38.2617 53.7966 37.4402H62.5731L60.2788 33.603C64.7873 30.8578 68.935 28.1327 72.6019 25.5078L87.7203 47.8196Z" fill="#ADDB42"/>
<path d="M72.6015 25.5078C68.9346 28.1328 64.7869 30.8479 60.2784 33.603C58.1945 34.8754 56.0304 36.1578 53.7963 37.4402C52.3636 38.2618 50.9108 39.0833 49.4281 39.9048C44.1482 42.8403 39.0386 45.5053 34.2496 47.8197C19.2916 55.0532 7.30909 58.9105 2.05924 56.9368C1.36795 56.6763 0.796876 56.3156 0.34603 55.8447C-0.164928 49.8936 2.86075 44.7539 4.32349 42.67C4.4337 43.0307 4.55392 43.3713 4.67415 43.702C5.09493 44.8641 5.5558 45.836 5.97659 46.5774C7.41929 49.062 11.517 49.2624 17.378 47.7596C24.0104 46.0564 32.8971 42.1791 42.7756 36.9593C44.2784 36.1578 45.8113 35.3363 47.3542 34.4847C50.8708 32.541 54.207 30.5874 57.3229 28.6537C61.8113 25.8685 65.8288 23.1334 69.2152 20.5085C77.8313 13.856 82.3598 8.03509 80.0254 4.48844C78.3222 1.90359 70.1269 0.300586 59.7073 0.340661C74.6453 -0.731349 87.0085 0.891694 89.2327 4.25801C92.1682 8.69633 85.1551 16.5611 72.6215 25.5179L72.6015 25.5078Z" fill="#070707"/>
</g>
<defs>
<clipPath id="clip0_380_94">
<rect width="94.8779" height="80" fill="white" transform="translate(0.286133)"/>
</clipPath>
</defs>
</svg>
