<svg width="170" height="60" viewBox="0 0 170 60" fill="none" xmlns="http://www.w3.org/2000/svg">
<g clip-path="url(#clip0_380_158)">
<path d="M2.56993 10.1018V8.71616C2.56993 1.95182 7.91883 0 26.1557 0C40.3996 0 45.3015 0.759871 48.8326 3.62056C51.738 5.85547 52.3787 8.01589 52.3787 15.6742V32.6744H45.7485L45.8379 28.9198H45.5697C42.3961 32.4063 39.3119 33.1065 26.5133 33.1065C11.45 33.1065 7.45695 32.6893 4.37276 30.8716C1.64617 29.2029 0.737305 27.2511 0.737305 23.3474C0.737305 18.2667 2.37624 15.7487 6.72687 14.4971C9.27468 13.7373 13.2677 13.4542 22.1478 13.4542C39.3864 13.4542 42.2918 13.8714 45.1972 16.9406H45.7485V13.4542C45.7485 10.1167 45.3015 8.71616 43.7519 7.33052C41.3978 5.0956 37.5836 4.46983 26.6027 4.46983C12.1801 4.46983 9.63226 5.2297 9.54286 9.69953V10.1167H2.56993V10.1018ZM10.2878 19.0862C8.6489 19.9205 7.84433 21.3211 7.84433 23.407C7.84433 25.776 8.75319 27.0276 11.1073 27.8023C13.0144 28.4281 17.5439 28.6367 27.899 28.6367C41.964 28.6367 45.3164 27.5937 45.3164 23.2729C45.3164 18.9521 41.3233 17.9836 26.5282 17.9836C15.3685 17.9836 12.195 18.1922 10.2878 19.1011V19.0862Z" fill="#F0B31F"/>
<path d="M111.172 20.9635C111.083 25.2843 110.084 27.5788 107.626 29.5307C104.363 32.1828 99.6398 33.0767 88.7483 33.0767C73.7744 33.0767 67.9636 32.3765 64.2536 30.0074C60.35 27.5639 58.4429 23.258 58.4429 16.5682C58.4429 8.83536 60.8864 4.30593 66.1608 2.08592C69.7962 0.551279 74.6832 0 84.7553 0C98.1796 0 103.901 0.908865 107.253 3.62056C109.697 5.49789 110.606 7.7328 110.889 11.9046H103.99C103.812 5.84058 100.176 4.45493 84.7553 4.45493C68.5149 4.45493 65.5201 6.40675 65.5201 16.9258C65.5201 22.7067 67.159 25.8356 70.9584 27.1617C73.5956 28.1301 78.6763 28.5473 87.4669 28.5473C101.085 28.5473 104.08 27.2213 104.348 20.9486H111.157L111.172 20.9635Z" fill="#F0B31F"/>
<path d="M169.876 22.7067C169.607 30.4395 163.707 33.0916 146.647 33.0916C132.135 33.0916 125.684 32.3318 121.974 30.0968C117.981 27.7278 115.984 23.2729 115.984 16.6576C115.984 8.79066 118.428 4.26123 123.881 1.96672C127.323 0.506574 132.135 0.0148926 142.297 0.0148926C156.809 0.0148926 161.8 0.923758 165.704 4.26123C168.877 7.12192 169.786 10.0422 169.965 17.7005H123.151C123.33 21.8724 124.239 24.3904 126.235 25.9846C128.768 28.0109 133.312 28.6367 145.917 28.6367C155.453 28.6367 159.163 28.0854 161.338 26.1932C162.426 25.3588 162.605 24.7926 162.888 22.7067H169.876ZM162.62 13.3052C162.53 6.19816 158.448 4.45492 142.118 4.45492C127.606 4.45492 124.06 6.12366 123.33 13.3052H162.62Z" fill="#F0B31F"/>
<path d="M0.752197 59.8211L4.84954 49.1531H6.36928L10.7348 59.8211H9.12567L7.87412 56.5879H3.41919L2.24214 59.8211H0.752197ZM3.83638 55.4406H7.45694L6.33948 52.4905C5.99679 51.5966 5.7435 50.8516 5.57961 50.2705C5.44552 50.9559 5.25182 51.6413 4.99853 52.3118L3.82148 55.4406H3.83638Z" fill="black"/>
<path d="M22.4905 56.0814L23.9059 56.439C23.6079 57.6011 23.0716 58.4802 22.3117 59.0911C21.5369 59.702 20.5983 59.9999 19.4957 59.9999C18.3931 59.9999 17.4098 59.7616 16.6946 59.2997C15.9794 58.8378 15.4282 58.1524 15.0557 57.2585C14.6832 56.3645 14.4895 55.4109 14.4895 54.3978C14.4895 53.2803 14.6981 52.3118 15.1302 51.4924C15.5623 50.6729 16.1582 50.0322 16.9479 49.6001C17.7376 49.1681 18.6017 48.9595 19.5404 48.9595C20.6132 48.9595 21.5071 49.2277 22.2372 49.7789C22.9673 50.3302 23.4739 51.0901 23.7569 52.0735L22.3713 52.4012C22.118 51.6265 21.7604 51.0603 21.2985 50.7027C20.8218 50.3451 20.2407 50.1663 19.5255 50.1663C18.706 50.1663 18.0207 50.36 17.4694 50.7623C16.9181 51.1497 16.5307 51.6861 16.3072 52.3416C16.0837 52.9972 15.9794 53.6826 15.9794 54.3978C15.9794 55.3066 16.1135 56.0963 16.3817 56.7817C16.6499 57.467 17.0522 57.9587 17.6184 58.3014C18.1697 58.6292 18.7805 58.808 19.4361 58.808C20.2258 58.808 20.8963 58.5845 21.4475 58.1226C21.9988 57.6607 22.3713 56.9903 22.565 56.0963L22.4905 56.0814Z" fill="black"/>
<path d="M27.6309 59.8211V49.1531H35.3488V50.4195H29.0463V53.6825H34.9465V54.9341H29.0463V58.5695H35.602V59.836H27.6458L27.6309 59.8211Z" fill="black"/>
<path d="M44.02 59.8211V49.1531H48.0429C48.7431 49.1531 49.2944 49.1829 49.6669 49.2574C50.1884 49.3468 50.6354 49.5107 50.9781 49.7491C51.3356 49.9874 51.6187 50.345 51.8273 50.7771C52.0359 51.2241 52.1551 51.7009 52.1551 52.2373C52.1551 53.1461 51.872 53.906 51.2909 54.5467C50.7099 55.1873 49.6669 55.4853 48.1621 55.4853H45.4206V59.8211H44.0051H44.02ZM45.4355 54.2189H48.1919C49.1007 54.2189 49.7563 54.055 50.1288 53.7123C50.5162 53.3696 50.7099 52.8928 50.7099 52.282C50.7099 51.835 50.5907 51.4476 50.3672 51.1347C50.1437 50.8218 49.8457 50.6132 49.4732 50.5089C49.2348 50.4493 48.8027 50.4195 48.1621 50.4195H45.4355V54.2338V54.2189Z" fill="black"/>
<path d="M55.8948 59.8211V49.1531H60.6328C61.5864 49.1531 62.3015 49.2425 62.8081 49.4362C63.3147 49.6299 63.7021 49.9725 64.0001 50.4493C64.2981 50.941 64.447 51.4774 64.447 52.0585C64.447 52.8183 64.1938 53.459 63.717 53.9805C63.2253 54.502 62.4654 54.8298 61.4523 54.9639C61.8248 55.1426 62.1078 55.3214 62.3015 55.5002C62.7187 55.8727 63.1061 56.3495 63.4786 56.9157L65.341 59.8211H63.568L62.1525 57.6011C61.7354 56.9604 61.3927 56.4687 61.1394 56.126C60.8712 55.7833 60.6328 55.5449 60.4242 55.4108C60.2156 55.2767 59.9921 55.1873 59.7835 55.1277C59.6196 55.0979 59.3663 55.083 58.9939 55.083H57.3549V59.8211H55.9395H55.8948ZM57.3102 53.8613H60.3497C60.9904 53.8613 61.497 53.8017 61.8694 53.6676C62.2419 53.5335 62.5101 53.3249 62.7038 53.0269C62.8975 52.7289 62.9869 52.4161 62.9869 52.0734C62.9869 51.5668 62.8081 51.1496 62.4356 50.8218C62.0631 50.494 61.497 50.3301 60.6924 50.3301H57.3102V53.8613Z" fill="black"/>
<path d="M69.0212 54.6213C69.0212 52.8482 69.498 51.4626 70.4516 50.4643C71.4052 49.4661 72.6269 48.9595 74.1317 48.9595C75.1151 48.9595 76.0091 49.1979 76.7987 49.6597C77.5884 50.1216 78.1993 50.7921 78.6016 51.6265C79.0188 52.4757 79.2273 53.4293 79.2273 54.4872C79.2273 55.545 79.0039 56.5433 78.5718 57.3926C78.1397 58.2418 77.5139 58.8974 76.7093 59.3295C75.9048 59.7616 75.0406 59.985 74.1168 59.985C73.1186 59.985 72.2097 59.7467 71.4201 59.255C70.6304 58.7633 70.0344 58.1077 69.6172 57.2734C69.2149 56.439 69.0063 55.545 69.0063 54.6064L69.0212 54.6213ZM70.4814 54.6362C70.4814 55.9175 70.8241 56.9307 71.5243 57.6756C72.2246 58.4206 73.0888 58.7931 74.1317 58.7931C75.1747 58.7931 76.0687 58.4206 76.754 57.6756C77.4394 56.9307 77.7821 55.8728 77.7821 54.4872C77.7821 53.623 77.6331 52.8631 77.3351 52.2075C77.0371 51.552 76.605 51.0603 76.0389 50.7027C75.4727 50.3451 74.832 50.1663 74.1317 50.1663C73.1335 50.1663 72.2693 50.509 71.5541 51.1944C70.839 51.8798 70.4665 53.027 70.4665 54.6362H70.4814Z" fill="black"/>
<path d="M87.6606 59.8213V49.1533H89.0761V59.8213H87.6606Z" fill="black"/>
<path d="M92.801 59.8213V49.1533H94.2463L99.8485 57.5268V49.1533H101.204V59.8213H99.7591L94.1569 51.4329V59.8213H92.801Z" fill="black"/>
<path d="M104.929 59.8213V49.1533H108.609C109.443 49.1533 110.069 49.198 110.516 49.3023C111.127 49.4364 111.649 49.7046 112.081 50.0622C112.647 50.539 113.064 51.1498 113.347 51.8799C113.63 52.6249 113.764 53.4593 113.764 54.4128C113.764 55.2174 113.675 55.9475 113.481 56.5732C113.288 57.199 113.049 57.7205 112.751 58.1228C112.453 58.54 112.125 58.8528 111.783 59.0912C111.425 59.3296 111.008 59.5084 110.516 59.6276C110.025 59.7468 109.443 59.8064 108.803 59.8064H104.959L104.929 59.8213ZM106.344 58.5549H108.624C109.324 58.5549 109.876 58.4953 110.278 58.3612C110.68 58.2271 110.993 58.0483 111.231 57.8099C111.559 57.4821 111.827 57.0202 112.006 56.454C112.2 55.8879 112.289 55.2025 112.289 54.3979C112.289 53.2805 112.11 52.4163 111.738 51.8203C111.366 51.2243 110.933 50.8221 110.397 50.6135C110.025 50.4645 109.414 50.39 108.564 50.39H106.33V58.54L106.344 58.5549Z" fill="black"/>
<path d="M117.474 59.8213V49.1533H118.89V59.8213H117.474Z" fill="black"/>
<path d="M122.615 59.8213L126.712 49.1533H128.232L132.597 59.8213H130.988L129.737 56.5881H125.267L124.09 59.8213H122.585H122.615ZM125.699 55.4409H129.32L128.202 52.4908C127.859 51.5968 127.606 50.8519 127.442 50.2708C127.308 50.9562 127.114 51.6415 126.861 52.312L125.684 55.4409H125.699Z" fill="black"/>
<path d="M141.03 59.8213V49.1533H142.446V58.5698H147.705V59.8362H141.03V59.8213Z" fill="black"/>
<path d="M151.43 59.8213V49.1533H152.846V58.5698H158.105V59.8362H151.43V59.8213Z" fill="black"/>
<path d="M161.815 59.8213V49.1533H165.838C166.538 49.1533 167.089 49.1831 167.462 49.2576C167.983 49.347 168.43 49.5109 168.773 49.7493C169.131 49.9877 169.414 50.3453 169.622 50.7774C169.831 51.2243 169.95 51.7011 169.95 52.2375C169.95 53.1464 169.667 53.9062 169.086 54.5469C168.505 55.1876 167.462 55.4856 165.957 55.4856H163.216V59.8213H161.8H161.815ZM163.23 54.2191H165.987C166.896 54.2191 167.551 54.0552 167.924 53.7125C168.311 53.3699 168.505 52.8931 168.505 52.2822C168.505 51.8352 168.386 51.4478 168.162 51.1349C167.939 50.8221 167.641 50.6135 167.268 50.5092C167.03 50.4496 166.598 50.4198 165.957 50.4198H163.23V54.234V54.2191Z" fill="black"/>
<path d="M43.0517 39.4834H0.752197V42.4633H43.0517V39.4834Z" fill="#ED1C24"/>
<path d="M85.3512 39.4834H43.0518V42.4633H85.3512V39.4834Z" fill="#85C550"/>
<path d="M127.651 39.4834H85.3511V42.4633H127.651V39.4834Z" fill="#4AA9EB"/>
<path d="M169.965 39.4834H127.666V42.4633H169.965V39.4834Z" fill="#F0B31F"/>
</g>
<defs>
<clipPath id="clip0_380_158">
<rect width="169.213" height="60" fill="white" transform="translate(0.752197)"/>
</clipPath>
</defs>
</svg>
