<svg width="199" height="60" viewBox="0 0 199 60" fill="none" xmlns="http://www.w3.org/2000/svg">
<g clip-path="url(#clip0_365_29)">
<path d="M61.8438 56.3979L48.3647 18.365H35.0675L21.071 59.3006H33.4772L35.1346 53.3323H48.1252L49.7825 59.3006H62.8689L61.8342 56.3979H61.8438ZM38.1332 44.624L41.7353 32.4094L45.3182 44.624H38.1332Z" fill="#EF7D00"/>
<path d="M107.512 31.8921C105.615 29.9282 103.019 28.9414 99.7138 28.9414C96.0829 28.9414 92.8832 30.6467 90.1146 34.0476C88.3614 30.6562 85.267 28.9414 80.8219 28.9414C77.5263 28.9414 74.6906 30.4646 72.3531 33.5303V29.6216H61.8438V59.3007H72.583V42.8517C72.583 41.2135 72.9854 39.9776 73.7518 39.1538C74.5469 38.3299 75.6007 37.9179 76.9132 37.9179C78.2257 37.9179 79.2508 38.2916 79.8351 39.0196C80.4195 39.7477 80.6973 40.8494 80.6973 42.3439V59.3102H91.4653V42.8613C91.4653 41.2231 91.839 39.9872 92.6341 39.1633C93.4101 38.3395 94.4639 37.9275 95.7668 37.9275C97.1463 37.9275 98.1043 38.3011 98.6887 39.0292C99.2731 39.7573 99.5797 40.859 99.5797 42.3535V59.3198H110.319V40.4088C110.319 36.73 109.38 33.9039 107.483 31.9112L107.512 31.8921Z" fill="#EF7D00"/>
<path d="M141.071 31.8442C139.126 29.8994 136.578 28.9414 133.417 28.9414C129.508 28.9414 126.327 30.4646 123.894 33.5303V29.6216H113.203V59.3007H124.134V42.8517C124.134 41.2805 124.574 40.0639 125.494 39.2017C126.404 38.3586 127.554 37.9179 128.933 37.9179C131.692 37.9179 133.072 39.3933 133.072 42.3439V59.3102H143.974V40.0926C143.974 36.5384 143.016 33.7985 141.071 31.8537V31.8442Z" fill="#EF7D00"/>
<path d="M177.322 45.6107C177.322 40.4183 175.847 36.3181 172.896 33.3674C169.897 30.4167 166.018 28.9414 161.199 28.9414C156.38 28.9414 152.519 30.3497 149.569 33.2045C146.618 35.9923 145.143 39.7573 145.143 44.4611C145.143 49.1649 146.637 52.9107 149.616 55.7464C152.615 58.5822 156.524 60.0096 161.314 60.0096C165.079 60.0096 168.384 59.1186 171.21 57.3655C173.998 55.5836 175.799 53.1311 176.613 49.9505H166.592C165.539 51.6558 163.785 52.5275 161.304 52.5275C158.009 52.5275 156.016 50.8702 155.317 47.5172H177.312V45.6203L177.322 45.6107ZM155.326 41.2614C155.978 38.0329 157.903 36.4139 161.084 36.4139C164.264 36.4139 166.324 38.0329 167.033 41.2614H155.336H155.326Z" fill="#EF7D00"/>
<path d="M198.389 37.1131V29.6215H192.353V20.6545H180.905V29.6215H176.364V37.1131H180.905V50.2187C180.905 53.5429 181.863 55.9571 183.827 57.4037C185.772 58.8503 189 59.6071 193.512 59.6071C194.796 59.6071 196.415 59.4922 198.379 59.3006V51.5982H196.013C194.585 51.5982 193.627 51.4353 193.11 51.1096C192.593 50.7839 192.334 50.0558 192.334 48.9541V37.1131H198.369H198.389Z" fill="#EF7D00"/>
<path d="M31.5037 18.365L24.8647 0V15.7113L0.445068 18.7578L24.8647 21.8138V36.7396L31.5037 18.365Z" fill="#513426"/>
</g>
<defs>
<clipPath id="clip0_365_29">
<rect width="197.943" height="60" fill="white" transform="translate(0.445068)"/>
</clipPath>
</defs>
</svg>
