<svg width="260" height="40" viewBox="0 0 260 40" fill="none" xmlns="http://www.w3.org/2000/svg">
<g clip-path="url(#clip0_365_37)">
<path d="M30.5694 30.4165L27.3874 23.7623H13.9012L10.5039 30.4165L10.326 30.8844C10.326 30.8844 10.1202 31.2588 9.79259 31.9232C9.28721 32.9246 9.04388 33.9541 9.04388 35.0023C9.04388 36.818 10.0453 38.1001 12.0481 38.8675V39.5133C11.6457 39.5133 10.9344 39.4572 9.93298 39.3355C8.52914 39.167 7.26568 39.0828 6.14261 39.0828C5.11313 39.0828 3.84968 39.167 2.35226 39.3355C1.32277 39.4572 0.648933 39.5133 0.312012 39.5133V38.8675C2.93251 37.5292 5.31903 34.7777 7.47158 30.6036L19.3387 7.47775C18.4309 5.64341 17.1861 4.22085 15.5951 3.21945C14.0041 2.21804 12.151 1.66587 10.0359 1.57228V0.926514H11.29C12.4131 0.926514 13.948 1.00139 15.904 1.14177C17.9536 1.28215 19.2919 1.35702 19.9096 1.35702L37.9816 39.0641C35.67 39.1109 32.8904 39.2513 29.6428 39.4946V38.8488C31.4585 38.54 32.3663 37.5573 32.3663 35.9195C32.3663 34.7028 31.7673 32.8685 30.5787 30.4071L30.5694 30.4165ZM15.2956 21.0763H26.1052L20.9203 10.2012L15.305 21.0763H15.2956ZM40.8455 39.0734L22.7734 1.35702H26.283C26.7603 2.60176 27.4248 4.15534 28.2858 6.04584C29.2404 8.07672 29.7739 9.27466 29.8955 9.65838C30.0172 9.87364 30.1202 10.1263 30.2137 10.4071L38.618 27.8334C41.5474 33.8886 44.6733 37.5667 47.9957 38.8488V39.4946C44.7481 39.2045 42.3616 39.0641 40.8361 39.0641L40.8455 39.0734Z" fill="#64A522"/>
<path d="M59.1235 1.35702V39.0641H57.5886C56.9896 39.0641 56.0537 39.139 54.7622 39.2793C53.6672 39.4197 52.3757 39.4946 50.897 39.4946V38.8488C52.4225 38.6804 53.6859 37.9317 54.6873 36.5933C55.6887 35.255 56.1941 32.6813 56.1941 28.8629V10.482C56.1941 5.27841 54.4253 2.31163 50.897 1.57228V0.926514C52.4225 1.09497 55.1646 1.23536 59.1235 1.35702ZM62.7734 39.0641H61.7346V1.35702C63.1665 1.35702 64.692 1.30087 66.3111 1.1792C68.1735 1.01074 69.6897 0.926514 70.8595 0.926514C74.1258 0.926514 76.5591 1.92792 78.1595 3.93073C79.7599 5.91481 80.5554 8.35749 80.5554 11.2681C80.5554 16.2096 78.4683 19.3636 74.2943 20.7487C76.3719 21.0388 78.1127 21.6565 79.5165 22.6111C81.0233 23.6406 83.2975 25.6902 86.3485 28.7693C90.9999 33.4955 94.7903 35.854 97.729 35.854C98.3279 35.854 98.9363 35.6481 99.554 35.2457L99.6943 35.8914C98.7397 37.1362 97.4201 37.7538 95.7262 37.7538C93.9105 37.7538 92.02 37.0706 90.0359 35.7136C88.1735 34.4221 85.3939 31.8952 81.6972 28.1329C77.261 23.5564 72.9466 21.2634 68.7444 21.2634C71.3462 22.0777 74.8652 24.8105 79.3013 29.4525C82.4272 32.7 84.926 35.0585 86.8165 36.5372C88.7257 38.0159 90.5507 38.7552 92.2915 38.7552V39.0734C91.4772 39.3636 90.6817 39.504 89.8956 39.504C87.5839 39.504 85.5811 38.9237 83.8871 37.7538C82.9793 37.1081 81.8282 36.1254 80.4337 34.8058C79.0392 33.4862 77.364 31.7735 75.408 29.6677C72.5441 26.6167 70.4197 24.5391 69.0345 23.4441C67.5558 22.321 66.1146 21.5348 64.7014 21.0856V29.5648C64.7014 35.2644 66.4234 38.3622 69.8581 38.8675V39.5133C66.9943 39.2232 64.6359 39.0828 62.7734 39.0828V39.0641ZM64.7014 11.1932V18.9611C66.1052 19.3168 67.6401 19.4946 69.2779 19.4946C74.6405 19.4946 77.3265 16.7056 77.3265 11.1184C77.3265 5.8961 74.6686 3.28496 69.3434 3.28496C67.6307 3.28496 66.2924 3.63124 65.3378 4.3238C64.9073 5.27841 64.692 7.57134 64.692 11.1932H64.7014ZM80.911 18.9237C82.4646 16.4717 83.2414 13.7576 83.2414 10.8002C83.2414 8.1048 82.3429 5.40007 80.5554 2.67663C84.6546 4.41739 86.7135 7.15955 86.7135 10.9031C86.7135 14.6467 84.7856 17.3701 80.9204 18.9143L80.911 18.9237Z" fill="#64A522"/>
<path d="M110.429 1.35702V39.0641C108.716 39.0641 106.096 39.2045 102.596 39.4946V38.8488C104.43 38.3715 105.712 37.3327 106.423 35.7323C107.135 34.16 107.5 31.3056 107.5 27.1783V11.2026C107.5 8.1048 107.125 5.82123 106.395 4.37059C105.656 2.93868 104.393 2.01215 102.605 1.58164V0.935873C105.516 1.16985 108.127 1.31959 110.438 1.36638L110.429 1.35702ZM113.115 39.0641V1.35702C116.073 1.35702 118.693 1.21664 120.986 0.926514V1.57228C119.582 1.83433 118.412 2.60176 117.476 3.86521C116.522 5.17546 116.044 7.88019 116.044 11.9888V29.0594C116.044 32.7375 116.55 35.1989 117.551 36.4623C118.553 37.7258 119.694 38.5213 120.986 38.8582V39.504C118.74 39.2138 116.119 39.0734 113.115 39.0734V39.0641Z" fill="#64A522"/>
<path d="M132.366 1.35694L173.583 36.5652V39.4945H172.872L140.452 11.9044V28.5446C140.452 32.1665 140.92 34.684 141.847 36.0972C142.773 37.5011 144.243 38.4182 146.246 38.8488V39.4945C142.642 39.2044 140.2 39.064 138.908 39.064C137.458 39.064 135.258 39.2044 132.329 39.4945V38.8488C134.379 38.3714 135.773 37.4075 136.512 35.9475C137.252 34.4969 137.626 31.9138 137.626 28.217L137.589 9.53663L135.015 7.35601C131.44 4.305 128.417 2.36771 125.965 1.56284V0.917074L132.366 1.34758V1.35694ZM173.583 33.0556L136.409 1.35694H140.63L170.719 26.9723V12.1197C170.719 9.63958 170.551 7.73036 170.214 6.39204C169.877 5.12858 169.203 4.06167 168.174 3.21001C167.144 2.37706 165.834 1.82489 164.233 1.56284V0.917074C164.233 0.917074 164.673 0.954509 165.488 1.02002C168.613 1.23528 170.738 1.33822 171.852 1.33822C172.881 1.33822 175.324 1.19784 179.189 0.907715V1.55348C177.944 1.72194 176.859 2.23668 175.932 3.08834C175.024 3.90257 174.407 4.90397 174.07 6.09255C173.733 7.30921 173.564 9.01253 173.564 11.2119V33.0369L173.583 33.0556Z" fill="#64A522"/>
<path d="M190.111 4.72625C187.49 8.77866 186.171 13.9729 186.171 20.2901C186.171 26.0178 187.425 30.978 189.924 35.1708C185.104 31.9981 182.699 26.9162 182.699 19.9251C182.699 12.934 185.169 7.67431 190.102 4.71689L190.111 4.72625ZM220.237 20.0374C220.237 24.4268 219.573 28.1329 218.235 31.1652C216.924 34.1694 215.071 36.3875 212.685 37.8194C210.345 39.27 207.612 40 204.496 40C199.535 40 195.698 38.2218 192.975 34.6654C190.251 31.109 188.894 26.2237 188.894 20C188.894 13.7763 190.279 8.57277 193.04 5.11933C195.811 1.71268 199.601 0 204.421 0C209.241 0 213.171 1.70332 216.016 5.11933C218.834 8.50725 220.237 13.4768 220.237 20.0374ZM216.877 20.0749C216.877 8.64764 212.722 2.9387 204.43 2.9387C196.138 2.9387 192.226 8.79738 192.226 20.5054C192.226 31.5208 196.344 37.0332 204.571 37.0332C212.797 37.0332 216.877 31.3804 216.877 20.0749ZM218.955 35.3861C221.557 31.8577 222.858 26.5325 222.858 19.4291C222.858 13.1586 221.566 8.26392 218.993 4.76369C223.906 7.69303 226.367 12.7188 226.367 19.8222C226.367 26.9256 223.897 32.0262 218.965 35.3861H218.955Z" fill="#31699E"/>
<path d="M231.758 26.6542H232.582C232.75 29.7052 233.976 32.2227 236.269 34.2068C238.506 36.1628 241.089 37.1362 243.999 37.1362C246.246 37.1362 248.071 36.4998 249.474 35.2363C250.878 33.9728 251.59 32.4567 251.59 30.6879C251.59 28.8254 250.906 27.3842 249.549 26.3547C248.239 25.3533 245.647 24.2209 241.781 22.9574C238.684 21.9279 236.475 21.0856 235.165 20.4211C233.639 19.635 232.441 18.5774 231.59 17.2391C230.663 15.8821 230.195 14.3566 230.195 12.6626C230.195 10.7815 230.831 8.92839 232.095 7.11276C231.805 8.0393 231.664 8.85352 231.664 9.54608C231.664 11.4085 232.104 13.037 232.984 14.4502C233.892 15.9008 235.015 17.0051 236.344 17.7445C237.682 18.5119 239.91 19.3823 243.035 20.3556C247.116 21.6004 250.064 22.9668 251.87 24.4735C253.611 25.9242 254.481 27.8895 254.481 30.3416C254.481 32.7936 253.574 34.9368 251.758 36.8928C249.924 38.8769 247.182 39.8596 243.532 39.8596C242.053 39.8596 240.003 39.5882 237.373 39.036C235.08 38.5587 233.368 38.306 232.226 38.2873L231.973 37.9972C232.001 37.5947 232.011 37.0706 232.011 36.4249C232.011 35.6575 231.936 34.4782 231.795 32.8779C231.674 31.2775 231.618 30.0889 231.618 29.3027C231.618 28.2733 231.664 27.3935 231.758 26.6542ZM257.018 11.6986H256.269C256.241 8.92839 255.146 6.87879 252.975 5.54047C250.85 4.23022 248.276 3.57509 245.244 3.57509C242.839 3.57509 240.855 4.08983 239.301 5.10996C237.729 6.13944 236.943 7.36545 236.943 8.79737C236.943 10.3229 237.561 11.5302 238.805 12.4099C240.097 13.3645 242.633 14.4969 246.423 15.8072C249.952 17.0239 252.423 18.0159 253.826 18.774C255.333 19.6069 256.578 20.8049 257.579 22.3491C258.581 23.9494 259.086 25.7276 259.086 27.6837C259.086 30.6691 257.991 32.9995 255.792 34.6935C256.606 33.5704 257.008 31.9981 257.008 29.9672C257.008 28.058 256.568 26.364 255.689 24.8853C254.762 23.3786 253.611 22.19 252.254 21.3102C250.869 20.4024 248.613 19.4385 245.488 18.409C240.789 16.8554 237.72 15.5358 236.288 14.4408C234.856 13.3177 234.145 11.577 234.145 9.21852C234.145 6.49507 235.24 4.36124 237.439 2.81702C239.629 1.31024 242.745 0.561523 246.779 0.561523C249.521 0.561523 252.872 1.03883 256.831 1.99344V2.24613L256.905 3.60317C256.905 4.31445 256.924 5.17547 256.98 6.17687C257.055 7.39353 257.093 8.46981 257.093 9.39634C257.093 10.014 257.065 10.7815 257.018 11.6893V11.6986Z" fill="#64A522"/>
</g>
<defs>
<clipPath id="clip0_365_37">
<rect width="258.793" height="40" fill="white" transform="translate(0.302734)"/>
</clipPath>
</defs>
</svg>
