<svg width="295" height="40" viewBox="0 0 295 40" fill="none" xmlns="http://www.w3.org/2000/svg">
<g clip-path="url(#clip0_365_44)">
<path d="M20.2162 21.3838C19.773 19.9892 19.0054 18.8865 17.9243 18.0973C16.8324 17.3081 15.6324 16.9081 14.3027 16.9081C13.0919 16.9081 12.0324 17.1459 11.1243 17.6216C10.227 18.0973 9.47027 18.7243 8.85405 19.5027C8.24865 20.2811 7.7946 21.1675 7.5027 22.1838C7.21081 23.2 7.05946 24.2594 7.05946 25.3621C7.05946 26.4648 7.2 27.5243 7.47027 28.5405C7.75135 29.5567 8.16216 30.4432 8.71351 31.2216C9.26487 32 9.97838 32.627 10.8432 33.1027C11.7081 33.5784 12.7351 33.8162 13.9135 33.8162C14.9081 33.8162 15.773 33.654 16.5081 33.3189C17.2432 32.9838 17.8811 32.5621 18.4108 32.0432C18.9405 31.5243 19.3946 30.9513 19.7622 30.3027C20.1297 29.654 20.4432 29.027 20.7027 28.4L26.4541 31.4378C25.9784 32.4648 25.4054 33.4919 24.7459 34.5081C24.0865 35.5243 23.2541 36.4324 22.2595 37.2432C21.2649 38.054 20.0757 38.7135 18.6919 39.2324C17.3081 39.7513 15.6757 40.0108 13.8054 40.0108C11.6649 40.0108 9.74054 39.6432 8.03243 38.9081C6.32432 38.1729 4.87568 37.1459 3.6973 35.8378C2.51892 34.5297 1.61081 32.9838 0.962162 31.2C0.313513 29.4162 0 27.4702 0 25.3729C0 23.2756 0.324324 21.3297 0.962162 19.5459C1.61081 17.7621 2.54054 16.2162 3.75135 14.9081C4.96216 13.6 6.45405 12.5838 8.22703 11.8378C9.98919 11.1027 12.0216 10.7351 14.3027 10.7351C16 10.7351 17.4919 10.9513 18.7784 11.3946C20.0649 11.8378 21.1784 12.4216 22.1189 13.1351C23.0595 13.8486 23.8486 14.7027 24.4973 15.6756C25.1459 16.6486 25.6865 17.654 26.1297 18.6919L20.2162 21.3946V21.3838Z" fill="#04AB5A"/>
<path d="M42.9837 10.7136C45.2324 10.7136 47.2432 11.0812 49.0378 11.8163C50.8216 12.5515 52.3243 13.5785 53.5459 14.8866C54.7567 16.1947 55.6864 17.7406 56.3351 19.5244C56.9837 21.3082 57.2972 23.2542 57.2972 25.3515C57.2972 27.4488 56.9729 29.3947 56.3351 31.1785C55.6864 32.9623 54.7567 34.5082 53.5459 35.8163C52.3351 37.1244 50.8324 38.1515 49.0378 38.8866C47.254 39.6217 45.2324 39.9893 42.9837 39.9893C40.7351 39.9893 38.6702 39.6217 36.9081 38.8866C35.1351 38.1515 33.6432 37.1244 32.4324 35.8163C31.2216 34.5082 30.281 32.9623 29.6432 31.1785C28.9945 29.3947 28.681 27.4488 28.681 25.3515C28.681 23.2542 29.0054 21.3082 29.6432 19.5244C30.2918 17.7406 31.2216 16.1947 32.4324 14.8866C33.6432 13.5785 35.1351 12.5623 36.9081 11.8163C38.6702 11.0812 40.7027 10.7136 42.9837 10.7136ZM42.9837 16.8974C41.7729 16.8974 40.7135 17.1352 39.8054 17.6109C38.9081 18.0866 38.1513 18.7136 37.5351 19.492C36.9297 20.2704 36.4756 21.1569 36.1837 22.1731C35.8918 23.1893 35.7405 24.2488 35.7405 25.3515C35.7405 26.4542 35.8918 27.5136 36.1837 28.5298C36.4756 29.5461 36.9297 30.4325 37.5351 31.2109C38.1405 31.9893 38.8972 32.6163 39.8054 33.092C40.7027 33.5677 41.7621 33.8055 42.9837 33.8055C44.2054 33.8055 45.254 33.5677 46.1621 33.092C47.0702 32.6163 47.8162 31.9893 48.4324 31.2109C49.0378 30.4434 49.4918 29.5461 49.7837 28.5298C50.0756 27.5136 50.227 26.4542 50.227 25.3515C50.227 24.2488 50.0756 23.1893 49.7837 22.1731C49.4918 21.1569 49.0378 20.2704 48.4324 19.492C47.827 18.7136 47.0702 18.0974 46.1621 17.6109C45.2648 17.1352 44.2054 16.8974 42.9837 16.8974Z" fill="#04AB5A"/>
<path d="M80.4973 36.627H80.3892C79.5459 37.6216 78.5297 38.4324 77.3513 39.0595C76.1729 39.6865 74.5729 40 72.5405 40C70.7351 40 69.0919 39.6108 67.6 38.8432C66.1081 38.0649 64.8324 37.0162 63.7621 35.6973C62.6919 34.3784 61.8702 32.8216 61.2756 31.0595C60.6811 29.2973 60.3892 27.3946 60.3892 25.373C60.3892 23.3513 60.6811 21.4486 61.2756 19.6865C61.8594 17.9135 62.6919 16.3676 63.7621 15.0486C64.8324 13.7297 66.1081 12.6703 67.6 11.9027C69.0919 11.1243 70.7351 10.7459 72.5405 10.7459C74.1946 10.7459 75.6756 11.0162 76.9838 11.5459C78.2919 12.0757 79.4594 12.8216 80.4973 13.7838V0H87.2324V39.3405H80.4973V36.6378V36.627ZM74.0865 16.9081C72.8 16.9081 71.7297 17.1568 70.8865 17.6541C70.0432 18.1514 69.3621 18.8108 68.8648 19.6108C68.3675 20.4108 68.0108 21.3297 67.7838 22.3459C67.5567 23.3622 67.4486 24.3676 67.4486 25.3622C67.4486 26.3568 67.5567 27.3622 67.7838 28.3784C68 29.3946 68.3675 30.3027 68.8648 31.1135C69.3621 31.9243 70.0324 32.573 70.8865 33.0703C71.7297 33.5676 72.8 33.8162 74.0865 33.8162C75.3729 33.8162 76.4 33.5676 77.2648 33.0703C78.1297 32.573 78.8108 31.9243 79.3081 31.1135C79.8054 30.3027 80.1621 29.3946 80.3892 28.3784C80.6054 27.3622 80.7243 26.3568 80.7243 25.3622C80.7243 24.3676 80.6162 23.3622 80.3892 22.3459C80.1729 21.3297 79.8054 20.4216 79.3081 19.6108C78.8108 18.8 78.1297 18.1514 77.2648 17.6541C76.4 17.1568 75.3405 16.9081 74.0865 16.9081Z" fill="#04AB5A"/>
<path d="M99.1676 26.9622C99.2 27.9892 99.427 28.9298 99.827 29.7838C100.227 30.6271 100.778 31.3514 101.459 31.9352C102.141 32.519 102.908 32.9838 103.751 33.319C104.595 33.6541 105.481 33.8163 106.4 33.8163C107.73 33.8163 108.854 33.6541 109.795 33.319C110.735 32.9838 111.524 32.6054 112.173 32.1622C112.822 31.719 113.319 31.2757 113.665 30.8325C114.011 30.3892 114.281 30.0541 114.465 29.8379L120.151 33.1568C119.632 33.9676 118.984 34.7784 118.195 35.5892C117.405 36.4 116.454 37.1352 115.351 37.7946C114.249 38.4541 112.951 38.9946 111.481 39.3946C110.011 39.8054 108.314 40 106.4 40C104.119 40 102.086 39.6325 100.324 38.8973C98.5513 38.1622 97.0595 37.1352 95.8486 35.8271C94.6378 34.519 93.6973 32.973 93.0595 31.1892C92.4108 29.4054 92.0973 27.4595 92.0973 25.3622C92.0973 23.2649 92.4216 21.319 93.0595 19.5352C93.7081 17.7514 94.6378 16.2054 95.8486 14.8973C97.0595 13.5892 98.5513 12.573 100.324 11.8271C102.086 11.0919 104.119 10.7244 106.4 10.7244C108.681 10.7244 110.724 11.1027 112.422 11.8595C114.119 12.6163 115.514 13.6865 116.616 15.0919C117.719 16.4973 118.53 18.1946 119.049 20.2054C119.568 22.2163 119.816 24.4649 119.816 26.973H99.1567L99.1676 26.9622ZM112.757 21.773C112.757 21.4054 112.638 20.9081 112.4 20.2811C112.162 19.6541 111.784 19.0487 111.265 18.4541C110.746 17.8703 110.097 17.3514 109.308 16.9081C108.519 16.4649 107.546 16.2487 106.411 16.2487C104.422 16.2487 102.811 16.7892 101.578 17.8811C100.346 18.973 99.5459 20.2703 99.1784 21.773H112.768H112.757Z" fill="#04AB5A"/>
<path d="M124.584 11.3837H131.319V14.1513C132.346 13.081 133.503 12.2486 134.768 11.6324C136.032 11.0162 137.578 10.7243 139.384 10.7243C140.195 10.7243 141.027 10.7999 141.87 10.9405C142.713 11.0918 143.513 11.3297 144.249 11.654C144.984 11.9891 145.643 12.4216 146.238 12.9513C146.822 13.481 147.286 14.1405 147.622 14.908C148.649 13.5459 149.881 12.508 151.297 11.7837C152.713 11.0594 154.368 10.7026 156.238 10.7026C159.297 10.7026 161.686 11.4378 163.416 12.908C165.146 14.3783 166.011 16.627 166.011 19.6432V39.308H159.276V22.3459C159.276 20.7243 158.908 19.4053 158.173 18.3999C157.438 17.3837 156.281 16.8756 154.692 16.8756C153.73 16.8756 152.886 17.0918 152.151 17.5134C151.416 17.9351 150.789 18.508 150.27 19.2216C149.751 19.9351 149.362 20.7567 149.081 21.6756C148.8 22.5945 148.67 23.5567 148.67 24.5513V39.2972H141.935V22.3351C141.935 20.7134 141.568 19.3945 140.832 18.3891C140.097 17.3729 138.897 16.8648 137.243 16.8648C136.324 16.8648 135.503 17.081 134.789 17.5026C134.076 17.9243 133.449 18.4972 132.941 19.2107C132.422 19.9243 132.032 20.7459 131.751 21.6648C131.47 22.5837 131.34 23.5459 131.34 24.5405V39.2864H124.605V11.3837H124.584Z" fill="black"/>
<path d="M196.022 34.6379C196.022 36.0758 196.151 37.1461 196.411 37.8379C196.67 38.5406 196.886 39.0379 197.07 39.3298H189.946C189.73 38.9947 189.557 38.5839 189.449 38.0866C189.341 37.5893 189.286 37.1569 189.286 36.7893C186.638 38.9298 183.6 39.9893 180.173 39.9893C178.843 39.9893 177.6 39.7839 176.443 39.3839C175.286 38.9839 174.281 38.4001 173.427 37.6434C172.584 36.8866 171.903 35.9677 171.405 34.8758C170.908 33.7947 170.659 32.5623 170.659 31.2001C170.659 29.8379 170.908 28.6488 171.405 27.6325C171.903 26.6163 172.551 25.7731 173.362 25.092C174.173 24.4109 175.081 23.8596 176.097 23.4379C177.113 23.0163 178.13 22.692 179.168 22.4758L181.989 21.9244C182.573 21.8163 183.211 21.6974 183.892 21.5677C184.573 21.4379 185.243 21.2974 185.913 21.1569C186.573 21.0055 187.189 20.865 187.762 20.7136C188.335 20.5623 188.843 20.4217 189.286 20.2704V19.4379C189.286 18.0758 188.768 17.1461 187.741 16.6488C186.713 16.1515 185.459 15.9028 183.989 15.9028C182 15.9028 180.638 16.2163 179.903 16.8434C179.168 17.4704 178.8 18.5515 178.8 20.1082L172.054 19.8271C172.054 18.1731 172.389 16.7677 173.049 15.6325C173.708 14.4866 174.595 13.5569 175.697 12.8109C176.8 12.0758 178.076 11.5352 179.513 11.2109C180.951 10.8866 182.443 10.7136 183.989 10.7136C185.535 10.7136 186.973 10.8109 188.411 11.0163C189.849 11.2217 191.135 11.6542 192.281 12.3136C193.427 12.9731 194.335 13.9028 195.016 15.1028C195.697 16.3028 196.043 17.892 196.043 19.8812V34.6379H196.022ZM189.286 25.3515C188.843 25.5785 188.357 25.7623 187.827 25.9028C187.297 26.0542 186.713 26.1947 186.086 26.3461L182.389 27.1244C181.762 27.2758 181.168 27.4271 180.595 27.5893C180.022 27.7515 179.524 27.9785 179.103 28.2488C178.681 28.519 178.346 28.8866 178.108 29.3298C177.87 29.7731 177.751 30.3244 177.751 30.9839C177.751 32.0542 178.173 32.8974 179.027 33.5244C179.87 34.1515 180.908 34.465 182.119 34.465C182.897 34.465 183.697 34.3677 184.551 34.1623C185.395 33.9569 186.173 33.6542 186.876 33.2542C187.578 32.8434 188.151 32.3136 188.616 31.6542C189.081 30.9947 189.308 30.2163 189.308 29.3298V25.3515H189.286Z" fill="black"/>
<path d="M202.313 11.3838H209.049V14.1514H209.157C210.151 12.9406 211.33 12.0649 212.692 11.5244C214.054 10.9946 215.416 10.7244 216.778 10.7244C220.13 10.7244 222.573 11.5352 224.097 13.1568C225.622 14.7784 226.389 17.1352 226.389 20.2271V39.3406H219.654V22.2703C219.654 21.6433 219.568 21.0271 219.405 20.4217C219.243 19.8163 218.984 19.2757 218.638 18.8217C218.292 18.3568 217.816 17.9892 217.232 17.6865C216.649 17.3946 215.903 17.2433 215.027 17.2433C214.216 17.2433 213.449 17.3838 212.735 17.6541C212.022 17.9352 211.384 18.3676 210.832 18.9838C210.281 19.6 209.849 20.3568 209.535 21.2757C209.222 22.1946 209.07 23.2973 209.07 24.5946V39.3406H202.335V11.3838H202.313Z" fill="black"/>
<path d="M234.086 1.49194H240.832V11.3838H246.854V16.2487H240.832V30.3892C240.832 31.4919 241.016 32.346 241.384 32.9298C241.751 33.5136 242.584 33.8163 243.87 33.8163C244.346 33.8163 244.832 33.7838 245.33 33.7082C245.827 33.6325 246.335 33.5568 246.854 33.4919V39.0163C246.043 39.2001 245.211 39.3514 244.368 39.4811C243.524 39.6109 242.562 39.6757 241.492 39.6757C238.724 39.6757 236.8 39.0919 235.719 37.9028C234.627 36.7244 234.086 35.0703 234.086 32.9298V16.2487H230V11.3838H234.086V1.49194Z" fill="black"/>
<path d="M250.432 11.3838H257.168V15.2541H257.276C258.086 13.6325 259.232 12.4757 260.703 11.773C262.173 11.0703 263.903 10.7244 265.892 10.7244V17.5784C264.746 17.5784 263.654 17.7298 262.605 18.0217C261.557 18.3136 260.627 18.7892 259.816 19.4271C259.005 20.0757 258.357 20.919 257.881 21.9676C257.405 23.0163 257.157 24.3027 257.157 25.8054V39.3406H250.422V11.3838H250.432Z" fill="black"/>
<path d="M293.254 34.6379C293.254 36.0758 293.384 37.1461 293.643 37.8379C293.903 38.5406 294.119 39.0379 294.303 39.3298H287.178C286.962 38.9947 286.789 38.5839 286.681 38.0866C286.573 37.5893 286.519 37.1569 286.519 36.7893C283.87 38.9298 280.832 39.9893 277.405 39.9893C276.076 39.9893 274.832 39.7839 273.676 39.3839C272.519 38.9839 271.513 38.4001 270.659 37.6434C269.816 36.8866 269.135 35.9677 268.638 34.8758C268.14 33.7947 267.892 32.5623 267.892 31.2001C267.892 29.8379 268.14 28.6488 268.638 27.6325C269.135 26.6163 269.784 25.7731 270.595 25.092C271.405 24.4109 272.313 23.8596 273.33 23.4379C274.346 23.0163 275.362 22.692 276.4 22.4758L279.222 21.9244C279.805 21.8163 280.443 21.6974 281.124 21.5677C281.805 21.4379 282.476 21.2974 283.146 21.1569C283.805 21.0055 284.422 20.865 284.995 20.7136C285.568 20.5623 286.076 20.4217 286.519 20.2704V19.4379C286.519 18.0758 286 17.1461 284.973 16.6488C283.946 16.1515 282.692 15.9028 281.222 15.9028C279.232 15.9028 277.87 16.2163 277.135 16.8434C276.4 17.4704 276.032 18.5515 276.032 20.1082L269.286 19.8271C269.286 18.1731 269.622 16.7677 270.281 15.6325C270.94 14.4866 271.827 13.5569 272.93 12.8109C274.032 12.0758 275.308 11.5352 276.746 11.2109C278.184 10.8866 279.676 10.7136 281.222 10.7136C282.768 10.7136 284.205 10.8109 285.643 11.0163C287.081 11.2217 288.368 11.6542 289.513 12.3136C290.659 12.9731 291.568 13.9028 292.249 15.1028C292.93 16.3028 293.276 17.892 293.276 19.8812V34.6379H293.254ZM286.519 25.3515C286.076 25.5785 285.589 25.7623 285.059 25.9028C284.53 26.0542 283.946 26.1947 283.319 26.3461L279.622 27.1244C278.995 27.2758 278.4 27.4271 277.827 27.5893C277.254 27.7515 276.757 27.9785 276.335 28.2488C275.913 28.519 275.578 28.8866 275.34 29.3298C275.103 29.7731 274.984 30.3244 274.984 30.9839C274.984 32.0542 275.405 32.8974 276.259 33.5244C277.103 34.1515 278.14 34.465 279.351 34.465C280.13 34.465 280.93 34.3677 281.784 34.1623C282.627 33.9569 283.405 33.6542 284.108 33.2542C284.811 32.8434 285.384 32.3136 285.849 31.6542C286.313 30.9947 286.54 30.2163 286.54 29.3298V25.3515H286.519Z" fill="black"/>
</g>
<defs>
<clipPath id="clip0_365_44">
<rect width="294.303" height="40" fill="white"/>
</clipPath>
</defs>
</svg>
