<svg width="154" height="60" viewBox="0 0 154 60" fill="none" xmlns="http://www.w3.org/2000/svg">
<g clip-path="url(#clip0_365_55)">
<path d="M0.388672 60L7.5056 0H22.2748L33.001 35.9632H33.3518L43.8471 0H58.1733L65.5579 60H53.6964L48.6471 17.7781H48.2964L35.9456 60H30.2779L17.5764 17.41H17.2256L12.481 60H0.388672Z" fill="#D9050E"/>
<path d="M74.0871 0H93.8225C96.4256 0 98.8163 0.406911 100.986 1.23042C103.155 2.05393 105.019 3.21653 106.589 4.72792C108.158 6.2393 109.367 8.0704 110.235 10.2309C111.102 12.3914 111.527 14.8135 111.527 17.4972C111.527 18.747 111.398 20.0646 111.13 21.45C110.862 22.8355 110.475 24.1821 109.967 25.4707C109.45 26.7689 108.813 27.98 108.056 29.1232C107.29 30.2664 106.413 31.2353 105.416 32.0297C104.096 33.0664 102.666 33.8996 101.133 34.539C99.5917 35.1784 98.004 35.6628 96.361 35.9826C94.7179 36.3023 93.0563 36.5154 91.3763 36.622C89.6871 36.7286 88.044 36.7867 86.4286 36.7867V60H74.0779V0H74.0871ZM90.0379 26.1392C91.2102 26.1392 92.3179 25.9648 93.3517 25.616C94.3948 25.2672 95.3087 24.7634 96.1025 24.1046C96.8963 23.4458 97.5148 22.632 97.9671 21.6632C98.4194 20.6846 98.6502 19.5608 98.6502 18.2819C98.6502 16.7899 98.3825 15.5595 97.8379 14.581C97.2933 13.6025 96.5825 12.8177 95.6871 12.2267C94.7917 11.6357 93.7671 11.2094 92.6133 10.9672C91.4594 10.725 90.2594 10.5991 89.0317 10.5991H87.841C87.5825 10.6281 87.3148 10.6572 87.0471 10.6669C86.7886 10.6863 86.521 10.7153 86.2533 10.7831V26.1392H90.0287H90.0379Z" fill="#D9050E"/>
<path d="M115.57 51.5323L123.749 42.0183C124.423 42.7159 125.152 43.4038 125.927 44.0819C126.703 44.7504 127.515 45.3608 128.364 45.9034C129.213 46.4459 130.118 46.8722 131.069 47.2016C132.02 47.5213 133.007 47.686 134.032 47.686C134.973 47.686 135.823 47.531 136.607 47.221C137.383 46.9109 138.047 46.4943 138.61 45.9518C139.164 45.4092 139.607 44.7601 139.93 44.0044C140.253 43.2487 140.41 42.4155 140.41 41.5048C140.41 40.6523 140.263 39.9159 139.967 39.2862C139.672 38.6565 139.284 38.0945 138.804 37.6004C138.324 37.1063 137.752 36.6607 137.115 36.2828C136.469 35.905 135.813 35.5659 135.14 35.2752C133.912 34.723 132.49 34.1611 130.875 33.6088C128.881 32.9113 127.072 32.0684 125.447 31.0899C123.823 30.1113 122.438 28.9487 121.293 27.602C120.149 26.2554 119.272 24.7246 118.653 23.0194C118.035 21.3046 117.73 19.3863 117.73 17.2549C117.73 14.5615 118.201 12.1491 119.133 10.0177C120.075 7.88623 121.349 6.07451 122.983 4.60188C124.607 3.12925 126.518 1.99571 128.715 1.20127C130.912 0.406821 133.284 0.0192871 135.832 0.0192871C138.933 0.0192871 141.804 0.53277 144.426 1.55005C147.047 2.56733 149.549 4.06902 151.921 6.02607L144.186 14.4937C142.893 13.5539 141.518 12.7207 140.05 11.9941C138.583 11.2675 137.032 10.8993 135.389 10.8993C133.746 10.8993 132.5 11.3934 131.632 12.3719C130.764 13.3505 130.34 14.6293 130.34 16.2085C130.34 17.1774 130.598 18.0396 131.133 18.8147C131.66 19.5898 132.315 20.2776 133.09 20.8783C133.866 21.479 134.696 21.9925 135.592 22.4381C136.487 22.8741 137.309 23.2423 138.075 23.5329C140.327 24.4146 142.404 25.364 144.296 26.4104C146.189 27.4567 147.813 28.6581 149.18 30.0532C150.536 31.4386 151.598 33.076 152.346 34.9458C153.093 36.8157 153.463 39.044 153.463 41.6114C153.463 44.4501 152.909 47.0078 151.81 49.2846C150.712 51.5614 149.244 53.499 147.398 55.0976C145.552 56.6962 143.41 57.9169 140.983 58.7598C138.555 59.6027 135.998 60.029 133.34 60.029C131.521 60.029 129.813 59.8061 128.216 59.3702C126.62 58.9342 125.096 58.3238 123.647 57.5488C122.198 56.7737 120.813 55.8727 119.493 54.8554C118.173 53.8284 116.872 52.7336 115.58 51.5614L115.57 51.5323Z" fill="#D9050E"/>
</g>
<defs>
<clipPath id="clip0_365_55">
<rect width="153.065" height="60" fill="white" transform="translate(0.388672)"/>
</clipPath>
</defs>
</svg>
