<svg width="90" height="80" viewBox="0 0 90 80" fill="none" xmlns="http://www.w3.org/2000/svg">
<g clip-path="url(#clip0_380_214)">
<path d="M56.2055 41.0074L57.5511 42.4039L54.7654 41.7784H54.7581L52.0306 41.1601C53.078 40.7965 54.0817 40.3382 55.0418 39.8146C61.6169 36.2215 66.0828 29.2318 66.0828 21.202C66.0828 14.5686 63.0352 8.64809 58.2639 4.7641L58.3075 33.1594L46.9756 2.93848H58.5621C58.8603 3.17122 59.1585 3.40397 59.4494 3.63672C64.4899 7.83347 67.6975 14.1395 67.6975 21.202C67.6975 29.6827 63.0716 37.0798 56.2055 41.0074Z" fill="#0094DC"/>
<path d="M42.7863 39.4654H31.1998C30.8943 39.2327 30.6034 38.9999 30.3125 38.7599C25.272 34.5777 22.0645 28.2644 22.0645 21.2019C22.0645 12.7212 26.6903 5.32412 33.5564 1.38922L32.2036 0L34.9965 0.625511L37.7313 1.24375C36.6912 1.60742 35.6802 2.05837 34.7201 2.58933C28.1377 6.18238 23.6719 13.1721 23.6719 21.2019C23.6719 27.8353 26.7194 33.7558 31.4908 37.6398L31.4471 9.25175L42.7863 39.4654Z" fill="#F21829"/>
<path d="M67.2249 25.835C66.6357 26.075 66.0248 26.3077 65.3993 26.5405C63.2318 27.3478 60.8534 28.1261 58.3004 28.868C57.8276 29.0062 57.3476 29.1444 56.853 29.2825C53.4782 30.2208 49.8342 31.0791 46.0084 31.8282C44.0664 32.2064 42.1608 32.541 40.2988 32.832C37.2149 33.3047 34.2546 33.6611 31.4834 33.9012C30.3124 34.003 29.1778 34.083 28.0795 34.1339C27.4176 34.1703 26.7776 34.1994 26.1448 34.2212C17.2858 34.4903 11.2343 33.2829 10.7325 30.6863C10.2597 28.257 14.7183 25.144 22.0862 22.2346C22.1008 22.5183 22.1153 22.7947 22.1371 23.0783C16.1802 25.5804 12.6526 28.1843 13.0527 30.2354C13.4818 32.4319 18.3477 33.5229 25.6284 33.4429C26.2466 33.4429 26.8794 33.4211 27.534 33.3993C28.7923 33.3556 30.1088 33.2756 31.4834 33.1665C34.16 32.9556 37.033 32.621 40.0442 32.1701C41.9353 31.8791 43.8846 31.5373 45.8702 31.1518C49.6742 30.4099 53.2891 29.5517 56.6057 28.6134C57.1803 28.4534 57.7404 28.2861 58.3004 28.1188C60.977 27.326 63.4354 26.475 65.6174 25.6095H65.6247C66.243 25.3695 66.8321 25.1222 67.3994 24.8821C73.029 22.4528 76.3312 19.9435 75.9457 17.9652C75.5893 16.1323 72.149 15.0703 66.7957 14.8158C66.7085 14.5248 66.6212 14.2412 66.5194 13.9575C73.3491 14.0884 77.8367 15.2958 78.2659 17.5142C78.7314 19.8999 74.4037 22.962 67.2249 25.835Z" fill="#070707"/>
<path d="M12.0997 55.8305V47.9316C12.0997 47.2624 11.9833 46.826 11.7433 46.6296C11.5033 46.4333 10.9505 46.3096 10.0704 46.2587V45.2477H15.4164V46.2587C14.529 46.3096 13.969 46.4333 13.7362 46.6296C13.4962 46.826 13.3798 47.2624 13.3798 47.9243V59.969H11.976L3.48073 47.4079V57.0524C3.48073 57.7216 3.5971 58.1507 3.83712 58.3471C4.07715 58.5435 4.6372 58.6671 5.53182 58.718V59.729H0.164062V58.718C1.05142 58.6671 1.61147 58.5435 1.84422 58.3471C2.07696 58.1507 2.19334 57.7216 2.19334 57.0451V47.917C2.19334 47.2479 2.07696 46.8115 1.84422 46.6151C1.61147 46.4187 1.05142 46.2951 0.164062 46.2442V45.2332H4.92813L12.0997 55.8087V55.8305Z" fill="#070707"/>
<path d="M16.6021 59.7435V58.7325C17.4239 58.6816 17.9404 58.558 18.1658 58.3616C18.384 58.1652 18.5004 57.7361 18.5004 57.0669V47.9388C18.5004 47.2697 18.3913 46.8405 18.1658 46.6441C17.9476 46.4478 17.4239 46.3241 16.6021 46.2732V45.2622H29.0759L29.3523 50.1354H28.2613C28.0504 48.8625 27.5703 47.9024 26.8139 47.2478C26.0575 46.6005 25.0392 46.2732 23.7663 46.2732H22.799C22.0716 46.2732 21.577 46.375 21.3152 46.586C21.0534 46.7969 20.9152 47.2478 20.9152 47.9388V51.5755H21.417C22.2462 51.5755 22.8717 51.3428 23.3008 50.8845C23.73 50.419 23.9845 49.699 24.0573 48.7171H25.0392V55.5177H24.0573C23.9845 54.5358 23.73 53.8084 23.3008 53.3429C22.8717 52.8702 22.2462 52.6374 21.417 52.6374H20.9152V57.0742C20.9152 57.7652 21.0461 58.2161 21.3152 58.427C21.577 58.638 22.0789 58.7398 22.799 58.7398H23.89C25.2501 58.7398 26.312 58.3761 27.083 57.6561C27.854 56.9287 28.3122 55.8668 28.4577 54.463H29.5487L29.2577 59.7508H16.6021V59.7435Z" fill="#070707"/>
<path d="M36.6619 45.2551C38.7857 45.2551 40.3713 45.5606 41.4332 46.1643C42.4951 46.768 43.0188 47.6772 43.0188 48.8918C43.0188 49.7501 42.6988 50.4556 42.0587 51.0084C41.4187 51.5612 40.4586 51.9612 39.1785 52.2085C40.6986 52.3612 41.8551 52.7613 42.6406 53.3941C43.4261 54.0268 43.8262 54.8778 43.8262 55.9397C43.8262 57.1835 43.2661 58.1218 42.1387 58.7691C41.0114 59.4091 39.3603 59.7364 37.1856 59.7364H30.6904V58.7254C31.5487 58.6745 32.0942 58.5509 32.3269 58.3545C32.5597 58.1581 32.6761 57.729 32.6761 57.0598V47.9317C32.6761 47.2626 32.5597 46.8335 32.3269 46.6371C32.0942 46.4407 31.5487 46.317 30.6904 46.2661V45.2551H36.6619ZM35.2145 47.9317V51.7357H36.4364C37.8038 51.7357 38.8075 51.5175 39.4549 51.0884C40.1022 50.652 40.4222 49.9756 40.4222 49.0518C40.4222 48.1281 40.1458 47.4444 39.5931 46.9426C39.0403 46.4407 38.2693 46.1934 37.2656 46.1934C36.48 46.1934 35.9418 46.3098 35.6509 46.5425C35.3599 46.7753 35.2145 47.2408 35.2145 47.939V47.9317ZM35.2145 52.7467V57.0671C35.2145 57.7654 35.3527 58.2163 35.6363 58.4272C35.92 58.6309 36.4946 58.74 37.3674 58.74C38.5602 58.74 39.484 58.4927 40.1313 57.9908C40.7786 57.4962 41.1059 56.7907 41.1059 55.8743C41.1059 54.8196 40.735 54.0341 39.9931 53.525C39.2512 53.0086 38.1311 52.754 36.6255 52.754H35.2145V52.7467Z" fill="#070707"/>
<path d="M49.6233 54.2814C49.6233 55.8888 49.9142 57.0526 50.5033 57.7799C51.0925 58.5072 52.0308 58.8709 53.3181 58.8709C54.6055 58.8709 55.5365 58.5072 56.1257 57.7799C56.7148 57.0526 57.0058 55.8888 57.0058 54.2814V47.939C57.0058 47.2699 56.8894 46.8335 56.6494 46.6371C56.4093 46.4407 55.842 46.317 54.9401 46.2661V45.2551H60.3951V46.2661C59.4932 46.317 58.9187 46.4407 58.6786 46.6371C58.4386 46.8335 58.315 47.2699 58.315 47.9317V54.2741C58.315 56.3107 57.864 57.7872 56.9694 58.7036C56.0675 59.6201 54.6274 60.0783 52.649 60.0783C50.6706 60.0783 49.2523 59.6128 48.3431 58.6891C47.434 57.7581 46.983 56.2889 46.983 54.2814V47.939C46.983 47.2699 46.8594 46.8407 46.6194 46.6443C46.3793 46.448 45.8047 46.3243 44.9028 46.2734V45.2624H51.718V46.2734C50.8234 46.3243 50.256 46.448 50.0088 46.6443C49.7615 46.8407 49.6451 47.2699 49.6451 47.9463V54.2887L49.6233 54.2814Z" fill="#070707"/>
<path d="M61.1879 59.7437V58.7327C62.0317 58.6818 62.5626 58.5581 62.7881 58.3617C63.0136 58.1653 63.1299 57.7362 63.1299 57.0671V47.939C63.1299 47.2698 63.0136 46.8407 62.7881 46.6443C62.5626 46.4479 62.0317 46.3243 61.1879 46.2734V45.2842H67.8795V46.2734H67.5376C66.7957 46.2734 66.2866 46.3752 66.0175 46.5861C65.7484 46.797 65.6102 47.248 65.6102 47.939V57.0671C65.6102 57.758 65.7484 58.209 66.0175 58.4199C66.2866 58.6308 66.7957 58.7327 67.5376 58.7327H68.1486C69.4287 58.7327 70.4615 58.3254 71.2398 57.518C72.018 56.7107 72.4762 55.576 72.5999 54.1141H73.7127L73.3927 59.7437H61.1807H61.1879Z" fill="#070707"/>
<path d="M74.2944 59.7437V58.7327C74.7308 58.6454 75.0872 58.4563 75.3636 58.1799C75.6327 57.9036 75.9019 57.4308 76.1564 56.7616L80.6296 45.0806H81.8588L86.2155 56.9944C86.4264 57.5981 86.6665 58.0199 86.9356 58.2527C87.2047 58.4927 87.5829 58.6527 88.0775 58.7254V59.7364H82.2588V58.7254C82.8843 58.6891 83.3207 58.6018 83.5607 58.4709C83.8008 58.34 83.9244 58.129 83.9244 57.8381C83.9244 57.7508 83.9099 57.6563 83.888 57.5399C83.8589 57.4235 83.8226 57.2999 83.7717 57.1471L83.0516 55.0815H78.0257L77.4729 56.6743C77.3565 56.9944 77.2838 57.2199 77.2474 57.3653C77.2111 57.5108 77.1965 57.6344 77.1965 57.7435C77.1965 58.0054 77.3056 58.2018 77.5165 58.34C77.7275 58.4781 78.1493 58.6091 78.7676 58.7254V59.7364H74.2944V59.7437ZM78.4112 54.0777H82.717L80.5714 48.0845L78.4112 54.0777Z" fill="#070707"/>
<path d="M12.6379 74.3705C11.9832 74.5814 11.4305 74.6905 10.9795 74.6905C10.4486 74.6905 10.034 74.5378 9.74304 74.2396C9.45211 73.9414 9.30664 73.5122 9.30664 72.9595C9.30664 72.203 9.54666 71.5266 10.034 70.9302C10.3322 70.5665 10.6449 70.312 10.9941 70.1519C11.3359 69.9992 11.765 69.9192 12.2669 69.9192C12.6306 69.9192 13.0306 69.9701 13.4597 70.0719L13.2852 70.9375H12.9433L13.0015 70.472C12.6451 70.312 12.3324 70.2247 12.0705 70.2247C11.5323 70.2247 11.0523 70.5011 10.6231 71.0611C10.194 71.6212 9.98307 72.2539 9.98307 72.9595C9.98307 73.4104 10.0922 73.745 10.3104 73.9705C10.5286 74.1959 10.8631 74.305 11.2995 74.305C11.5178 74.305 11.765 74.2687 12.0269 74.1814L12.2815 72.9086H11.7505L11.8087 72.6103H13.2852L13.227 72.9086H12.9215L12.6306 74.3705H12.6379Z" fill="#070707"/>
<path d="M15.1617 72.4793L14.8053 74.2758H15.2635L15.2053 74.574H13.6343L13.6925 74.2758H14.158L14.9435 70.3336H14.4925L14.5507 70.0354H16.3327C16.6964 70.0354 16.9873 70.1154 17.191 70.2681C17.4019 70.4282 17.5037 70.6391 17.5037 70.9155C17.5037 71.221 17.3873 71.5046 17.1546 71.7665C16.9218 72.0283 16.6091 72.2247 16.2163 72.3556L17.1473 74.2758H17.4237L17.4019 74.574H16.6164L15.5981 72.472H15.1617V72.4793ZM15.2199 72.1738H15.4163C15.8308 72.1738 16.1654 72.0574 16.4273 71.8319C16.6891 71.5992 16.82 71.3082 16.82 70.9518C16.82 70.7482 16.7473 70.5954 16.5945 70.4936C16.4418 70.3918 16.2163 70.3409 15.9108 70.3409H15.5908L15.2199 72.181V72.1738Z" fill="#070707"/>
<path d="M19.904 74.6905C19.4022 74.6905 19.0021 74.5378 18.7039 74.2323C18.4057 73.9268 18.2603 73.5122 18.2603 72.9886C18.2603 72.1521 18.5294 71.4321 19.0676 70.8284C19.6058 70.2247 20.2532 69.9192 20.995 69.9192C21.5115 69.9192 21.9115 70.0719 22.2097 70.3774C22.5079 70.6829 22.6534 71.0975 22.6534 71.6212C22.6534 72.4576 22.3843 73.1849 21.8388 73.7886C21.2933 74.3923 20.6459 74.6978 19.8968 74.6978L19.904 74.6905ZM20.0204 74.385C20.5223 74.385 20.9732 74.1014 21.3733 73.5268C21.7733 72.9522 21.977 72.3049 21.977 71.5848C21.977 71.1775 21.8751 70.8502 21.6715 70.6029C21.4678 70.3556 21.206 70.2247 20.8787 70.2247C20.3914 70.2247 19.9404 70.5156 19.5404 71.0902C19.1403 71.6721 18.944 72.3121 18.944 73.0249C18.944 73.425 19.0458 73.7523 19.2422 74.0068C19.4458 74.2614 19.7004 74.385 20.0131 74.385H20.0204Z" fill="#070707"/>
<path d="M23.9844 70.3336H23.5334L23.5916 70.0354H25.1408L25.0826 70.3336H24.6317L24.0789 73.112C24.0498 73.2357 24.0426 73.3666 24.0426 73.4903C24.0426 73.7594 24.1226 73.9776 24.2898 74.1449C24.4571 74.3122 24.6753 74.3922 24.9517 74.3922C25.6136 74.3922 26.0282 73.9921 26.1882 73.1848L26.7555 70.3409H26.3046L26.3628 70.0427H27.7229L27.6647 70.3409H27.2138L26.6973 72.9302C26.5737 73.5484 26.3628 73.9921 26.0718 74.2758C25.7736 74.5594 25.3663 74.6976 24.8426 74.6976C24.399 74.6976 24.0498 74.5885 23.8025 74.3849C23.548 74.174 23.4243 73.883 23.4243 73.5121C23.4243 73.323 23.4461 73.1193 23.4898 72.9011L23.9989 70.3409L23.9844 70.3336Z" fill="#070707"/>
<path d="M28.7558 72.6756L28.4358 74.2758H28.894L28.8358 74.574H27.2793L27.3375 74.2758H27.7884L28.574 70.3336H28.1157L28.1739 70.0354H29.9123C30.3268 70.0354 30.6323 70.1081 30.8433 70.2609C31.0469 70.4136 31.1487 70.6318 31.1487 70.9373C31.1487 71.4392 30.9524 71.861 30.5669 72.1883C30.1814 72.5156 29.6868 72.6829 29.0904 72.6829H28.7485L28.7558 72.6756ZM28.814 72.3774H29.054C29.4395 72.3774 29.7668 72.2392 30.0505 71.9556C30.3341 71.6719 30.4723 71.3373 30.4723 70.9518C30.4723 70.7482 30.3996 70.5954 30.2614 70.4936C30.1232 70.3918 29.905 70.3409 29.6213 70.3409H29.2213L28.814 72.3847V72.3774Z" fill="#070707"/>
<path d="M34.9744 74.6905C34.4725 74.6905 34.0725 74.5378 33.7742 74.2323C33.476 73.9268 33.3306 73.5122 33.3306 72.9886C33.3306 72.1521 33.5997 71.4321 34.1379 70.8284C34.6761 70.2247 35.3235 69.9192 36.0654 69.9192C36.5818 69.9192 36.9818 70.0719 37.28 70.3774C37.5782 70.6829 37.7237 71.0975 37.7237 71.6212C37.7237 72.4576 37.4546 73.1849 36.9091 73.7886C36.3636 74.3923 35.7162 74.6978 34.9671 74.6978L34.9744 74.6905ZM35.0907 74.385C35.5926 74.385 36.0435 74.1014 36.4436 73.5268C36.8436 72.9522 37.0473 72.3049 37.0473 71.5848C37.0473 71.1775 36.9454 70.8502 36.7418 70.6029C36.5381 70.3556 36.2763 70.2247 35.949 70.2247C35.4617 70.2247 35.0107 70.5156 34.6107 71.0902C34.2106 71.6721 34.0143 72.3121 34.0143 73.0249C34.0143 73.425 34.1161 73.7523 34.3125 74.0068C34.5161 74.2614 34.7707 74.385 35.0835 74.385H35.0907Z" fill="#070707"/>
<path d="M39.3966 74.574H37.8037L37.8619 74.2758H38.3492L39.1347 70.3336H38.6474L38.7056 70.0354H41.6368L41.484 70.7918H41.1422L41.2295 70.3409H39.7821L39.4257 72.1229H40.4221L40.4949 71.7446H40.8003L40.5894 72.8066H40.2839L40.3567 72.4283H39.3602L38.9893 74.2831H39.4475L39.3893 74.5813L39.3966 74.574Z" fill="#070707"/>
<path d="M47.0337 74.2978C46.4155 74.5596 45.8336 74.6905 45.2881 74.6905C44.7935 74.6905 44.4008 74.5378 44.1171 74.225C43.8335 73.9123 43.688 73.4904 43.688 72.9595C43.688 72.203 43.928 71.5266 44.4153 70.9375C44.9681 70.261 45.7027 69.9192 46.6046 69.9192C46.9756 69.9192 47.3829 69.9701 47.8338 70.0719L47.6593 70.9375H47.3174L47.3756 70.4647C47.0192 70.3047 46.7137 70.2174 46.4519 70.2174C45.9209 70.2174 45.4409 70.5011 45.0117 71.0611C44.5826 71.6212 44.3717 72.254 44.3717 72.9522C44.3717 73.3741 44.4881 73.7014 44.7135 73.9414C44.9463 74.1814 45.259 74.305 45.6591 74.305C46.0882 74.305 46.5682 74.1887 47.0992 73.9486L47.0265 74.2905L47.0337 74.2978Z" fill="#070707"/>
<path d="M49.8196 74.6905C49.3177 74.6905 48.9177 74.5378 48.6195 74.2323C48.3212 73.9268 48.1758 73.5122 48.1758 72.9886C48.1758 72.1521 48.4449 71.4321 48.9831 70.8284C49.5214 70.2247 50.1687 69.9192 50.9106 69.9192C51.427 69.9192 51.827 70.0719 52.1252 70.3774C52.4234 70.6829 52.5689 71.0975 52.5689 71.6212C52.5689 72.4576 52.2998 73.1849 51.7543 73.7886C51.2088 74.3923 50.5615 74.6978 49.8123 74.6978L49.8196 74.6905ZM49.9359 74.385C50.4378 74.385 50.8888 74.1014 51.2888 73.5268C51.6888 72.9522 51.8925 72.3049 51.8925 71.5848C51.8925 71.1775 51.7907 70.8502 51.587 70.6029C51.3833 70.3556 51.1215 70.2247 50.7942 70.2247C50.3069 70.2247 49.8559 70.5156 49.4559 71.0902C49.0559 71.6721 48.8595 72.3121 48.8595 73.0249C48.8595 73.425 48.9613 73.7523 49.1577 74.0068C49.3613 74.2614 49.6159 74.385 49.9287 74.385H49.9359Z" fill="#070707"/>
<path d="M57.3257 70.0283H58.4458L58.3876 70.3265H57.9294L57.1439 74.2687H57.6094L57.5512 74.5669H56.031L56.0892 74.2687H56.5402L57.2166 70.8502L55.2237 74.0651H54.9982L54.3073 70.8502L53.5799 74.2687H54.0745L54.0163 74.5669H52.6489L52.7071 74.2687H53.1581L53.9436 70.3265H53.4781L53.5363 70.0283H54.7218L55.391 73.1413L57.3184 70.0283H57.3257Z" fill="#070707"/>
<path d="M59.5512 72.6756L59.2312 74.2758H59.6894L59.6312 74.574H58.0747L58.1329 74.2758H58.5838L59.3694 70.3336H58.9111L58.9693 70.0354H60.7077C61.1223 70.0354 61.4277 70.1081 61.6387 70.2609C61.8423 70.4136 61.9441 70.6318 61.9441 70.9373C61.9441 71.4392 61.7478 71.861 61.3623 72.1883C60.9768 72.5156 60.4822 72.6829 59.8858 72.6829H59.5439L59.5512 72.6756ZM59.6094 72.3774H59.8494C60.2349 72.3774 60.5622 72.2392 60.8459 71.9556C61.1295 71.6719 61.2677 71.3373 61.2677 70.9518C61.2677 70.7482 61.195 70.5954 61.0568 70.4936C60.9186 70.3918 60.7004 70.3409 60.4167 70.3409H60.0167L59.6094 72.3847V72.3774Z" fill="#070707"/>
<path d="M62.8316 73.214L62.2206 74.276H62.6788L62.6206 74.5742H61.5078L61.566 74.276H61.8351L64.3226 69.9556H64.7008L65.45 74.276H65.7191L65.6609 74.5742H64.279L64.3372 74.276H64.7954L64.6136 73.214H62.8534H62.8316ZM63.0061 72.9158H64.5408L64.1844 70.8647L63.0061 72.9158Z" fill="#070707"/>
<path d="M67.6027 70.9155L66.9335 74.2758H67.399L67.3408 74.574H66.0171L66.0753 74.2758H66.519L67.3045 70.3336H66.8535L66.9117 70.0354H67.8136L69.5811 73.6939L70.2502 70.3336H69.7992L69.8574 70.0354H71.1885L71.1303 70.3336H70.6648L69.8065 74.6395H69.3847L67.5881 70.9155H67.6027Z" fill="#070707"/>
<path d="M72.7231 70.3336L71.9376 74.2758H72.3595L72.3013 74.574H70.7666L70.8248 74.2758H71.2903L72.0758 70.3336H71.5885L71.6467 70.0354H73.2468L73.1814 70.3336H72.7231Z" fill="#070707"/>
<path d="M75.9456 74.574H72.8398L72.898 74.2758H73.3781L74.1636 70.3336H73.6763L73.7345 70.0354H76.7238L76.5711 70.7918H76.2292L76.3165 70.3409H74.8037L74.4545 72.0865H75.5165L75.5892 71.7083H75.8947L75.6837 72.7702H75.3783L75.451 72.392H74.3891L74.0181 74.254H75.6692L75.771 73.7594H76.1056L75.9383 74.5885L75.9456 74.574Z" fill="#070707"/>
<path d="M76.6147 74.465L76.7748 73.6504H77.1166L77.0657 74.1013C77.3639 74.2904 77.6476 74.385 77.9385 74.385C78.2294 74.385 78.4549 74.2977 78.6513 74.1159C78.8477 73.934 78.9422 73.7158 78.9422 73.4613C78.9422 73.1703 78.7604 72.8794 78.3895 72.5812L78.0985 72.3484C77.6185 71.963 77.3785 71.5847 77.3785 71.2138C77.3785 70.8429 77.5312 70.5301 77.8294 70.2828C78.1276 70.0355 78.5058 69.9119 78.9568 69.9119C79.2914 69.9119 79.6914 69.9846 80.1642 70.1373L80.0114 70.9156H79.6696L79.7205 70.4792C79.4514 70.3046 79.1822 70.2101 78.9131 70.2101C78.644 70.2101 78.4404 70.2828 78.2658 70.4355C78.0912 70.5883 78.004 70.7774 78.004 70.9956C78.004 71.2938 78.2003 71.6066 78.6004 71.9266L78.9059 72.1739C79.3714 72.5521 79.6041 72.9303 79.6041 73.3231C79.6041 73.7158 79.4441 74.0577 79.1168 74.305C78.7895 74.5523 78.3676 74.6759 77.844 74.6759C77.5094 74.6759 77.1021 74.6032 76.6147 74.4505V74.465Z" fill="#070707"/>
<path d="M1.89502 64.4131V67.7588L89.2702 64.4131H1.89502Z" fill="#0094DC"/>
<path d="M89.2702 80.0001V76.6543L1.89502 80.0001H89.2702Z" fill="#F21829"/>
</g>
<defs>
<clipPath id="clip0_380_214">
<rect width="89.1063" height="80" fill="white" transform="translate(0.164062)"/>
</clipPath>
</defs>
</svg>
