<svg width="135" height="80" viewBox="0 0 135 80" fill="none" xmlns="http://www.w3.org/2000/svg">
<g clip-path="url(#clip0_365_59)">
<path d="M60.2613 35.4426C58.0217 38.9242 55.4985 42.1908 52.721 45.2323C48.5254 49.8191 43.7528 53.8582 38.5009 57.2421L35.2246 51.5599L35.2051 51.5208C42.9215 46.4841 49.5327 39.8729 54.5498 32.137L60.2613 35.4328V35.4426Z" fill="#009FDD"/>
<path d="M68.4276 17.9853C67.1464 22.0733 65.5132 26.0147 63.567 29.7506L57.8555 26.4548C61.9728 18.4548 64.5156 9.49633 65.0339 0H65.2296C65.5425 6.22983 66.6379 12.2543 68.4374 17.9853H68.4276Z" fill="url(#paint0_linear_365_59)"/>
<path d="M78.9997 26.445L73.2882 29.7408C71.342 25.9951 69.7087 22.0636 68.4275 17.9756C66.6378 12.2543 65.5327 6.22984 65.2197 -0.00976562H71.8212C72.3395 9.47679 74.8725 18.4352 78.9997 26.4352V26.445Z" fill="#FF1C1F"/>
<path d="M101.65 51.5306L101.63 51.5697C96.1634 48.7433 90.3052 46.6015 84.1439 45.2323C81.3566 42.2005 78.8334 38.9242 76.5938 35.4426L82.315 32.1467C87.3321 39.8827 93.9336 46.4939 101.65 51.5306Z" fill="url(#paint1_linear_365_59)"/>
<path d="M101.631 51.5698L98.3544 57.2519L98.3349 57.291C90.286 53.1737 81.2689 50.67 71.7236 50.2006V43.6089C75.9681 43.7947 80.1148 44.3522 84.1344 45.2421C90.2958 46.6015 96.1637 48.7531 101.621 51.5795L101.631 51.5698Z" fill="#00B22F"/>
<path d="M65.1318 43.5991V50.1908C55.5866 50.6602 46.5792 53.1639 38.5205 57.2813L38.501 57.2421C43.743 53.8583 48.5254 49.8192 52.721 45.2324C56.7406 44.3424 60.8971 43.7849 65.1318 43.5991Z" fill="url(#paint2_linear_365_59)"/>
<path d="M0.779785 79.8827V64.6357H9.39592C9.6502 64.6357 9.9436 64.6846 10.2663 64.7922C10.726 64.9389 11.0976 65.1443 11.3715 65.4279C11.6551 65.7018 11.8702 66.0538 12.0267 66.4548C12.1539 66.7971 12.2223 67.1101 12.2223 67.4035V71.1883C12.2223 71.4719 12.1539 71.7947 12.0267 72.137C11.8702 72.5379 11.6649 72.8802 11.391 73.1541C11.1759 73.3692 10.8923 73.5551 10.5597 73.692C10.1392 73.868 9.73822 73.9658 9.39592 73.9658H1.90448V79.8827H0.779785ZM9.17098 72.8216C9.4546 72.8216 9.68932 72.7922 9.86536 72.7433C10.1392 72.6651 10.3837 72.5086 10.5989 72.2837C10.8042 72.0587 10.9509 71.8142 11.0292 71.5404C11.0781 71.3546 11.1074 71.1101 11.1074 70.8069V67.8045C11.1074 67.4719 11.0879 67.2177 11.0487 67.0514C10.9803 66.758 10.8336 66.5037 10.6282 66.2886C10.413 66.0734 10.1685 65.9169 9.88492 65.8485C9.68932 65.7996 9.4546 65.7702 9.18076 65.7702H1.90448V72.8216H9.1612H9.17098Z" fill="black"/>
<path d="M12.0269 71.1882C12.0269 71.4425 11.9683 71.7359 11.8509 72.0489C11.714 72.4205 11.5184 72.7335 11.2641 72.9877C11.0685 73.1833 10.8044 73.3496 10.5013 73.4767C10.0905 73.643 9.72864 73.731 9.4059 73.731H1.70908V79.6479H0.975586V64.8508H9.39612C9.63084 64.8508 9.90468 64.8997 10.2176 64.9975C10.648 65.1345 10.9903 65.33 11.2543 65.5843C11.5184 65.8386 11.714 66.1516 11.8509 66.533C11.9683 66.8459 12.0269 67.1296 12.0269 67.3936V71.1785V71.1882ZM11.2934 70.8166V67.8142C11.2934 67.4621 11.2739 67.1882 11.225 67.0024C11.1467 66.6699 10.9805 66.3765 10.7458 66.132C10.5013 65.8875 10.2274 65.7212 9.92424 65.6332C9.71886 65.5745 9.46458 65.5452 9.17118 65.5452H1.70908V73.0464H9.17118C9.47436 73.0464 9.71886 73.0171 9.91446 72.9584C10.2274 72.8704 10.4915 72.6944 10.7262 72.4499C10.9609 72.2054 11.1174 71.9217 11.2054 71.6186C11.2641 71.4034 11.2934 71.1393 11.2934 70.8166Z" fill="black"/>
<path d="M17.66 79.8828C17.3568 79.8828 17.0243 79.8241 16.682 79.7067C16.2713 79.56 15.9192 79.3547 15.6356 79.0906C15.3422 78.8168 15.1074 78.4549 14.9412 78.0148C14.8141 77.6725 14.7554 77.3791 14.7554 77.1346V68.2349H15.8996V76.939C15.8996 77.1737 15.9485 77.4182 16.0365 77.6627C16.1246 77.9072 16.2615 78.1028 16.4571 78.2593C16.7016 78.4549 16.9852 78.5918 17.2982 78.6701C17.5133 78.719 17.7774 78.7483 18.0806 78.7483H21.5818C21.9143 78.7483 22.1784 78.7288 22.374 78.6799C22.6674 78.6114 22.9412 78.4647 23.1955 78.2495C23.4106 78.0637 23.5573 77.8486 23.6453 77.5943C23.7138 77.3889 23.7529 77.164 23.7529 76.9292V68.2349H24.8972V77.1346C24.8972 77.3889 24.8385 77.6823 24.7211 78.005C24.5647 78.4549 24.3299 78.8168 24.017 79.1004C23.7431 79.3547 23.3911 79.5503 22.9705 79.7067C22.6087 79.8339 22.2762 79.9023 21.9828 79.9023H17.6307L17.66 79.8828Z" fill="black"/>
<path d="M24.7213 77.1248C24.7213 77.3497 24.6724 77.6138 24.5648 77.9169C24.4181 78.3277 24.203 78.6602 23.9194 78.9145C23.6651 79.1492 23.3326 79.335 22.9414 79.4817C22.5991 79.5991 22.2861 79.6578 22.0123 79.6578H17.6602C17.3766 79.6578 17.0734 79.5991 16.7409 79.4915C16.3595 79.3546 16.027 79.1688 15.7629 78.9145C15.4988 78.6602 15.2837 78.3375 15.1272 77.9267C15.0098 77.6138 14.9609 77.3497 14.9609 77.1248V68.45H15.7042V76.9389C15.7042 77.203 15.7531 77.4768 15.8607 77.7507C15.9585 78.0245 16.1248 78.2592 16.3497 78.4451C16.6235 78.6602 16.9267 78.8069 17.269 78.8949C17.5037 78.9536 17.7776 78.983 18.0905 78.983H21.5917C21.934 78.983 22.2177 78.9536 22.423 78.9047C22.7458 78.8265 23.049 78.67 23.3228 78.4353C23.5673 78.2299 23.7336 77.9756 23.8411 77.6822C23.9194 77.4475 23.9683 77.203 23.9683 76.9389V68.4695H24.7115V77.1443L24.7213 77.1248Z" fill="black"/>
<path d="M28.6919 79.8826V70.9926C28.6919 70.709 28.7701 70.3765 28.9266 70.0048C29.0831 69.6332 29.3178 69.3007 29.6308 69.0268C29.8753 68.8117 30.198 68.6258 30.5697 68.4889C31.0489 68.3129 31.4988 68.2151 31.89 68.2151H33.621V69.3593H32.1442C31.8019 69.3593 31.5379 69.3789 31.3423 69.4278C31.0195 69.506 30.7359 69.6527 30.4914 69.8777C30.2469 70.1026 30.0904 70.3471 30.022 70.6405C29.9926 70.7383 29.9633 70.9535 29.9633 71.3936V79.8826H28.6821H28.6919Z" fill="black"/>
<path d="M33.4055 69.1346H32.1537C31.7918 69.1346 31.5082 69.1639 31.3028 69.2128C30.9409 69.3008 30.628 69.4671 30.3541 69.7116C30.0803 69.9561 29.8945 70.2495 29.8162 70.582C29.7771 70.7482 29.7576 71.0123 29.7576 71.3937V79.6578H28.9263V70.9927C28.9263 70.7385 28.9947 70.4353 29.1414 70.093C29.2881 69.7507 29.5033 69.4475 29.7869 69.1932C30.0118 68.9976 30.3052 68.8314 30.6573 68.7042C31.117 68.538 31.5375 68.45 31.8994 68.45H33.4055V69.1443V69.1346Z" fill="black"/>
<path d="M37.8162 79.8826C37.5619 79.8826 37.2588 79.8337 36.9262 79.7261C36.4666 79.5794 36.0852 79.3642 35.8016 79.0904C35.5179 78.8068 35.3028 78.484 35.1561 78.1124C35.0192 77.7505 34.9409 77.4082 34.9409 77.1051V70.9926C34.9409 70.709 35.0094 70.3765 35.1561 70.0048C35.3028 69.6332 35.5082 69.3007 35.7918 69.0268C36.0167 68.8117 36.3003 68.6258 36.6328 68.4889C37.0632 68.3129 37.4641 68.2151 37.8162 68.2151H42.2759C42.5302 68.2151 42.8333 68.264 43.1659 68.3716C43.6255 68.5183 44.0069 68.7236 44.2906 69.0073C44.5742 69.2811 44.7991 69.6332 44.9556 70.0342C45.0827 70.3765 45.1512 70.6894 45.1512 70.9828V72.3716L36.095 76.0684V76.7041C36.095 77.0073 36.1145 77.2518 36.1634 77.4376C36.2319 77.7016 36.3884 77.9559 36.6035 78.2004C36.7991 78.4058 37.0338 78.5525 37.3174 78.6405C37.5424 78.709 37.7967 78.7481 38.0509 78.7481H45.1512V79.8826H37.8162ZM38.0509 69.3593C37.7967 69.3593 37.5619 69.3985 37.3272 69.4669C37.0436 69.5647 36.7893 69.7114 36.6035 69.9168C36.3786 70.1417 36.2319 70.396 36.1634 70.6699C36.1145 70.8361 36.095 71.0806 36.095 71.3936V74.8557L44.0069 71.5989V71.3936C44.0069 71.0904 43.9776 70.8459 43.9385 70.6699C43.87 70.4058 43.7135 70.1515 43.4984 69.9168C43.3126 69.7212 43.0876 69.5843 42.8236 69.4963C42.5497 69.4082 42.2857 69.3593 42.0509 69.3593H38.0607H38.0509Z" fill="black"/>
<path d="M44.946 79.6578H37.8164C37.5719 79.6578 37.2981 79.6089 36.9851 79.5111C36.545 79.3742 36.2027 79.1786 35.9387 78.9243C35.6746 78.67 35.479 78.3668 35.3421 78.0245C35.2149 77.6822 35.1465 77.379 35.1465 77.1052V70.9927C35.1465 70.7385 35.2149 70.4353 35.3421 70.093C35.4692 69.7507 35.6648 69.4475 35.9191 69.1932C36.1245 68.9976 36.3788 68.8314 36.7015 68.7042C37.1123 68.538 37.4839 68.45 37.8164 68.45H42.2761C42.5206 68.45 42.7944 68.4989 43.1074 68.5967C43.5475 68.7336 43.8898 68.9292 44.1538 69.1834C44.4179 69.4377 44.6233 69.7507 44.7602 70.1321C44.8775 70.4451 44.9362 70.7287 44.9362 70.9927V72.225L35.88 75.9218V76.714C35.88 77.0465 35.9093 77.3106 35.9582 77.5062C36.0365 77.8094 36.2027 78.1028 36.457 78.3668C36.6722 78.5918 36.946 78.758 37.259 78.8558C37.5035 78.9341 37.7675 78.9732 38.0511 78.9732H44.946V79.6676V79.6578ZM44.2027 71.7556V71.3937C44.2027 71.071 44.1734 70.8069 44.1245 70.6113C44.0462 70.3081 43.88 70.0245 43.6257 69.7605C43.4203 69.5453 43.166 69.379 42.8726 69.291C42.5792 69.1932 42.3054 69.1443 42.0413 69.1443H38.0511C37.7773 69.1443 37.523 69.1834 37.2785 69.2617C36.9558 69.3693 36.6819 69.5355 36.4668 69.7605C36.2223 70.0147 36.056 70.2984 35.968 70.6113C35.9191 70.8069 35.8898 71.0612 35.8898 71.3937V75.1786L44.2027 71.7556Z" fill="black"/>
<path d="M47.5376 79.8827V78.7482H54.677C54.9801 78.7482 55.2735 78.7091 55.5376 78.6406C55.7919 78.5722 56.0168 78.445 56.2026 78.269C56.3885 78.093 56.5058 77.8876 56.5841 77.6333C56.6623 77.3692 56.7014 77.0367 56.7014 76.6651V74.6113C56.7014 74.1712 56.6721 73.956 56.6525 73.8485C56.5841 73.5746 56.4374 73.3203 56.2124 73.0856C56.007 72.8802 55.7625 72.7335 55.4789 72.6553C55.2833 72.6064 55.0486 72.5771 54.7845 72.5771H50.8432C50.6085 72.5771 50.3836 72.5575 50.1782 72.5282C49.4545 72.4206 48.8677 72.1956 48.4471 71.8338C48.0853 71.5306 47.831 71.071 47.6843 70.4744C47.5865 70.093 47.5474 69.692 47.5474 69.2617V67.8142C47.5474 67.335 47.6158 66.8949 47.7332 66.4939C47.8603 66.093 48.0657 65.7409 48.3298 65.467C48.6525 65.1345 49.1219 64.8998 49.7283 64.7629C50.1195 64.6749 50.5303 64.6357 50.9508 64.6357H57.8359V65.7702H50.6965C50.3836 65.7702 50.0902 65.8093 49.8261 65.8876C49.5816 65.956 49.3567 66.0832 49.1708 66.2592C48.985 66.4255 48.8677 66.6309 48.7894 66.8949C48.7112 67.1688 48.6721 67.4915 48.6721 67.8533V69.5159C48.6721 69.7996 48.7112 70.0636 48.7797 70.3179C48.8481 70.5526 48.9752 70.758 49.1513 70.934C49.3371 71.1101 49.562 71.2372 49.8359 71.3057C50.1195 71.3839 50.4716 71.423 50.8726 71.423H54.9997C55.254 71.423 55.5474 71.4719 55.8799 71.5795C56.3396 71.7262 56.7112 71.9414 57.0046 72.2348C57.2686 72.489 57.4838 72.8313 57.6403 73.2323C57.7772 73.5844 57.8457 73.9169 57.8457 74.2005V76.6749C57.8457 77.1639 57.7772 77.604 57.6598 78.0049C57.5327 78.4157 57.3273 78.758 57.0633 79.0318C56.7405 79.3643 56.2711 79.5991 55.6745 79.7458C55.2931 79.8338 54.8823 79.8827 54.4422 79.8827H47.5572H47.5376Z" fill="black"/>
<path d="M57.6307 76.6846C57.6307 77.1442 57.572 77.5648 57.4547 77.9364C57.3373 78.308 57.1515 78.621 56.907 78.8655C56.6136 79.1687 56.1735 79.3936 55.6063 79.5305C55.2346 79.6185 54.8434 79.6577 54.4131 79.6577H47.7236V78.9633H54.6674C54.9901 78.9633 55.2933 78.9242 55.5769 78.8459C55.8703 78.7677 56.1148 78.6308 56.3202 78.4254C56.5256 78.2298 56.6723 77.9755 56.7603 77.6821C56.8483 77.3887 56.8874 77.0464 56.8874 76.6454V74.5916C56.8874 74.2102 56.8679 73.9462 56.8288 73.7799C56.7505 73.4572 56.5843 73.1638 56.33 72.8997C56.1051 72.665 55.8214 72.5085 55.5085 72.4205C55.3031 72.3618 55.0488 72.3325 54.7652 72.3325H50.8239C50.5989 72.3325 50.3838 72.3227 50.1784 72.2934C49.484 72.1956 48.9363 71.9804 48.5451 71.6479C48.2224 71.374 47.9877 70.9633 47.8606 70.4156C47.7725 70.0538 47.7236 69.6723 47.7236 69.2616V67.8141C47.7236 67.3643 47.7823 66.9437 47.8997 66.5721C48.017 66.2004 48.2029 65.8875 48.4474 65.6332C48.7407 65.33 49.1808 65.1149 49.7481 64.9877C50.1295 64.8997 50.5207 64.8606 50.9412 64.8606H57.6307V65.555H50.687C50.3544 65.555 50.0513 65.5941 49.7676 65.6821C49.4938 65.7604 49.2493 65.907 49.0341 66.1026C48.819 66.2982 48.6723 66.5427 48.594 66.8361C48.506 67.1295 48.4669 67.4718 48.4669 67.863V69.5256C48.4669 69.8288 48.506 70.1222 48.5843 70.3961C48.6625 70.6699 48.8092 70.9144 49.0146 71.11C49.22 71.3056 49.4742 71.4523 49.7774 71.5305C50.0806 71.6088 50.4425 71.6577 50.8532 71.6577H54.9804C55.2151 71.6577 55.4889 71.7066 55.8019 71.8044C56.2322 71.9413 56.5843 72.1467 56.8483 72.4107C57.0928 72.6552 57.2884 72.9584 57.4351 73.3398C57.5623 73.6625 57.6209 73.9559 57.6209 74.2102V76.6846H57.6307Z" fill="black"/>
<path d="M64.4864 79.8828C64.0267 79.8828 63.5475 79.7752 63.0781 79.5698C62.6087 79.3645 62.1783 79.0906 61.8263 78.7581C61.5035 78.4647 61.2492 78.0833 61.0536 77.6432C60.858 77.1933 60.77 76.763 60.77 76.362V71.5992C60.77 71.208 60.858 70.7972 61.0341 70.3767C61.2101 69.9561 61.4742 69.5845 61.8165 69.252C62.149 68.9292 62.5402 68.6652 62.9705 68.4892C63.4008 68.3131 63.8409 68.2251 64.2908 68.2251H67.1661C67.6453 68.2251 68.1343 68.3131 68.6038 68.4989C69.083 68.6848 69.5231 68.9782 69.9241 69.3791C70.2468 69.7019 70.4913 70.1517 70.6575 70.7092C70.7847 71.1395 70.8434 71.5698 70.8434 71.9904V76.2055C70.8434 76.8412 70.726 77.3987 70.5011 77.8388C70.3544 78.1322 70.0903 78.4647 69.6991 78.8755C69.4448 79.1395 69.0928 79.3742 68.6624 79.5601C68.1734 79.7752 67.6844 79.8828 67.215 79.8828H64.506H64.4864ZM64.7407 69.3596C64.2321 69.3596 63.8116 69.4085 63.4986 69.5063C63.1954 69.5943 62.9021 69.7801 62.6282 70.0539C62.3544 70.3278 62.1588 70.631 62.0414 70.9341C61.9241 71.2471 61.8654 71.6285 61.8654 72.0686V76.0588C61.8654 76.8412 62.1294 77.4867 62.6869 78.0344C62.9216 78.2691 63.215 78.4451 63.5573 78.5625C63.9094 78.6799 64.2419 78.7483 64.5451 78.7483H67.0781C67.4595 78.7483 67.8214 78.6701 68.1539 78.5234C68.4277 78.3962 68.7016 78.2006 68.9754 77.9464C69.2395 77.6921 69.4351 77.428 69.5426 77.1542C69.6502 76.8804 69.7089 76.5283 69.7089 76.1273V72.2936C69.7089 71.7752 69.6502 71.3449 69.5329 71.0026C69.4155 70.6701 69.259 70.3962 69.0732 70.1909C68.8091 69.917 68.4179 69.6921 67.9094 69.5356C67.5377 69.428 67.1954 69.3694 66.8825 69.3694H64.7407V69.3596Z" fill="black"/>
<path d="M70.6382 76.2055C70.6382 76.8118 70.5306 77.3204 70.3155 77.7311C70.1785 78.005 69.9243 78.3277 69.5526 78.7091C69.3081 78.9536 68.9854 79.1688 68.5746 79.3448C68.1052 79.5502 67.6455 79.6578 67.1957 79.6578H64.4866C64.0465 79.6578 63.5966 79.56 63.1467 79.3644C62.6871 79.1688 62.2861 78.9047 61.9438 78.5918C61.6406 78.3179 61.4059 77.9659 61.2299 77.5453C61.0538 77.1248 60.9658 76.7336 60.9658 76.3619V71.5991C60.9658 71.2372 61.0441 70.8656 61.2103 70.4744C61.3766 70.0832 61.6211 69.7311 61.9438 69.4182C62.2666 69.1052 62.6284 68.8705 63.0392 68.6945C63.4499 68.5282 63.8607 68.4402 64.291 68.4402H67.1663C67.626 68.4402 68.0856 68.5282 68.5453 68.7042C69.0049 68.8803 69.4157 69.1541 69.7971 69.5355C70.1003 69.8289 70.3252 70.2495 70.4817 70.7678C70.5991 71.1688 70.6577 71.5795 70.6577 71.9805V76.1957L70.6382 76.2055ZM69.9145 76.1077V72.2739C69.9145 71.7262 69.846 71.2666 69.7189 70.9047C69.5917 70.5429 69.4255 70.2397 69.2103 70.0148C68.9267 69.7116 68.5062 69.4769 67.9585 69.3106C67.5673 69.1932 67.2152 69.1443 66.8827 69.1443H64.7409C64.2128 69.1443 63.7824 69.1932 63.4499 69.291C63.1174 69.3888 62.7947 69.5942 62.5013 69.8876C62.2079 70.181 61.9927 70.5037 61.8656 70.8558C61.7384 71.1981 61.67 71.6089 61.67 72.0783V76.0685C61.67 76.9096 61.9634 77.6236 62.5599 78.2104C62.8142 78.4646 63.1272 78.6602 63.4988 78.7874C63.8705 78.9145 64.2225 78.983 64.5355 78.983H67.0685C67.4793 78.983 67.8607 78.9047 68.2225 78.7385C68.5159 78.6016 68.8093 78.3962 69.1027 78.1223C69.3961 77.8485 69.6015 77.5551 69.7287 77.2519C69.8558 76.9487 69.9145 76.5673 69.9145 76.1272V76.1077Z" fill="black"/>
<path d="M74.1587 79.8827V67.4035C74.1587 67.1003 74.2369 66.7678 74.3934 66.4059C74.5499 66.0441 74.7944 65.7115 75.1074 65.4377C75.3519 65.2225 75.6648 65.0465 76.0462 64.9096C76.5255 64.7335 76.9753 64.6357 77.3665 64.6357H79.0193V65.7702H77.6013C77.3176 65.7702 77.0536 65.8093 76.7993 65.8778C76.4766 65.9756 76.1929 66.1321 75.968 66.3472C75.7431 66.5624 75.5866 66.8069 75.5083 67.0905C75.4594 67.2763 75.4301 67.5208 75.4301 67.824V68.225H79.0291V69.3692H75.4301V79.8925H74.1489L74.1587 79.8827Z" fill="black"/>
<path d="M78.8043 69.1344H75.2053V79.6577H74.374V67.4034C74.374 67.1295 74.4425 66.8264 74.5892 66.4938C74.7359 66.1515 74.951 65.8582 75.2444 65.6039C75.4694 65.4083 75.7628 65.242 76.1149 65.1149C76.5745 64.9486 76.9951 64.8606 77.3569 64.8606H78.7946V65.555H77.6014C77.2982 65.555 77.0146 65.5941 76.731 65.6723C76.3691 65.7799 76.066 65.956 75.8117 66.1907C75.5574 66.4352 75.3814 66.709 75.2933 67.0317C75.2347 67.2371 75.2053 67.5012 75.2053 67.8239V68.4498H78.8043V69.1442V69.1344Z" fill="black"/>
<path d="M80.5449 79.8827V64.6357H81.8261V68.225H85.4153V69.3595H81.8261V79.8827H80.5449Z" fill="black"/>
<path d="M85.2003 69.1344H81.6013V79.6577H80.77V64.8606H81.6013V68.4498H85.2003V69.1442V69.1344Z" fill="black"/>
<path d="M97.875 80.0002C97.6892 80.0002 97.5229 79.9317 97.4056 79.7948C97.298 79.6774 97.21 79.5307 97.1611 79.3645L94.2858 70.8168L91.3518 79.3547C91.1757 79.8828 90.8628 80.0002 90.6378 80.0002C90.4618 80.0002 90.3053 79.9415 90.1684 79.8241C90.0413 79.7165 89.9435 79.5503 89.875 79.3351L86.2075 68.2251H87.5572L90.6281 77.4769L93.5718 68.9488C93.7283 68.4109 94.051 68.2936 94.2955 68.2936C94.54 68.2936 94.8726 68.4109 95.029 68.9488L97.8946 77.4965L101.053 68.2349H102.403L98.6281 79.3645C98.4716 79.9024 98.1391 80.0099 97.8946 80.0099L97.875 80.0002Z" fill="black"/>
<path d="M102.09 68.45L98.4227 79.2764C98.3249 79.6089 98.1391 79.7751 97.8848 79.7751C97.7577 79.7751 97.6403 79.7262 97.5523 79.6284C97.4643 79.5306 97.3958 79.4133 97.3469 79.2861L94.2858 70.181L91.1562 79.2861C91.0487 79.6187 90.8726 79.7849 90.6379 79.7849C90.5108 79.7849 90.3934 79.7458 90.2956 79.6578C90.1978 79.5795 90.1196 79.4426 90.0707 79.2764L86.501 68.4597H87.4203L90.6281 78.1321L93.7675 69.0367C93.8653 68.6944 94.0413 68.5282 94.2956 68.5282C94.5499 68.5282 94.7357 68.6945 94.8335 69.027L97.8946 78.1517L101.2 68.4695H102.11L102.09 68.45Z" fill="black"/>
<path d="M107.108 79.8828C106.853 79.8828 106.57 79.8339 106.247 79.7263C105.797 79.5796 105.425 79.3645 105.161 79.0906C104.888 78.8168 104.672 78.4843 104.535 78.1028C104.389 77.7214 104.32 77.3889 104.32 77.1053V74.8266C104.32 74.5234 104.389 74.1909 104.526 73.829C104.663 73.4574 104.878 73.1346 105.152 72.8608C105.367 72.6456 105.641 72.4696 105.973 72.3327C106.394 72.1566 106.785 72.0588 107.127 72.0588H113.142V71.4036C113.142 71.0808 113.122 70.8363 113.083 70.6799C113.015 70.4158 112.878 70.1615 112.653 69.9366C112.477 69.741 112.252 69.6041 111.998 69.516C111.724 69.428 111.469 69.3791 111.235 69.3791H104.32V68.2349H111.44C111.694 68.2349 111.978 68.2838 112.301 68.3913C112.751 68.538 113.122 68.7434 113.386 69.027C113.66 69.3009 113.875 69.6432 114.032 70.0539C114.169 70.406 114.237 70.7288 114.237 71.0026V77.1151C114.237 77.4182 114.169 77.741 114.042 78.0735C113.895 78.4647 113.68 78.807 113.396 79.0808C113.122 79.3547 112.751 79.5698 112.301 79.7263C111.958 79.8339 111.665 79.8926 111.421 79.8926H107.098L107.108 79.8828ZM107.313 73.1835C107.068 73.1835 106.834 73.2226 106.609 73.2911C106.325 73.3889 106.081 73.5454 105.885 73.7605C105.69 73.9757 105.553 74.2104 105.484 74.494C105.435 74.6799 105.416 74.9244 105.416 75.2275V76.7141C105.416 77.0466 105.435 77.2911 105.474 77.4476C105.533 77.7116 105.68 77.9659 105.905 78.2006C106.09 78.3962 106.335 78.5429 106.619 78.6407C106.844 78.7092 107.078 78.7483 107.323 78.7483H111.225C111.469 78.7483 111.704 78.7092 111.929 78.6407C112.213 78.5429 112.457 78.3865 112.653 78.1811C112.848 77.9757 112.985 77.7312 113.054 77.4476C113.103 77.2618 113.122 77.0173 113.122 76.7141V73.1835H107.323H107.313Z" fill="black"/>
<path d="M114.032 77.1052C114.032 77.379 113.973 77.6724 113.856 77.9756C113.719 78.3375 113.523 78.6504 113.259 78.9047C113.005 79.159 112.662 79.3546 112.242 79.5013C111.919 79.6089 111.645 79.6578 111.42 79.6578H107.098C106.863 79.6578 106.589 79.6089 106.286 79.5111C105.865 79.3741 105.523 79.1785 105.269 78.9243C105.014 78.67 104.819 78.3668 104.692 78.0147C104.565 77.6626 104.486 77.3595 104.486 77.1052V74.8265C104.486 74.5526 104.555 74.2494 104.682 73.9169C104.809 73.5844 105.005 73.2812 105.259 73.027C105.455 72.8314 105.709 72.6651 106.012 72.538C106.413 72.3717 106.775 72.2837 107.098 72.2837H113.298V71.4035C113.298 71.0612 113.279 70.7971 113.23 70.6211C113.161 70.3179 112.995 70.0343 112.75 69.7702C112.555 69.5551 112.31 69.3888 112.017 69.3008C111.723 69.203 111.45 69.1541 111.205 69.1541H104.486V68.4597H111.411C111.645 68.4597 111.919 68.5086 112.222 68.6064C112.643 68.7433 112.985 68.9389 113.239 69.1932C113.494 69.4475 113.689 69.7605 113.836 70.1419C113.963 70.4646 114.022 70.758 114.022 71.0025V77.115L114.032 77.1052ZM113.308 76.714V72.9585H107.313C107.049 72.9585 106.794 72.9976 106.56 73.0759C106.247 73.1834 105.973 73.3595 105.758 73.5942C105.533 73.8289 105.386 74.1125 105.298 74.4353C105.249 74.6406 105.22 74.9047 105.22 75.2274V76.714C105.22 77.0661 105.239 77.3301 105.288 77.5062C105.357 77.8094 105.523 78.093 105.767 78.357C105.983 78.582 106.247 78.7384 106.56 78.846C106.804 78.9243 107.049 78.9634 107.313 78.9634H111.215C111.479 78.9634 111.733 78.9243 111.968 78.846C112.281 78.7384 112.555 78.5722 112.77 78.3375C112.995 78.1027 113.142 77.8289 113.23 77.5062C113.279 77.3008 113.308 77.0367 113.308 76.714Z" fill="black"/>
<path d="M118.09 79.8826V70.9926C118.09 70.709 118.169 70.3765 118.325 70.0048C118.482 69.6332 118.716 69.3007 119.029 69.0268C119.274 68.8117 119.596 68.6258 119.968 68.4889C120.447 68.3129 120.897 68.2151 121.288 68.2151H123.019V69.3593H121.543C121.2 69.3593 120.936 69.3789 120.741 69.4278C120.418 69.506 120.134 69.6527 119.89 69.8777C119.645 70.1026 119.489 70.3471 119.42 70.6405C119.391 70.7383 119.362 70.9535 119.362 71.3936V79.8826H118.081H118.09Z" fill="black"/>
<path d="M122.804 69.1346H121.553C121.191 69.1346 120.907 69.1639 120.702 69.2128C120.34 69.3008 120.027 69.4671 119.753 69.7116C119.479 69.9561 119.293 70.2495 119.215 70.582C119.176 70.7482 119.156 71.0123 119.156 71.3937V79.6578H118.325V70.9927C118.325 70.7385 118.394 70.4353 118.54 70.093C118.687 69.7507 118.902 69.4475 119.186 69.1932C119.411 68.9976 119.704 68.8314 120.056 68.7042C120.516 68.538 120.936 68.45 121.298 68.45H122.804V69.1443V69.1346Z" fill="black"/>
<path d="M127.039 79.8826C126.785 79.8826 126.491 79.8337 126.159 79.7261C125.699 79.5794 125.327 79.3642 125.044 79.0904C124.76 78.8068 124.545 78.484 124.408 78.1124C124.271 77.7505 124.193 77.4082 124.193 77.1051V70.9926C124.193 70.709 124.261 70.3765 124.408 70.0048C124.545 69.6332 124.76 69.3007 125.034 69.0268C125.259 68.8117 125.533 68.6258 125.865 68.4889C126.296 68.3129 126.687 68.2151 127.039 68.2151H131.45C131.704 68.2151 131.997 68.264 132.33 68.3716C132.789 68.5183 133.161 68.7236 133.445 69.0073C133.728 69.2811 133.943 69.6332 134.1 70.0342C134.227 70.3765 134.296 70.6894 134.296 70.9828V72.3716L125.337 76.0684V76.7041C125.337 77.0073 125.357 77.2518 125.406 77.4376C125.474 77.7016 125.621 77.9559 125.846 78.2004C126.031 78.4058 126.276 78.5525 126.55 78.6405C126.775 78.709 127.019 78.7481 127.274 78.7481H134.296V79.8826H127.049H127.039ZM127.264 69.3593C127.019 69.3593 126.775 69.3985 126.55 69.4669C126.266 69.5647 126.022 69.7114 125.826 69.9168C125.611 70.1417 125.464 70.396 125.386 70.6699C125.337 70.8361 125.318 71.0806 125.318 71.3936V74.8557L133.151 71.5989V71.3936C133.151 71.0904 133.122 70.8459 133.083 70.6699C133.014 70.4058 132.868 70.1515 132.643 69.9168C132.457 69.7212 132.242 69.5843 131.978 69.4963C131.704 69.4082 131.45 69.3593 131.215 69.3593H127.264Z" fill="black"/>
<path d="M134.09 79.6578H127.039C126.804 79.6578 126.53 79.6089 126.218 79.5111C125.787 79.3742 125.445 79.1786 125.181 78.9243C124.917 78.67 124.721 78.3668 124.594 78.0245C124.467 77.6822 124.398 77.379 124.398 77.1052V70.9927C124.398 70.7385 124.467 70.4353 124.594 70.093C124.721 69.7507 124.917 69.4475 125.171 69.1932C125.376 68.9976 125.631 68.8314 125.944 68.7042C126.354 68.538 126.716 68.45 127.049 68.45H131.46C131.694 68.45 131.978 68.4989 132.281 68.5967C132.711 68.7336 133.054 68.9292 133.318 69.1834C133.582 69.4377 133.777 69.7507 133.924 70.1321C134.041 70.4451 134.1 70.7287 134.1 70.9927V72.225L125.142 75.9218V76.714C125.142 77.0465 125.171 77.3106 125.22 77.5062C125.298 77.8094 125.464 78.1028 125.709 78.3668C125.924 78.5918 126.188 78.758 126.501 78.8558C126.746 78.9341 127.01 78.9732 127.284 78.9732H134.1V79.6676L134.09 79.6578ZM133.357 71.7556V71.3937C133.357 71.071 133.328 70.8069 133.279 70.6113C133.2 70.3081 133.034 70.0245 132.79 69.7605C132.584 69.5453 132.33 69.379 132.046 69.291C131.753 69.1932 131.479 69.1443 131.225 69.1443H127.274C127.01 69.1443 126.755 69.1834 126.501 69.2617C126.178 69.3693 125.914 69.5355 125.699 69.7605C125.455 70.0147 125.288 70.2984 125.21 70.6113C125.161 70.8069 125.132 71.0612 125.132 71.3937V75.1786L133.357 71.7556Z" fill="black"/>
</g>
<defs>
<linearGradient id="paint0_linear_365_59" x1="58.188" y1="26.5232" x2="71.1953" y2="1.72127" gradientUnits="userSpaceOnUse">
<stop stop-color="#FF1C1F"/>
<stop offset="0.66" stop-color="#A81F1B"/>
</linearGradient>
<linearGradient id="paint1_linear_365_59" x1="95.2832" y1="53.7898" x2="82.4324" y2="32.2836" gradientUnits="userSpaceOnUse">
<stop stop-color="#006C21"/>
<stop offset="1" stop-color="#00B22F"/>
</linearGradient>
<linearGradient id="paint2_linear_365_59" x1="38.501" y1="50.4451" x2="65.1318" y2="50.4451" gradientUnits="userSpaceOnUse">
<stop stop-color="#006289"/>
<stop offset="1" stop-color="#009FDD"/>
</linearGradient>
<clipPath id="clip0_365_59">
<rect width="133.506" height="80" fill="white" transform="translate(0.779785)"/>
</clipPath>
</defs>
</svg>
