<svg width="117" height="80" viewBox="0 0 117 80" fill="none" xmlns="http://www.w3.org/2000/svg">
<g clip-path="url(#clip0_380_185)">
<path d="M67.4155 15.6517C67.4155 24.2887 81.5841 35.8131 81.5841 44.2292C81.5841 48.6114 77.9802 52.0933 74.5296 54.4203H63.4111C67.637 51.7366 72.0844 48.0169 72.0844 44.2292C72.0844 37.0275 59.083 24.9511 59.083 16.9766C59.083 9.00203 68.8639 3.07422 68.8639 3.07422H81.5841V3.35447C78.4402 4.48399 67.4155 8.90861 67.4155 15.6517Z" fill="#C5C6C6"/>
<path d="M49.9668 16.7557C49.9668 25.8428 62.917 35.8131 62.917 44.6708C62.917 49.0275 59.9777 52.2632 56.9872 54.4203H34.0771V3.07422H62.917C62.917 3.07422 49.9668 7.67719 49.9668 16.7557Z" fill="#EF7C00"/>
<path d="M90.0272 11.0318C86.9771 11.0318 84.4893 8.55196 84.4893 5.51163C84.4893 2.47129 86.9771 -0.00854492 90.0272 -0.00854492C93.0773 -0.00854492 95.5651 2.47129 95.5651 5.51163C95.5651 8.55196 93.0773 11.0318 90.0272 11.0318ZM90.0272 0.772771C87.4031 0.772771 85.2731 2.89591 85.2731 5.51163C85.2731 8.12734 87.4031 10.2505 90.0272 10.2505C92.6513 10.2505 94.7813 8.12734 94.7813 5.51163C94.7813 2.89591 92.6513 0.772771 90.0272 0.772771Z" fill="#C5C6C6"/>
<path d="M87.3777 8.50948V2.52222H90.0359C90.5726 2.52222 90.9816 2.57317 91.2542 2.68358C91.5354 2.79398 91.7569 2.98082 91.9188 3.25258C92.0892 3.52434 92.1659 3.82158 92.1659 4.15279C92.1659 4.57742 92.0295 4.93411 91.7484 5.22285C91.4757 5.5116 91.0497 5.69844 90.4704 5.77487C90.6834 5.87678 90.8367 5.97869 90.9475 6.07211C91.1775 6.28443 91.3991 6.5477 91.6035 6.87041L92.6515 8.50099H91.6547L90.8623 7.25258C90.6323 6.89589 90.4363 6.61564 90.2915 6.4288C90.1381 6.24196 90.0103 6.10608 89.891 6.02965C89.7718 5.95322 89.6525 5.90226 89.5247 5.86829C89.431 5.8513 89.2861 5.84281 89.0816 5.84281H88.1615V8.50099H87.3691L87.3777 8.50948ZM88.17 5.16341H89.874C90.2404 5.16341 90.5215 5.12944 90.726 5.053C90.9305 4.97657 91.0838 4.85767 91.1946 4.69632C91.2968 4.53496 91.3565 4.35661 91.3565 4.16128C91.3565 3.88103 91.2542 3.64324 91.0497 3.46489C90.8453 3.28655 90.5215 3.19313 90.07 3.19313H88.17V5.1719V5.16341Z" fill="#C5C6C6"/>
<path d="M3.55871 74.0636C3.72911 75.9999 4.93893 76.6538 5.96984 76.6538C7.29895 76.6538 8.47469 75.6857 8.47469 74.2249C8.47469 72.2377 7.27339 71.8725 5.00709 70.9553C3.60983 70.3778 0.678982 69.4691 0.678982 65.3842C0.678982 62.3014 2.93676 59.864 6.01244 59.864C8.12538 59.864 11.2181 61.4351 11.397 65.3842H7.95498C7.81014 63.6602 6.82183 63.2101 5.91872 63.2101C4.86225 63.2101 4.05286 64.0169 4.05286 65.1719C4.05286 66.8449 5.22861 67.2101 7.07743 67.864C8.57693 68.3906 11.8401 69.6135 11.8401 73.8258C11.8401 78.0381 8.78993 79.9999 5.94428 79.9999C3.60983 79.9999 0.218907 78.3269 0.0229492 74.0636H3.55871Z" fill="#C5C6C6"/>
<path d="M16.3385 74.0636C16.5089 75.9999 17.7187 76.6538 18.7496 76.6538C20.0787 76.6538 21.2545 75.6857 21.2545 74.225C21.2545 72.2377 20.0532 71.8725 17.7869 70.9553C16.3896 70.3778 13.4588 69.4691 13.4588 65.3842C13.4588 62.3014 15.7165 59.864 18.7922 59.864C20.9052 59.864 23.9979 61.4351 24.1768 65.3842H20.7348C20.5899 63.6602 19.6016 63.2101 18.6985 63.2101C17.642 63.2101 16.8326 64.0169 16.8326 65.1719C16.8326 66.8449 18.0084 67.2101 19.8572 67.864C21.3567 68.3906 24.6198 69.6135 24.6198 73.8258C24.6198 78.0381 21.5697 79.9999 18.7241 79.9999C16.3896 79.9999 12.9987 78.3269 12.8027 74.0636H16.3385Z" fill="#C5C6C6"/>
<path d="M40.356 69.7494H52.2243V70.1655C52.2243 75.6857 47.6832 79.9999 42.5968 79.9999C37.5104 79.9999 32.8159 75.7366 32.8159 69.9277C32.8159 64.1188 37.3655 59.864 42.4945 59.864C47.0612 59.864 50.384 63.1591 51.3126 65.9277H47.2827C46.4989 64.6453 44.829 63.2101 42.4178 63.2101C38.3113 63.2101 36.1728 66.9213 36.1728 69.9532C36.1728 72.985 38.2601 76.6453 42.5882 76.6453C44.8205 76.6453 46.9164 75.3375 47.9728 73.0869H40.356V69.7409V69.7494Z" fill="#C5C6C6"/>
<path d="M54.3628 60.2632H59.9433C62.0307 60.2632 63.3343 60.6793 64.3652 61.571C65.3961 62.4628 66.5037 64.0254 66.5037 66.2504C66.5037 67.5328 66.0606 69.5456 64.7571 70.8789C63.6751 71.9744 62.6441 72.2377 61.7325 72.4755L66.6741 79.6178H62.593L57.7793 72.2207H57.7282V79.6178H54.3628V60.2632ZM57.7282 69.5201H59.8922C62.6697 69.5201 63.1383 67.5583 63.1383 66.5392C63.1383 65.4691 62.5249 63.6093 59.8922 63.6093H57.7282V69.5201Z" fill="#C5C6C6"/>
<path d="M77.3583 59.864C82.5214 59.864 86.8665 64.2547 86.8665 69.9872C86.8665 75.7196 82.5895 79.9999 77.3583 79.9999C72.1271 79.9999 67.8501 75.5243 67.8501 69.9872C67.8501 64.45 72.1952 59.864 77.3583 59.864ZM77.3583 76.6538C80.8259 76.6538 83.5012 73.5455 83.5012 69.9617C83.5012 66.3778 80.7748 63.2186 77.3583 63.2186C73.9418 63.2186 71.2155 66.2504 71.2155 69.9617C71.2155 73.6729 73.8907 76.6538 77.3583 76.6538Z" fill="#C5C6C6"/>
<path d="M92.3873 60.2632V72.5519C92.3873 73.5201 92.3873 76.6538 95.5312 76.6538C98.675 76.6538 98.675 73.5116 98.675 72.5519V60.2632H102.04V72.5519C102.04 74.1231 101.844 75.847 100.984 77.1294C99.9275 78.7006 98.036 80.0084 95.5567 80.0084C92.7792 80.0084 90.939 78.3608 90.1551 77.2398C89.5672 76.3991 89.022 74.9383 89.022 72.5604V60.2717H92.3873V60.2632Z" fill="#C5C6C6"/>
<path d="M105.159 60.2632H109.725C111.668 60.2632 113.338 60.2632 115.059 61.8088C116.235 62.9638 116.78 64.45 116.78 66.2589C116.78 68.0679 116.243 69.5541 115.059 70.7006C113.338 72.2462 111.668 72.2462 109.725 72.2462H108.524V79.6178H105.159V60.2632ZM108.524 68.8916H109.606C111.054 68.8916 113.414 68.7897 113.414 66.2504C113.414 63.7112 111.106 63.6093 109.725 63.6093H108.524V68.8916Z" fill="#C5C6C6"/>
</g>
<defs>
<clipPath id="clip0_380_185">
<rect width="116.757" height="80" fill="white" transform="translate(0.0229492)"/>
</clipPath>
</defs>
</svg>
