<svg width="258" height="50" viewBox="0 0 258 50" fill="none" xmlns="http://www.w3.org/2000/svg">
<g clip-path="url(#clip0_380_134)">
<path d="M69.5267 45.0415C66.8587 44.2235 64.6815 43.116 63.0077 41.7065C62.1142 41.0269 61.6611 40.0705 61.6611 38.8246C61.6611 37.9814 61.9002 37.2514 62.3911 36.6348C62.8819 36.0181 63.4482 35.7035 64.1152 35.7035C64.82 35.7035 65.6128 35.9804 66.5189 36.5467C68.1927 37.7926 69.942 38.6861 71.7794 39.2525C73.6168 39.8188 75.643 40.0956 77.858 40.0956C80.7022 40.0956 82.8919 39.5797 84.4021 38.5603C85.9123 37.5409 86.68 36.0433 86.68 34.0926C86.68 32.5698 85.9627 31.3994 84.5406 30.5814C83.1185 29.7634 80.7525 28.9706 77.4301 28.2155C73.9944 27.4604 71.2131 26.5794 69.0737 25.5726C66.9342 24.5784 65.3108 23.2947 64.2159 21.7342C63.121 20.1737 62.5798 18.1978 62.5798 15.7941C62.5798 13.3904 63.2594 11.0873 64.6312 9.13667C65.9904 7.17341 67.8907 5.65064 70.3322 4.54316C72.7736 3.44827 75.5046 2.89453 78.5501 2.89453C84.1253 2.89453 88.6684 4.41731 92.1796 7.45028C92.683 7.89076 93.048 8.31864 93.2619 8.74653C93.4759 9.17442 93.5892 9.70299 93.5892 10.3322C93.5892 11.1754 93.35 11.9054 92.8592 12.522C92.3684 13.1387 91.8021 13.4533 91.1351 13.4533C90.7449 13.4533 90.38 13.3904 90.0528 13.2771C89.7256 13.1513 89.2851 12.9373 88.7314 12.6101C87.1331 11.4145 85.5851 10.521 84.0875 9.9421C82.5899 9.3632 80.7399 9.07374 78.5627 9.07374C75.9073 9.07374 73.8182 9.62748 72.2828 10.7224C70.7475 11.8298 69.9798 13.3526 69.9798 15.3159C69.9798 16.9519 70.6594 18.223 72.0311 19.1039C73.3903 19.9849 75.7185 20.8029 78.9906 21.5706C82.4641 22.376 85.2831 23.257 87.4351 24.2386C89.5871 25.2202 91.2609 26.4661 92.4062 27.9889C93.5514 29.5117 94.1303 31.412 94.1303 33.6899C94.1303 36.1691 93.4633 38.3589 92.1167 40.2593C90.7701 42.1596 88.8824 43.6446 86.4409 44.7017C83.9994 45.7589 81.2056 46.2874 78.0467 46.2874C74.8879 46.2874 72.2073 45.8721 69.5393 45.0541L69.5267 45.0415Z" fill="#F95000"/>
<path d="M117.79 42.5498C117.765 43.2671 117.576 44.0222 117.073 44.5256C116.645 44.9535 116.028 45.1674 115.437 45.3184C114.077 45.6834 112.68 45.9099 111.271 45.9854C109.547 46.0735 107.772 45.9225 106.187 45.2303C101.757 43.2671 102.008 38.0569 102.008 33.9416V20.0479H99.0887C98.0316 20.0479 97.2262 19.7962 96.6598 19.2802C96.0935 18.7642 95.8167 18.0217 95.8167 17.0526C95.8167 16.0836 96.0935 15.3285 96.6598 14.8251C97.2262 14.3091 98.0316 14.0574 99.0887 14.0574H102.008V8.19283C102.008 7.0476 102.336 6.1289 103.003 5.44931C103.67 4.76973 104.563 4.42993 105.696 4.42993C106.828 4.42993 107.659 4.76973 108.326 5.44931C108.993 6.1289 109.32 7.0476 109.32 8.19283V14.0574H114.291C115.348 14.0574 116.154 14.3091 116.72 14.8251C117.287 15.3285 117.563 16.0836 117.563 17.0526C117.563 18.0217 117.274 18.7768 116.72 19.2802C116.154 19.7962 115.348 20.0479 114.291 20.0479H109.32V34.508C109.32 36.4586 109.043 38.9253 111.497 39.3909C112.454 39.5797 113.448 39.4035 114.417 39.3909C115.386 39.3783 116.456 39.5671 117.11 40.297C117.626 40.8634 117.803 41.6814 117.79 42.4491C117.79 42.4742 117.79 42.4994 117.79 42.5246V42.5498Z" fill="#F95000"/>
<path d="M139.159 14.0951C139.738 14.6614 140.04 15.5046 140.04 16.6247C140.04 17.7447 139.788 18.6634 139.285 19.2172C138.782 19.7835 137.863 20.1485 136.541 20.3247L134.792 20.5134C132.489 20.7777 130.803 21.6335 129.733 23.1059C128.663 24.5784 128.122 26.4158 128.122 28.6181V42.2476C128.122 43.5061 127.77 44.4626 127.065 45.1422C126.36 45.8092 125.492 46.149 124.435 46.149C123.378 46.149 122.509 45.8092 121.83 45.1422C121.15 44.4752 120.81 43.5061 120.81 42.2476V17.1532C120.81 15.9451 121.15 15.0138 121.83 14.3594C122.509 13.705 123.352 13.3903 124.372 13.3903C125.391 13.3903 126.209 13.705 126.826 14.3342C127.455 14.9635 127.757 15.857 127.757 17.0274V19.6199C128.5 17.7196 129.595 16.2471 131.054 15.2026C132.514 14.158 134.138 13.5791 135.937 13.4533L136.755 13.3903C137.775 13.3023 138.568 13.5414 139.159 14.1077V14.0951Z" fill="#F95000"/>
<path d="M166.783 16.5745C169.023 18.7517 170.143 22.0615 170.143 26.504V42.2855C170.143 43.4433 169.778 44.362 169.061 45.029C168.331 45.696 167.337 46.0358 166.078 46.0358C164.908 46.0358 163.939 45.696 163.196 45.0039C162.454 44.3117 162.076 43.4056 162.076 42.2855V40.8634C161.309 42.5498 160.101 43.8586 158.452 44.8025C156.803 45.7464 154.89 46.2246 152.713 46.2246C150.536 46.2246 148.485 45.7967 146.672 44.9283C144.86 44.0726 143.438 42.877 142.394 41.3668C141.349 39.8566 140.833 38.1828 140.833 36.3202C140.833 33.992 141.45 32.1672 142.696 30.8206C143.941 29.4866 145.968 28.5176 148.762 27.9135C151.568 27.3094 155.432 27.0074 160.365 27.0074H162.064V25.5224C162.064 23.4081 161.586 21.8727 160.642 20.9037C159.698 19.9346 158.15 19.4438 156.023 19.4438C154.714 19.4438 153.38 19.6326 152.021 19.9976C150.662 20.3625 149.064 20.8911 147.201 21.5833C146.018 22.137 145.162 22.4265 144.621 22.4265C143.803 22.4265 143.136 22.1496 142.62 21.5833C142.104 21.0295 141.84 20.287 141.84 19.3809C141.84 18.651 142.029 18.0091 142.419 17.468C142.809 16.9268 143.451 16.4234 144.357 15.9452C145.942 15.1272 147.83 14.4854 150.02 14.0071C152.21 13.5289 154.374 13.2898 156.501 13.2898C161.12 13.2898 164.543 14.3847 166.783 16.5493V16.5745ZM159.937 38.2332C161.359 36.7859 162.076 34.9233 162.076 32.6454V31.2863H160.856C157.823 31.2863 155.469 31.4121 153.795 31.6764C152.122 31.9407 150.926 32.3937 150.196 33.0356C149.466 33.6774 149.114 34.5709 149.114 35.691C149.114 37.0753 149.617 38.208 150.637 39.0889C151.656 39.9699 152.915 40.4104 154.4 40.4104C156.665 40.4104 158.502 39.693 159.924 38.2457L159.937 38.2332Z" fill="#F95000"/>
<path d="M174.397 9.32548C173.617 8.58297 173.227 7.61393 173.227 6.41836C173.227 5.22279 173.617 4.25375 174.397 3.53641C175.177 2.81906 176.234 2.4541 177.556 2.4541C178.877 2.4541 179.884 2.81906 180.689 3.53641C181.482 4.25375 181.885 5.22279 181.885 6.41836C181.885 7.61393 181.495 8.59555 180.715 9.32548C179.934 10.068 178.877 10.433 177.556 10.433C176.234 10.433 175.177 10.068 174.397 9.32548ZM174.926 45.0919C174.246 44.4249 173.906 43.4558 173.906 42.1974V17.1407C173.906 15.8822 174.246 14.9384 174.926 14.2839C175.605 13.6295 176.473 13.3149 177.531 13.3149C178.588 13.3149 179.456 13.6421 180.161 14.2839C180.866 14.9384 181.218 15.8822 181.218 17.1407V42.1974C181.218 43.4558 180.866 44.4123 180.161 45.0919C179.456 45.7589 178.588 46.0987 177.531 46.0987C176.473 46.0987 175.605 45.7589 174.926 45.0919Z" fill="#F95000"/>
<path d="M209.333 13.8938C209.887 13.5037 210.478 13.3149 211.133 13.3149C212.064 13.3149 212.907 13.6547 213.662 14.3217C214.417 14.9887 214.782 15.8319 214.782 16.8261C214.782 17.3421 214.656 17.8707 214.417 18.3867L203.166 43.5188C202.801 44.3368 202.285 44.9661 201.618 45.4066C200.951 45.8345 200.209 46.061 199.403 46.061C198.598 46.061 197.893 45.847 197.188 45.4066C196.484 44.9661 195.943 44.3494 195.578 43.5188L184.264 18.3867C184.062 17.9588 183.962 17.4554 183.962 16.8891C183.962 15.8949 184.352 15.0517 185.145 14.3595C185.937 13.6673 186.844 13.3149 187.85 13.3149C189.31 13.3149 190.38 14.07 191.072 15.5928L199.592 35.6532L208.049 15.6557C208.376 14.8755 208.804 14.2966 209.358 13.9064L209.333 13.8938Z" fill="#F95000"/>
<path d="M245.779 37.8806C246.219 38.4344 246.446 39.1895 246.446 40.1459C246.446 41.4799 245.666 42.6 244.118 43.5061C242.695 44.3241 241.072 44.9785 239.272 45.4819C237.473 45.9853 235.749 46.2245 234.113 46.2245C229.154 46.2245 225.228 44.7646 222.333 41.8323C219.438 38.9 217.991 34.898 217.991 29.8011C217.991 26.5668 218.62 23.6974 219.879 21.2056C221.137 18.7012 222.912 16.7631 225.202 15.3913C227.493 14.0196 230.085 13.3274 232.98 13.3274C235.874 13.3274 238.165 13.9566 240.216 15.2025C242.268 16.4485 243.866 18.2229 244.999 20.5008C246.131 22.7913 246.697 25.4845 246.697 28.5804C246.697 30.4303 245.905 31.3616 244.306 31.3616H225.731C225.983 34.3317 226.801 36.5215 228.185 37.9184C229.569 39.3153 231.583 40.0201 234.226 40.0201C235.572 40.0201 236.755 39.8439 237.787 39.5041C238.819 39.1643 239.977 38.6861 241.286 38.082C242.544 37.3898 243.463 37.05 244.055 37.05C244.772 37.05 245.351 37.3269 245.791 37.8932L245.779 37.8806ZM228.021 21.0671C226.738 22.4515 225.97 24.4273 225.718 27.0198H239.952C239.864 24.3896 239.235 22.4011 238.064 21.042C236.894 19.6828 235.245 19.0032 233.156 19.0032C231.067 19.0032 229.305 19.6954 228.021 21.0671Z" fill="#F95000"/>
<g opacity="0.8">
<path d="M42.4438 18.3867H6.71514C3.05919 18.3867 0.095459 21.3476 0.095459 25.0001C0.095459 28.6526 3.05919 31.6135 6.71514 31.6135H42.4438C46.0997 31.6135 49.0635 28.6526 49.0635 25.0001C49.0635 21.3476 46.0997 18.3867 42.4438 18.3867Z" fill="#F95000"/>
</g>
<g opacity="0.8">
<path d="M20.4172 1.951L2.04093 20.3272C-0.544217 22.9124 -0.546209 27.1017 2.03648 29.6844C4.61917 32.2671 8.80853 32.2651 11.3937 29.68L29.7699 11.3037C32.3551 8.7186 32.3571 4.52924 29.7744 1.94655C27.1917 -0.63614 23.0023 -0.634148 20.4172 1.951Z" fill="#F95000"/>
</g>
<g opacity="0.8">
<path d="M25.1019 13.2394C28.7578 13.2394 31.7215 10.2756 31.7215 6.61969C31.7215 2.96373 28.7578 0 25.1019 0C21.4459 0 18.4822 2.96373 18.4822 6.61969C18.4822 10.2756 21.4459 13.2394 25.1019 13.2394Z" fill="#F95000"/>
</g>
<g opacity="0.8">
<path d="M28.7432 48.058L47.1195 29.6818C49.7046 27.0967 49.7066 22.9073 47.1239 20.3246C44.5412 17.7419 40.3519 17.7439 37.7667 20.3291L19.3905 38.7053C16.8053 41.2904 16.8034 45.4798 19.386 48.0625C21.9687 50.6452 26.1581 50.6432 28.7432 48.058Z" fill="#F95000"/>
</g>
<g opacity="0.8">
<path d="M24.0699 50.0126C27.7258 50.0126 30.6896 47.0488 30.6896 43.3929C30.6896 39.7369 27.7258 36.7732 24.0699 36.7732C20.4139 36.7732 17.4502 39.7369 17.4502 43.3929C17.4502 47.0488 20.4139 50.0126 24.0699 50.0126Z" fill="#F95000"/>
</g>
<g opacity="0.8">
<path d="M246.395 9.71569V3.9392H244.332V2.7688H249.844V3.9392H247.792V9.70311H246.395V9.71569Z" fill="#F95000"/>
<path d="M250.737 9.71569V2.7688H252.839L254.097 7.50074L255.343 2.7688H257.445V9.71569H256.136V4.25382L254.752 9.71569H253.405L252.033 4.25382V9.71569H250.725H250.737Z" fill="#F95000"/>
</g>
</g>
<defs>
<clipPath id="clip0_380_134">
<rect width="257.35" height="50" fill="white" transform="translate(0.095459)"/>
</clipPath>
</defs>
</svg>
