<svg width="126" height="80" viewBox="0 0 126 80" fill="none" xmlns="http://www.w3.org/2000/svg">
<g clip-path="url(#clip0_365_8)">
<path d="M104.692 21.0063V32.2724L114.425 37.9129L124.157 32.2724V21.0063L114.425 15.3657L104.692 21.0063Z" fill="#F81A20"/>
<path d="M99.7515 3.84515V11.5205L106.394 15.3656L113.036 11.5205V3.84515L106.394 0L99.7515 3.84515Z" fill="#F81A20"/>
<path d="M91.5566 14.7521V19.7493L95.8855 22.2479L100.199 19.7493V14.7521L95.8855 12.2385L91.5566 14.7521Z" fill="#F81A20"/>
<path d="M48.7908 68.9285H48.0444V76.8432H48.7908V68.9285Z" fill="#231F20"/>
<path d="M48.7908 67.2227H48.0444V67.8211H48.7908V67.2227Z" fill="#231F20"/>
<path d="M57.9558 76.8432H53.0597C52.0298 76.8432 51.1938 76.0053 51.1938 74.973V70.7987C51.1938 69.7663 52.0298 68.9285 53.0597 68.9285H57.9558C58.9857 68.9285 59.8216 69.7663 59.8216 70.7987V74.973C59.8216 76.0053 58.9857 76.8432 57.9558 76.8432ZM53.0597 69.6765C52.4477 69.6765 51.9402 70.1852 51.9402 70.7987V74.973C51.9402 75.5864 52.4477 76.0951 53.0597 76.0951H57.9558C58.5678 76.0951 59.0753 75.5864 59.0753 74.973V70.7987C59.0753 70.1852 58.5678 69.6765 57.9558 69.6765H53.0597Z" fill="#231F20"/>
<path d="M62.7473 80.0001H62.001V68.9285H68.9122C69.9421 68.9285 70.778 69.7663 70.778 70.7987V74.973C70.778 76.0053 69.9421 76.8432 68.9122 76.8432H62.7473V79.9851V80.0001ZM62.7473 76.1101H68.9122C69.5242 76.1101 70.0317 75.6014 70.0317 74.9879V70.8136C70.0317 70.2002 69.5242 69.6915 68.9122 69.6915H62.7473V76.1101Z" fill="#231F20"/>
<path d="M73.032 67.2227H72.2856V76.858H73.032V67.2227Z" fill="#231F20"/>
<path d="M80.9881 76.8432H80.2417V70.7987C80.2417 70.1852 79.7342 69.6765 79.1222 69.6765H72.2856V68.9285H79.1222C80.1522 68.9285 80.9881 69.7663 80.9881 70.7987V76.8432Z" fill="#231F20"/>
<path d="M91.3627 76.843H83.944C82.914 76.843 82.0781 76.0052 82.0781 74.9728V72.5041H90.6163V70.7835C90.6163 70.1701 90.1088 69.6614 89.4968 69.6614H82.0781V68.9133H89.4968C90.5268 68.9133 91.3627 69.7512 91.3627 70.7835V76.828V76.843ZM82.8245 73.2522V74.9728C82.8245 75.5862 83.332 76.0949 83.944 76.0949H90.6163V73.2522H82.8245Z" fill="#231F20"/>
<path d="M93.9895 76.8432H93.2432V70.7987C93.2432 69.7663 94.0791 68.9285 95.109 68.9285H99.4976V69.6765H95.109C94.497 69.6765 93.9895 70.1852 93.9895 70.7987V76.8432Z" fill="#231F20"/>
<path d="M108.379 76.8432H107.633V69.6765H101.871V76.8432H101.125V68.9285H108.379V76.8432Z" fill="#231F20"/>
<path d="M114.29 76.8432H113.544V70.7987C113.544 70.1852 113.036 69.6765 112.424 69.6765H107.633V68.9285H112.424C113.454 68.9285 114.29 69.7663 114.29 70.7987V76.8432Z" fill="#231F20"/>
<path d="M125.023 76.843H117.738C116.708 76.843 115.872 76.0051 115.872 74.9728V72.2797L124.261 72.5041V71.1576C124.261 70.5441 123.754 70.0354 123.142 70.0354H115.857V69.2874H123.142C124.172 69.2874 125.008 70.1252 125.008 71.1576V76.843H125.023ZM116.634 73.0427V74.9728C116.634 75.5862 117.141 76.0949 117.753 76.0949H124.291V73.2522L116.649 73.0577L116.634 73.0427Z" fill="#231F20"/>
<path d="M45.3426 71.4568C45.6262 71.1276 45.8053 70.7237 45.8053 70.2449V69.0929C45.8053 68.0605 44.9694 67.2227 43.9395 67.2227H35.7147L35.6699 76.8879H44.7157C45.7755 76.8879 46.6263 76.0351 46.6263 74.9728V73.2372C46.6263 72.3994 46.0889 71.7112 45.3426 71.4568ZM36.4611 67.9707H43.9395C44.5515 67.9707 45.059 68.4794 45.059 69.0929V70.2449C45.059 70.7835 44.656 71.2174 44.1484 71.3221H36.4611V67.9707ZM45.7904 74.9878C45.7904 75.5862 45.3127 76.065 44.7157 76.065H36.5058V72.16H44.7157C45.3127 72.16 45.7904 72.6388 45.7904 73.2372V74.9728V74.9878Z" fill="#231F20"/>
<path d="M54.5528 12.6875H46.6714V53.847C46.6714 57.8717 49.9255 61.1334 53.9408 61.1334H70.3157V56.1511H57.2695C55.7619 56.1511 54.5379 54.9243 54.5379 53.4131V29.5194H70.3157V24.5371H54.5379V12.6875H54.5528Z" fill="#1F1C1D"/>
<path d="M8.84628 24.5371V12.6875H0.964844V61.1334H8.84628V32.2574C8.84628 30.7462 10.0703 29.5194 11.5779 29.5194H32.8339C34.3415 29.5194 35.5655 30.7462 35.5655 32.2574V61.1334H43.447V31.8384C43.447 27.8137 40.1929 24.5521 36.1775 24.5521H8.84628V24.5371Z" fill="#1F1C1D"/>
<path d="M115.156 29.5193V24.5371H73.1069V37.4041C73.1069 41.4288 76.361 44.6905 80.3764 44.6905H104.543C106.051 44.6905 107.275 45.9173 107.275 47.4285V53.3981C107.275 54.9093 106.051 56.1361 104.543 56.1361H73.5846V61.1184H107.872C111.887 61.1184 115.141 57.8567 115.141 53.832V47.0095C115.141 42.9848 111.887 39.7232 107.872 39.7232H83.7051C82.1974 39.7232 80.9734 38.4963 80.9734 36.9852V29.5193H115.141H115.156Z" fill="#1F1C1D"/>
</g>
<defs>
<clipPath id="clip0_365_8">
<rect width="124.058" height="80" fill="white" transform="translate(0.964844)"/>
</clipPath>
</defs>
</svg>
