<svg width="213" height="60" viewBox="0 0 213 60" fill="none" xmlns="http://www.w3.org/2000/svg">
<g clip-path="url(#clip0_380_198)">
<path d="M33.326 7.37256C33.326 9.01663 33.2232 10.7463 33.0092 12.536C32.5724 16.3036 31.6733 20.3453 30.2776 24.4383C27.8457 31.5969 24.3521 37.7022 20.5587 41.9494C20.0878 42.4803 19.6168 42.9769 19.1373 43.4393C15.0956 47.4125 10.8313 49.2364 7.24348 48.0205C3.39019 46.7104 1.06109 42.1378 0.453125 35.8698L1.66905 35.4159C2.44827 38.4215 3.8954 40.5451 6.01899 41.4099C9.3842 42.78 13.7684 40.6992 18.0669 36.2551C18.2981 36.0239 18.5208 35.7841 18.7434 35.5358C22.4768 31.4513 26.1075 25.62 28.899 18.7697C29.5155 17.2627 30.0635 15.7642 30.5516 14.2828C31.2024 12.2876 31.7418 10.3267 32.17 8.42579L33.326 7.37256Z" fill="#EB140F"/>
<path d="M50.9825 0C51.0425 6.63622 50.0577 14.3685 47.9427 22.2806C42.668 42.0694 32.3583 55.5045 24.9086 52.2934C22.2198 51.1289 20.2761 47.9606 19.1372 43.4394C19.6167 42.977 20.0877 42.4804 20.5586 41.9495C21.3036 43.3795 22.2284 44.4242 23.3501 45.0064C29.8151 48.3802 40.1248 35.2448 46.3843 15.6615C48.0112 10.5666 49.21 5.53161 49.9721 0.822035L50.9825 0Z" fill="#EB140F"/>
<path d="M23.7698 17.1171C23.7527 20.1398 22.9563 23.6848 21.3465 27.2042C17.6987 35.1762 11.2423 39.98 6.94379 37.942C5.92481 37.4539 5.1199 36.6404 4.52906 35.553C4.04098 34.6539 3.69847 33.5749 3.51865 32.3676C2.97062 28.8996 3.69847 24.3356 5.77068 19.823C9.42702 11.8509 15.8749 7.04717 20.1734 9.0937C22.2542 10.0784 23.4444 12.4675 23.727 15.5929C23.7698 16.081 23.7869 16.5862 23.7784 17.1171H23.7698Z" fill="#565249"/>
<path d="M54.0396 39.038H55.6066C55.7436 42.9512 57.3106 44.835 59.5198 44.835C61.318 44.835 62.4654 43.9616 62.4654 40.3738V18.3244C62.4654 15.747 61.6348 14.6424 58.6464 14.5996V13.2209C62.3284 13.3151 63.8954 13.358 65.3682 13.358C66.841 13.358 68.408 13.3151 72.0901 13.2209V14.5996C69.1016 14.6424 68.271 15.747 68.271 18.3244V37.06C68.271 43.7304 64.7774 46.5904 58.9289 46.5904C57.3619 46.5904 55.1527 46.2222 54.0481 45.854V39.038H54.0396Z" fill="#535349"/>
<path d="M91.0397 12.613C100.981 12.613 109.775 19.5661 109.775 29.5932C109.775 38.5243 102.916 46.5819 91.6391 46.5819C81.6976 46.5819 72.9036 39.6289 72.9036 29.5932C72.9036 20.6621 79.7624 12.613 91.0397 12.613ZM92.8379 44.8351C95.7835 44.8351 102.968 43.0369 102.968 31.6226C102.968 22.6915 97.9071 14.3599 89.8495 14.3599C86.9038 14.3599 79.7196 16.1581 79.7196 27.5724C79.7196 36.5034 84.7803 44.8351 92.8379 44.8351Z" fill="#535349"/>
<path d="M145.962 14.5996C142.973 14.6424 142.186 15.747 142.143 18.3244L141.963 33.0954C141.869 39.8172 139.06 46.5819 128.939 46.5819C120.427 46.5819 113.937 42.8998 113.937 33.0525V18.3244C113.937 15.747 113.106 14.6424 110.118 14.5996V13.2209C113.8 13.358 115.367 13.358 116.84 13.358C118.312 13.358 119.879 13.358 123.561 13.2209V14.5996C120.573 14.6424 119.742 15.747 119.742 18.3244V34.2C119.742 41.1016 124.118 44.8351 129.273 44.8351C137.279 44.8351 140.131 39.6802 140.131 31.6739C140.131 29.0965 140.088 27.2555 140.036 25.2261L139.899 18.5556C139.857 15.7898 139.257 14.5996 135.892 14.5996V13.2209C137.596 13.2638 139.437 13.358 140.867 13.358C142.297 13.358 144.181 13.2638 145.979 13.2209V14.5996H145.962Z" fill="#535349"/>
<path d="M184.555 14.5998C181.104 14.6426 180.462 15.0622 178.475 19.943L167.609 46.3166H166.41L153.198 17.9222C151.913 15.1136 150.851 14.7025 148.685 14.6084V13.2297C151.862 13.3239 153.977 13.3667 156.049 13.3667C158.121 13.3667 160.236 13.3239 163.456 13.2297V14.6084H161.615C159.962 14.6084 159.217 15.2506 159.217 16.3552C159.217 16.8176 159.354 17.1858 160.964 20.7736L169.202 39.141L176.155 19.4892C176.566 18.2476 176.934 17.1858 176.934 16.3552C176.934 14.9252 175.692 14.6084 173.714 14.6084V13.2297C176.386 13.3239 177.859 13.3667 179.143 13.3667C180.428 13.3667 181.909 13.3239 184.529 13.2297V14.6084L184.555 14.5998Z" fill="#535349"/>
<path d="M187.295 44.6038C190.283 44.561 191.114 43.4564 191.114 40.879V18.3244C191.114 15.747 190.283 14.6424 187.295 14.5996V13.2209C188.862 13.2638 191.114 13.358 193.46 13.358C200.499 13.358 206.167 13.2638 210.449 13.2209L210.629 20.9532H209.156C208.42 16.5348 206.441 14.9678 200.918 14.9678H196.911V28.2659H200.456C204.643 28.2659 205.243 26.7503 205.568 23.8475H207.135C207.092 25.6457 207.041 27.3411 207.041 28.8139C207.041 30.9803 207.084 32.7271 207.135 34.5682H205.568C205.568 30.9289 204.421 30.0127 200.413 30.0127H196.92V40.9646C196.92 43.0797 197.793 44.2356 202.117 44.2356C206.81 44.2356 210.081 43.3622 211.185 37.5652H212.752C212.478 39.7744 212.059 43.6448 212.059 45.991C207.597 45.9482 201.749 45.854 194.522 45.854C190.977 45.854 188.22 45.9482 187.295 45.991V44.6124V44.6038Z" fill="#535349"/>
<path d="M190.069 59.6322V59.8463H185.933V59.6322H186.199C186.43 59.6322 186.61 59.5894 186.755 59.5124C186.858 59.461 186.935 59.3668 186.987 59.2384C187.029 59.1442 187.055 58.9044 187.055 58.5191V53.4242C187.055 53.0303 187.029 52.782 186.987 52.6792C186.944 52.5764 186.858 52.4908 186.73 52.4223C186.601 52.3452 186.421 52.311 186.199 52.311H185.933V52.0969H190.069V52.311H189.804C189.573 52.311 189.393 52.3538 189.247 52.4309C189.144 52.4823 189.067 52.5764 189.007 52.7049C188.965 52.7991 188.939 53.0388 188.939 53.4242V58.5191C188.939 58.913 188.965 59.1613 189.007 59.264C189.05 59.3668 189.144 59.4524 189.273 59.5209C189.401 59.5894 189.581 59.6322 189.804 59.6322H190.069Z" fill="#EB140F"/>
<path d="M192.981 54.4942V55.1878C193.263 54.8881 193.529 54.6741 193.786 54.537C194.043 54.4 194.317 54.3315 194.616 54.3315C194.967 54.3315 195.267 54.4257 195.498 54.6227C195.729 54.8111 195.884 55.0508 195.961 55.342C196.021 55.556 196.055 55.9756 196.055 56.5921V58.6729C196.055 59.0839 196.089 59.3408 196.166 59.4436C196.243 59.5463 196.397 59.6063 196.646 59.632V59.8375H193.88V59.632C194.085 59.6063 194.231 59.5206 194.325 59.3836C194.385 59.2894 194.419 59.0497 194.419 58.6729V56.2924C194.419 55.8557 194.402 55.5817 194.368 55.4618C194.334 55.3505 194.274 55.2563 194.188 55.1964C194.102 55.1365 194.008 55.1022 193.914 55.1022C193.58 55.1022 193.272 55.3334 192.981 55.8044V58.6644C192.981 59.0668 193.015 59.3151 193.092 59.4264C193.169 59.5292 193.306 59.5977 193.512 59.6234V59.8289H190.754V59.6234C190.986 59.5977 191.148 59.5292 191.242 59.4093C191.311 59.3237 191.345 59.0754 191.345 58.6644V55.6502C191.345 55.2478 191.311 54.9909 191.234 54.8967C191.157 54.8025 191.003 54.734 190.754 54.6997V54.4857H192.981V54.4942Z" fill="#EB140F"/>
<path d="M202.708 52.0967V58.2448C202.708 58.6558 202.717 58.9042 202.742 58.9812C202.777 59.1097 202.836 59.2039 202.922 59.2638C203.008 59.3238 203.162 59.3666 203.384 59.3751V59.5635L201.081 60.0002V59.1525C200.807 59.4779 200.559 59.7005 200.345 59.8204C200.131 59.9403 199.882 60.0002 199.608 60.0002C198.915 60.0002 198.358 59.692 197.956 59.084C197.63 58.5873 197.468 57.9794 197.468 57.2601C197.468 56.6864 197.57 56.1726 197.767 55.7188C197.973 55.265 198.247 54.9224 198.598 54.6827C198.949 54.4515 199.326 54.3316 199.737 54.3316C199.994 54.3316 200.233 54.383 200.43 54.4772C200.636 54.5799 200.85 54.7512 201.081 54.9995V53.3897C201.081 52.9787 201.064 52.7389 201.03 52.6533C200.987 52.542 200.91 52.4649 200.816 52.405C200.721 52.3536 200.55 52.3279 200.293 52.3279V52.0881H202.717L202.708 52.0967ZM201.072 55.7188C200.781 55.1793 200.43 54.9053 200.019 54.9053C199.874 54.9053 199.754 54.9396 199.66 55.0166C199.514 55.1365 199.394 55.342 199.309 55.6417C199.214 55.9414 199.172 56.3953 199.172 57.0032C199.172 57.6797 199.223 58.1763 199.326 58.5017C199.428 58.8271 199.565 59.0583 199.737 59.2039C199.822 59.2724 199.951 59.3152 200.105 59.3152C200.447 59.3152 200.773 59.0497 201.072 58.5274V55.7188Z" fill="#EB140F"/>
<path d="M206.176 54.4942V58.7242C206.176 59.101 206.219 59.3408 206.313 59.4435C206.407 59.5463 206.578 59.6062 206.835 59.6233V59.8289H203.89V59.6233C204.129 59.6233 204.309 59.5463 204.429 59.4178C204.506 59.3322 204.549 59.101 204.549 58.7242V55.6074C204.549 55.2306 204.506 54.9908 204.412 54.8881C204.318 54.7853 204.147 54.7254 203.89 54.7083V54.4942H206.176ZM205.362 51.9082C205.611 51.9082 205.825 51.9938 206.005 52.1651C206.176 52.3363 206.27 52.5504 206.27 52.7902C206.27 53.0299 206.184 53.244 206.005 53.4153C205.825 53.5865 205.611 53.6722 205.362 53.6722C205.114 53.6722 204.9 53.5865 204.729 53.4153C204.549 53.244 204.463 53.0385 204.463 52.7902C204.463 52.5419 204.549 52.3363 204.729 52.1651C204.9 51.9938 205.114 51.9082 205.362 51.9082Z" fill="#EB140F"/>
<path d="M210.38 59.0497C209.712 59.6234 209.113 59.9145 208.591 59.9145C208.282 59.9145 208.017 59.8118 207.811 59.6148C207.606 59.4179 207.503 59.161 207.503 58.8613C207.503 58.4503 207.683 58.0906 208.043 57.7567C208.402 57.4313 209.181 56.9946 210.38 56.4551V55.9157C210.38 55.5132 210.355 55.2563 210.312 55.1536C210.269 55.0508 210.183 54.9566 210.055 54.8796C209.926 54.8025 209.789 54.7597 209.635 54.7597C209.378 54.7597 209.173 54.8111 209.01 54.9224C208.907 54.9909 208.856 55.0679 208.856 55.1621C208.856 55.2392 208.907 55.342 209.019 55.4618C209.164 55.6245 209.241 55.7872 209.241 55.9328C209.241 56.1212 209.173 56.2753 209.027 56.4123C208.882 56.5493 208.702 56.6093 208.471 56.6093C208.222 56.6093 208.017 56.5408 207.854 56.3952C207.692 56.2496 207.606 56.0784 207.606 55.89C207.606 55.616 207.717 55.3505 207.94 55.1022C208.163 54.8539 208.471 54.6655 208.865 54.5285C209.259 54.3915 209.678 54.3315 210.106 54.3315C210.62 54.3315 211.031 54.4343 211.331 54.6569C211.63 54.871 211.827 55.1022 211.922 55.3591C211.973 55.5218 212.007 55.89 212.007 56.4637V58.5359C212.007 58.7842 212.016 58.9298 212.033 58.9983C212.05 59.0582 212.084 59.1096 212.119 59.1353C212.161 59.1696 212.204 59.1781 212.256 59.1781C212.358 59.1781 212.461 59.1096 212.564 58.9641L212.744 59.1011C212.547 59.3836 212.35 59.5891 212.136 59.7176C211.93 59.846 211.69 59.906 211.425 59.906C211.117 59.906 210.868 59.8375 210.697 59.6919C210.517 59.5463 210.415 59.3323 210.372 59.0411L210.38 59.0497ZM210.38 58.6301V56.8405C209.909 57.1145 209.558 57.397 209.327 57.7053C209.173 57.9108 209.096 58.1163 209.096 58.3304C209.096 58.5102 209.156 58.6558 209.284 58.7928C209.378 58.8956 209.515 58.9469 209.695 58.9469C209.892 58.9469 210.115 58.8442 210.372 58.6301H210.38Z" fill="#EB140F"/>
<path d="M183.818 58.9382H54.0396V60H183.818V58.9382Z" fill="#EB140F"/>
</g>
<defs>
<clipPath id="clip0_380_198">
<rect width="212.299" height="60" fill="white" transform="translate(0.453125)"/>
</clipPath>
</defs>
</svg>
