<?xml version="1.0" encoding="utf-8"?>
<!-- Generator: Adobe Illustrator 27.3.1, SVG Export Plug-In . SVG Version: 6.00 Build 0)  -->
<svg version="1.1" id="Layer_1" xmlns="http://www.w3.org/2000/svg" xmlns:xlink="http://www.w3.org/1999/xlink" x="0px" y="0px"
	 viewBox="0 0 606.6 300" style="enable-background:new 0 0 606.6 300;" xml:space="preserve">
<style type="text/css">
	.st0{fill:#A31D21;}
	.st1{fill:#F05822;}
	.st2{fill:url(#SVGID_1_);}
	.st3{fill:url(#SVGID_00000001660659687471267720000006556126910582449072_);}
	.st4{fill:url(#SVGID_00000154397217154917188520000001336668704790020494_);}
</style>
<g>
	<path class="st0" d="M287.2,257.6v-36.8h7.4v36.8H287.2z M304.2,257.6v-36.8h6.5l22.7,27.1v-27.1h7.3v36.8h-6.5l-22.7-27v27H304.2z
		 M350.3,257.6v-36.8h29.6v4.9h-22.2v11.1h19.7v4.8h-19.7v16H350.3z M410.1,258.2c-6.9,0-12.1-1.5-15.5-4.6
		c-3.4-3.1-5.1-7.8-5.1-14.3c0-6.7,1.7-11.6,5.1-14.6c3.4-3,8.6-4.5,15.5-4.5c6.9,0,12.1,1.5,15.5,4.5s5.1,7.9,5.1,14.6
		c0,6.4-1.7,11.2-5.1,14.3C422.2,256.6,417.1,258.2,410.1,258.2z M410.1,252.9c4.6,0,7.9-1.1,10-3.2c2.1-2.1,3.2-5.6,3.2-10.4
		c0-5.1-1.1-8.7-3.2-10.7c-2.1-2-5.5-3.1-10-3.1c-4.5,0-7.8,1-10,3.1c-2.1,2-3.2,5.6-3.2,10.7c0,4.8,1.1,8.3,3.2,10.4
		C402.3,251.8,405.6,252.9,410.1,252.9z M454.9,258.2c-5.6,0-10.2-0.6-13.6-1.8v-5.5c1.9,0.6,4,1.1,6.3,1.5c2.2,0.4,4.5,0.6,6.7,0.6
		c3.5,0,6.1-0.3,7.8-1c1.7-0.7,2.6-2.1,2.6-4.1c0-1.3-0.4-2.3-1.1-3c-0.7-0.8-1.9-1.4-3.6-2c-1.7-0.6-4-1.1-6.9-1.7
		c-4.7-1-8-2.3-9.9-3.9c-1.9-1.6-2.8-3.8-2.8-6.5c0-3.2,1.4-5.8,4.2-7.6c2.8-1.8,7-2.7,12.5-2.7c2.5,0,4.9,0.2,7.1,0.5
		c2.2,0.3,4,0.6,5.2,1v5.5c-3.4-1.1-7.2-1.7-11.4-1.7c-3.2,0-5.8,0.4-7.6,1.1c-1.8,0.7-2.7,2-2.7,3.9c0,1.1,0.3,2,0.9,2.7
		c0.6,0.7,1.7,1.3,3.3,1.8c1.6,0.5,3.7,1,6.5,1.7c3.6,0.8,6.3,1.7,8.3,2.7c2,1,3.3,2.3,4.1,3.7c0.8,1.4,1.2,3,1.2,4.7
		c0,3.2-1.4,5.8-4.3,7.6C465,257.2,460.7,258.2,454.9,258.2z M481.7,257.6v-36.8H512v4.9h-23v11.1h20.5v4.8H489v11.2h23v4.8H481.7z
		 M521.6,257.6v-36.8h20c4.9,0,8.4,1.1,10.7,3.2c2.2,2.1,3.3,5,3.3,8.6c0,2.6-0.8,4.8-2.3,6.6s-3.7,3.1-6.6,3.8
		c0.8,0.5,1.4,1,1.9,1.6c0.5,0.6,0.9,1.3,1.4,2.3l5.5,10.7h-7.6l-5.3-10.3c-0.5-1-1.1-1.7-1.8-2.1c-0.7-0.4-1.9-0.6-3.6-0.6H529v13
		H521.6z M529,239.5h10.7c2.7,0,4.8-0.6,6.3-1.7s2.3-2.9,2.3-5.3c0-4.6-2.6-6.9-7.9-6.9H529V239.5z M581.8,257.6l-16.6-36.8h7.6
		l13,30.1l13.1-30.1h7.6l-16.5,36.8H581.8z"/>
	<g>
		<path class="st1" d="M219,197.3c-14.3,0-25.3-4-32.8-12c-7.5-8-11.3-19.1-11.3-33.4c0-14.9,3.7-26.4,11-34.6
			c7.3-8.1,18.3-12.2,32.9-12.2c5,0,9.5,0.4,13.4,1.3c3.9,0.8,7.7,1.9,11.4,3.3v19.6c-7.4-3.3-15.1-5-23.3-5
			c-8.5,0-14.7,2.2-18.6,6.7c-3.9,4.4-5.9,11.4-5.9,21c0,9.1,2.1,15.7,6.2,20c4.2,4.3,10.3,6.4,18.6,6.4c4,0,7.9-0.4,11.8-1.2
			c3.9-0.8,7.7-2,11.3-3.7v19.7c-3.6,1.3-7.3,2.3-11.3,3.1C228.5,196.9,224,197.3,219,197.3z"/>
	</g>
	<g>
		<path class="st1" d="M306.1,166.5c-0.7-1.2-1.7-2.4-2.9-3.4c4.8-2.2,8.7-5.6,11.5-10.1c2.8-4.5,4.2-9.8,4.2-15.8
			c0-9.4-2.3-16.8-6.9-22.4c-4.6-5.6-11.7-8.3-21.4-8.3h-41v89.5h20.5v-28.3h9.4c2.2,0,3.9,0.4,5.1,1.3c1.2,0.9,2.2,2.3,2.9,4.2
			l9.2,22.8h21.4l-9.7-24.2C307.7,169.5,306.9,167.7,306.1,166.5z M294.7,147c-2.3,2.2-5.4,3.3-9.4,3.3h-15.1v-26.7h16
			c7.9,0,11.8,4.5,11.8,13.5C298.1,141.5,296.9,144.9,294.7,147z"/>
	</g>
	<g>
		<polygon class="st1" points="324.8,195.9 324.8,106.4 385.3,106.4 385.3,123.6 345.3,123.6 345.3,142.4 380.6,142.4 380.6,159.9 
			345.3,159.9 345.3,178.6 385.3,178.6 385.3,195.9 		"/>
	</g>
	<g>
		<path class="st1" d="M419.8,197.3c-5.4,0-10.5-0.4-15.2-1.3s-8.8-2.2-12.2-3.8v-19c3.7,1.8,7.9,3.2,12.4,4.3
			c4.5,1.1,8.8,1.7,12.9,1.7c5.1,0,8.9-0.5,11.4-1.5c2.5-1,3.8-3.2,3.8-6.7c0-2.3-0.6-4.2-1.8-5.6c-1.2-1.4-3.2-2.6-6-3.7
			c-2.8-1.1-6.5-2.3-11.3-3.8c-5.6-1.9-10.1-3.9-13.4-6.2c-3.3-2.3-5.7-5-7.1-8.3c-1.4-3.2-2.2-7.2-2.2-11.9c0-8.5,2.8-15,8.4-19.6
			c5.6-4.5,13.9-6.8,24.8-6.8c4.7,0,9.4,0.4,13.9,1.2c4.5,0.8,8.1,1.7,10.9,2.7v19.2c-3.6-1.6-7.3-2.7-11-3.5
			c-3.7-0.7-7.3-1.1-10.8-1.1c-4.6,0-8.3,0.5-11.1,1.4c-2.8,0.9-4.3,3.1-4.3,6.4c0,1.9,0.5,3.5,1.5,4.7c1,1.2,2.8,2.2,5.3,3.1
			s5.9,2,10.2,3.3c6.7,1.9,11.8,4.3,15.4,7c3.6,2.7,6,5.9,7.4,9.4c1.4,3.6,2,7.6,2,12c0,7.9-2.8,14.2-8.4,19.1
			C439.9,194.8,431.4,197.3,419.8,197.3z"/>
	</g>
	<g>
		<path class="st1" d="M531.1,115.9c-7-7.2-17.1-10.8-30.4-10.8c-13.3,0-23.5,3.6-30.4,10.8c-7,7.2-10.4,19.1-10.4,35.7
			c0,15.7,3.5,27.2,10.4,34.6c7,7.4,17.1,11.1,30.4,11.1c13.3,0,23.5-3.7,30.4-11.1c7-7.4,10.4-18.9,10.4-34.6
			C541.5,135,538,123.1,531.1,115.9z M515.8,171.8c-3.2,4.3-8.2,6.5-15.1,6.5c-7,0-12-2.2-15.2-6.5c-3.2-4.3-4.8-11-4.8-20.2
			c0-10,1.6-17.1,4.8-21.2c3.2-4.1,8.2-6.2,15.2-6.2c6.9,0,11.9,2.1,15.1,6.2c3.2,4.1,4.8,11.2,4.8,21.2
			C520.5,160.7,518.9,167.5,515.8,171.8z"/>
	</g>
	<g>
		<polygon class="st1" points="547.4,195.9 547.4,106.4 567.9,106.4 567.9,178.6 606.6,178.6 606.6,195.9 		"/>
	</g>
	<linearGradient id="SVGID_1_" gradientUnits="userSpaceOnUse" x1="121.7088" y1="1.3254" x2="66.8842" y2="186.5108">
		<stop  offset="0" style="stop-color:#F05822"/>
		<stop  offset="1" style="stop-color:#A31D21"/>
	</linearGradient>
	<path class="st2" d="M141.4,218.9C14.7,213.2,0,150,0,150c0-29.7,8.7-57.5,23.8-80.7C50.2,28.2,96.5,1,149,1h11
		C36.6,37.5,79.7,150,79.7,150C79.7,185.7,106.7,215.1,141.4,218.9z"/>
	
		<linearGradient id="SVGID_00000078733143929625257350000014764360848233412527_" gradientUnits="userSpaceOnUse" x1="72.4328" y1="75.4862" x2="270.0285" y2="75.4862">
		<stop  offset="0" style="stop-color:#981B1E"/>
		<stop  offset="0.2719" style="stop-color:#B02341"/>
		<stop  offset="0.7641" style="stop-color:#D8317C"/>
		<stop  offset="1" style="stop-color:#E83793"/>
	</linearGradient>
	<path style="fill:url(#SVGID_00000078733143929625257350000014764360848233412527_);" d="M160.1,1v79.7h-11
		c-38.3,0-69.3,31-69.3,69.3C79.7,150,36.6,37.5,160.1,1z M270,80.7V1h-15.3c-44,0-79.7,35.7-79.7,79.7v0H270z"/>
	
		<linearGradient id="SVGID_00000099642558853774102410000016097594772353562039_" gradientUnits="userSpaceOnUse" x1="0" y1="224.5138" x2="269.9771" y2="224.5138">
		<stop  offset="0" style="stop-color:#F05C22"/>
		<stop  offset="1" style="stop-color:#E83793"/>
	</linearGradient>
	<path style="fill:url(#SVGID_00000099642558853774102410000016097594772353562039_);" d="M160.2,219.3V299H149
		c-52.6,0-98.8-27.3-125.2-68.3C8.7,207.5,0,179.7,0,150c0,0,14.7,63.2,141.4,68.9c2.5,0.3,5,0.4,7.6,0.4H160.2z M270,299v-79.7h-95
		V299H270z"/>
</g>
</svg>
