<svg width="1650" height="846" viewBox="0 0 1650 846" fill="none" xmlns="http://www.w3.org/2000/svg">
<rect x="826.64" y="297.36" width="74.72" height="74.72" rx="7.92" transform="rotate(-90 826.64 297.36)" stroke="url(#paint0_linear_804_635)" stroke-width="5.28"/>
<rect x="986.64" y="222.64" width="74.72" height="74.72" rx="7.92" stroke="url(#paint1_linear_804_635)" stroke-width="5.28"/>
<rect x="76.64" y="189.36" width="74.72" height="74.72" rx="7.92" transform="rotate(-90 76.64 189.36)" stroke="url(#paint2_linear_804_635)" stroke-width="5.28"/>
<rect x="981.36" y="302.64" width="74.72" height="74.72" rx="7.92" transform="rotate(90 981.36 302.64)" stroke="url(#paint3_linear_804_635)" stroke-width="5.28"/>
<rect x="1119.64" y="297.36" width="74.72" height="74.72" rx="7.92" transform="rotate(-90 1119.64 297.36)" stroke="url(#paint4_linear_804_635)" stroke-width="5.28"/>
<rect x="1279.64" y="222.64" width="74.72" height="74.72" rx="7.92" stroke="url(#paint5_linear_804_635)" stroke-width="5.28"/>
<rect x="1061.36" y="382.64" width="74.72" height="74.72" rx="7.92" transform="rotate(90 1061.36 382.64)" stroke="url(#paint6_linear_804_635)" stroke-width="5.28"/>
<rect x="901.36" y="457.36" width="74.72" height="74.72" rx="7.92" transform="rotate(-180 901.36 457.36)" stroke="url(#paint7_linear_804_635)" stroke-width="5.28"/>
<rect x="1274.36" y="302.64" width="74.72" height="74.72" rx="7.92" transform="rotate(90 1274.36 302.64)" stroke="url(#paint8_linear_804_635)" stroke-width="5.28"/>
<rect x="1412.64" y="297.36" width="74.72" height="74.72" rx="7.92" transform="rotate(-90 1412.64 297.36)" stroke="url(#paint9_linear_804_635)" stroke-width="5.28"/>
<rect x="1572.64" y="222.64" width="74.72" height="74.72" rx="7.92" stroke="url(#paint10_linear_804_635)" stroke-width="5.28"/>
<rect x="1567.36" y="302.64" width="74.72" height="74.72" rx="7.92" transform="rotate(90 1567.36 302.64)" stroke="url(#paint11_linear_804_635)" stroke-width="5.28"/>
<rect x="323.64" y="98.36" width="74.72" height="74.72" rx="7.92" transform="rotate(-90 323.64 98.36)" stroke="url(#paint12_linear_804_635)" stroke-width="5.28"/>
<rect x="550.64" y="57.64" width="74.72" height="74.72" rx="7.92" stroke="url(#paint13_linear_804_635)" stroke-width="5.28"/>
<rect x="1354.36" y="382.64" width="74.72" height="74.72" rx="7.92" transform="rotate(90 1354.36 382.64)" stroke="url(#paint14_linear_804_635)" stroke-width="5.28"/>
<rect x="1194.36" y="457.36" width="74.72" height="74.72" rx="7.92" transform="rotate(-180 1194.36 457.36)" stroke="url(#paint15_linear_804_635)" stroke-width="5.28"/>
<rect x="843.64" y="23.64" width="74.72" height="74.72" rx="7.92" stroke="url(#paint16_linear_804_635)" stroke-width="5.28"/>
<rect x="1487.36" y="457.36" width="74.72" height="74.72" rx="7.92" transform="rotate(-180 1487.36 457.36)" stroke="url(#paint17_linear_804_635)" stroke-width="5.28"/>
<rect x="1213" y="316" width="47.409" height="47.409" rx="8.42826" fill="white"/>
<path d="M1224.5 327.342C1224.5 323.949 1227.28 321.196 1230.7 321.196H1236.91V333.487H1230.7C1227.28 333.487 1224.5 330.734 1224.5 327.342Z" fill="#F24E1E"/>
<path d="M1236.91 321.196H1243.11C1246.54 321.196 1249.32 323.949 1249.32 327.342C1249.32 330.734 1246.54 333.487 1243.11 333.487H1236.91V321.196Z" fill="#FF7262"/>
<path d="M1224.5 339.633C1224.5 336.24 1227.28 333.487 1230.7 333.487H1236.91V345.778H1230.7C1227.28 345.778 1224.5 343.025 1224.5 339.633Z" fill="#A259FF"/>
<path d="M1249.32 339.633C1249.32 343.025 1246.54 345.778 1243.11 345.778C1239.69 345.778 1236.91 343.025 1236.91 339.633C1236.91 336.24 1239.69 333.487 1243.11 333.487C1246.54 333.487 1249.32 336.24 1249.32 339.633Z" fill="#1ABCFE"/>
<path d="M1230.7 358.07C1234.13 358.07 1236.91 355.316 1236.91 351.924V345.778H1230.7C1227.28 345.778 1224.5 348.532 1224.5 351.924C1224.5 355.316 1227.28 358.07 1230.7 358.07Z" fill="#0ACF83"/>
<rect x="1133" y="397" width="47.409" height="47.409" rx="8.42826" fill="white"/>
<path d="M1168.87 403H1143.52C1140.04 403 1137.21 405.811 1137.21 409.279V433.595C1137.21 437.063 1140.04 439.874 1143.52 439.874H1168.87C1172.35 439.874 1175.17 437.063 1175.17 433.595V409.279C1175.17 405.811 1172.35 403 1168.87 403Z" fill="#330000"/>
<path d="M1155.61 425.093H1149.73L1148.53 428.791C1148.51 428.859 1148.47 428.918 1148.42 428.96C1148.36 429.002 1148.29 429.023 1148.22 429.019H1145.24C1145.07 429.019 1145.02 428.926 1145.07 428.741L1150.16 414.151C1150.21 413.999 1150.26 413.826 1150.31 413.632C1150.38 413.293 1150.41 412.95 1150.41 412.606C1150.41 412.582 1150.41 412.557 1150.42 412.534C1150.43 412.511 1150.44 412.49 1150.46 412.473C1150.48 412.455 1150.5 412.443 1150.52 412.435C1150.54 412.427 1150.57 412.425 1150.59 412.428H1154.64C1154.76 412.428 1154.83 412.471 1154.84 412.555L1160.62 428.766C1160.68 428.935 1160.62 429.02 1160.47 429.019H1157.16C1157.1 429.026 1157.05 429.011 1157 428.978C1156.95 428.946 1156.92 428.897 1156.91 428.842L1155.61 425.093ZM1150.64 421.902H1154.67L1154.61 421.713L1154.52 421.415L1154.45 421.206L1154.35 420.876L1154.12 420.182L1153.93 419.566L1153.42 417.963C1153.29 417.564 1153.17 417.164 1153.05 416.763L1152.96 416.437L1152.85 416.051L1152.69 415.454L1152.65 415.341H1152.63C1152.5 415.949 1152.35 416.551 1152.16 417.145L1151.79 418.354L1151.58 419.022L1151.37 419.698C1151.33 419.82 1151.29 419.941 1151.26 420.06L1151.14 420.414L1151.03 420.759L1150.92 421.096L1150.81 421.425C1150.77 421.533 1150.73 421.639 1150.7 421.745L1150.64 421.902ZM1164.06 415.113C1163.8 415.124 1163.54 415.079 1163.3 414.983C1163.06 414.887 1162.84 414.742 1162.66 414.556C1162.48 414.362 1162.34 414.135 1162.25 413.887C1162.16 413.639 1162.12 413.376 1162.13 413.112C1162.12 412.851 1162.16 412.591 1162.26 412.349C1162.36 412.106 1162.51 411.888 1162.7 411.707C1163.07 411.358 1163.55 411.162 1164.06 411.161L1164.11 411.162C1164.72 411.162 1165.2 411.343 1165.55 411.706C1165.73 411.895 1165.86 412.116 1165.95 412.358C1166.04 412.599 1166.08 412.855 1166.07 413.112C1166.08 413.377 1166.04 413.641 1165.95 413.89C1165.85 414.138 1165.71 414.364 1165.53 414.556C1165.34 414.738 1165.12 414.881 1164.88 414.977C1164.64 415.073 1164.38 415.12 1164.12 415.115L1164.06 415.113ZM1162.3 428.766V416.658C1162.3 416.507 1162.37 416.43 1162.51 416.43H1165.64C1165.78 416.43 1165.84 416.506 1165.84 416.658V428.766C1165.84 428.935 1165.78 429.02 1165.64 429.019H1162.53C1162.39 429.019 1162.31 428.944 1162.31 428.792L1162.3 428.766Z" fill="#FF9A00"/>
<rect x="1000" y="397" width="47.409" height="47.409" rx="8.42826" fill="white"/>
<path d="M1010.33 435.455L1007.37 402.268H1039.89L1036.93 435.45L1023.61 439.141L1010.33 435.455Z" fill="#E44F26"/>
<path d="M1023.63 436.322L1034.39 433.339L1036.92 404.983H1023.63V436.322Z" fill="#F1662A"/>
<path d="M1023.63 417.291H1018.25L1017.87 413.123H1023.63V409.052H1013.43L1013.52 410.145L1014.52 421.361H1023.63V417.291ZM1023.63 427.861L1023.61 427.867L1019.08 426.643L1018.79 423.397H1014.7L1015.27 429.787L1023.61 432.102L1023.63 432.097V427.861Z" fill="#EBEBEB"/>
<path d="M1023.62 417.291V421.361H1028.63L1028.16 426.641L1023.62 427.865V432.101L1031.96 429.787L1032.02 429.099L1032.98 418.384L1033.08 417.291H1023.62ZM1023.62 409.052V413.123H1033.45L1033.53 412.209L1033.72 410.145L1033.81 409.052H1023.62Z" fill="white"/>
<rect x="1425" y="236" width="47.409" height="47.409" rx="8.42826" fill="white"/>
<path d="M1448.61 278.141L1435.33 274.455L1432.37 241.268H1464.89L1461.93 274.45L1448.61 278.141Z" fill="#264DE4"/>
<path d="M1459.39 272.339L1461.92 243.983H1448.63V275.321L1459.39 272.339Z" fill="#2965F1"/>
<path d="M1439.16 256.292L1439.52 260.362H1448.63V256.292H1439.16ZM1438.42 248.053L1438.79 252.124H1448.63V248.053H1438.42ZM1448.63 266.863L1448.61 266.868L1444.08 265.644L1443.79 262.397H1439.7L1440.27 268.788L1448.61 271.103L1448.63 271.098V266.863Z" fill="#EBEBEB"/>
<path d="M1458.08 256.292L1458.81 248.053H1448.62V252.124H1454.35L1453.98 256.292H1448.62V260.362H1453.63L1453.16 265.641L1448.62 266.866V271.101L1456.96 268.788L1457.02 268.101L1457.98 257.385L1458.08 256.292Z" fill="white"/>
<rect x="1294" y="397" width="47.409" height="47.409" rx="8.42826" fill="white"/>
<path d="M1329.9 403H1304.52C1301.04 403 1298.21 405.811 1298.21 409.279V433.595C1298.21 437.063 1301.04 439.874 1304.52 439.874H1329.9C1333.38 439.874 1336.2 437.063 1336.2 433.595V409.279C1336.2 405.811 1333.38 403 1329.9 403Z" fill="#001E36"/>
<path d="M1306.77 428.817V412.631C1306.77 412.513 1306.82 412.454 1306.92 412.454L1307.08 412.453L1307.36 412.45L1307.74 412.443L1309.02 412.416L1310.4 412.39C1310.88 412.382 1311.36 412.378 1311.84 412.378C1313.13 412.378 1314.22 412.538 1315.1 412.859C1315.9 413.127 1316.63 413.568 1317.23 414.151C1317.74 414.656 1318.14 415.265 1318.39 415.937C1318.63 416.59 1318.75 417.28 1318.75 417.976C1318.75 419.327 1318.43 420.441 1317.8 421.319C1317.19 422.176 1316.33 422.831 1315.34 423.201L1315.26 423.232C1314.22 423.615 1313.07 423.754 1311.82 423.763L1311.62 423.763L1311.33 423.762L1311.19 423.76L1311.02 423.756L1310.93 423.752L1310.87 423.749L1310.72 423.743L1310.54 423.74L1310.27 423.738L1310.21 423.738V428.791C1310.21 428.822 1310.21 428.854 1310.2 428.884C1310.19 428.913 1310.17 428.94 1310.15 428.962C1310.13 428.985 1310.1 429.001 1310.07 429.011C1310.04 429.021 1310.01 429.024 1309.98 429.019H1306.95C1306.83 429.019 1306.77 428.952 1306.77 428.817ZM1310.21 415.493V420.772C1310.41 420.789 1310.62 420.797 1310.82 420.798H1311.66C1312.24 420.796 1312.82 420.71 1313.37 420.543L1313.48 420.509C1313.99 420.36 1314.44 420.069 1314.78 419.673C1315.1 419.298 1315.27 418.782 1315.28 418.125L1315.28 418.052C1315.29 417.562 1315.17 417.078 1314.91 416.658C1314.64 416.253 1314.26 415.939 1313.8 415.759C1313.21 415.53 1312.58 415.423 1311.94 415.443L1311.62 415.444L1311.42 415.445L1311.22 415.448L1310.95 415.453L1310.75 415.459L1310.64 415.463L1310.5 415.469L1310.38 415.476L1310.32 415.482L1310.26 415.487L1310.23 415.49L1310.21 415.493ZM1328.6 419.812C1328.16 419.585 1327.68 419.415 1327.2 419.305L1327.08 419.281C1326.55 419.158 1326 419.091 1325.45 419.08L1325.31 419.078C1324.99 419.069 1324.67 419.108 1324.36 419.192C1324.16 419.236 1323.98 419.348 1323.86 419.508C1323.78 419.637 1323.73 419.786 1323.73 419.939C1323.74 420.087 1323.79 420.23 1323.89 420.344C1324.02 420.502 1324.18 420.633 1324.37 420.733L1324.42 420.762C1324.78 420.957 1325.16 421.13 1325.54 421.281C1326.4 421.566 1327.21 421.953 1327.98 422.434C1328.49 422.759 1328.92 423.208 1329.22 423.739C1329.48 424.241 1329.6 424.798 1329.59 425.36C1329.61 426.102 1329.4 426.831 1328.98 427.449C1328.54 428.077 1327.92 428.565 1327.21 428.855C1326.46 429.182 1325.55 429.35 1324.46 429.361L1324.34 429.362C1323.67 429.369 1323 429.31 1322.33 429.187L1322.19 429.159C1321.63 429.057 1321.09 428.887 1320.57 428.653C1320.52 428.626 1320.48 428.586 1320.45 428.537C1320.41 428.488 1320.4 428.432 1320.39 428.374V425.613C1320.39 425.586 1320.4 425.559 1320.41 425.535C1320.42 425.51 1320.44 425.489 1320.46 425.474C1320.48 425.461 1320.51 425.456 1320.53 425.458C1320.56 425.46 1320.58 425.47 1320.6 425.486C1321.21 425.844 1321.87 426.104 1322.56 426.259C1323.17 426.411 1323.79 426.491 1324.42 426.5C1325.02 426.5 1325.45 426.423 1325.73 426.272C1325.86 426.214 1325.97 426.121 1326.04 426.004C1326.12 425.887 1326.16 425.751 1326.15 425.613C1326.15 425.394 1326.03 425.183 1325.77 424.98C1325.66 424.895 1325.51 424.802 1325.31 424.702L1325.22 424.656L1325.11 424.608L1325.06 424.584L1324.95 424.535C1324.93 424.526 1324.91 424.518 1324.89 424.51L1324.77 424.459L1324.71 424.433L1324.57 424.381L1324.51 424.354L1324.36 424.3L1324.22 424.245C1323.42 423.968 1322.66 423.585 1321.96 423.105C1321.46 422.761 1321.05 422.306 1320.76 421.775C1320.51 421.276 1320.39 420.725 1320.39 420.167C1320.39 419.497 1320.58 418.839 1320.93 418.267C1321.33 417.637 1321.91 417.136 1322.59 416.824C1323.33 416.452 1324.27 416.267 1325.39 416.266C1326.05 416.261 1326.7 416.308 1327.35 416.406C1327.82 416.465 1328.28 416.588 1328.72 416.773C1328.79 416.793 1328.84 416.844 1328.87 416.912C1328.89 416.974 1328.9 417.038 1328.9 417.102V419.661C1328.9 419.721 1328.87 419.779 1328.82 419.812C1328.79 419.829 1328.75 419.838 1328.71 419.838C1328.67 419.838 1328.63 419.829 1328.6 419.812Z" fill="#31A8FF"/>
<rect x="1000" y="237" width="47.409" height="47.409" rx="8.42826" fill="white"/>
<mask id="mask0_804_635" style="mask-type:alpha" maskUnits="userSpaceOnUse" x="1004" y="242" width="38" height="38">
<path fill-rule="evenodd" clip-rule="evenodd" d="M1030.5 278.984C1030.79 279.099 1031.11 279.152 1031.42 279.14C1031.74 279.127 1032.05 279.05 1032.34 278.913L1039.97 275.241C1040.36 275.052 1040.69 274.756 1040.92 274.386C1041.16 274.017 1041.28 273.59 1041.28 273.153V248.255C1041.28 247.819 1041.16 247.392 1040.92 247.022C1040.69 246.653 1040.36 246.357 1039.97 246.167L1032.34 242.496C1031.91 242.288 1031.42 242.22 1030.95 242.3C1030.48 242.381 1030.04 242.606 1029.7 242.944L1015.09 256.272L1008.73 251.442C1008.44 251.224 1008.09 251.113 1007.73 251.129C1007.37 251.145 1007.03 251.287 1006.76 251.529L1004.72 253.386C1004.56 253.53 1004.43 253.706 1004.35 253.903C1004.26 254.1 1004.21 254.312 1004.21 254.527C1004.21 254.742 1004.26 254.955 1004.35 255.152C1004.43 255.348 1004.56 255.525 1004.72 255.67L1010.24 260.704L1004.72 265.739C1004.56 265.884 1004.43 266.06 1004.35 266.257C1004.26 266.454 1004.21 266.666 1004.21 266.881C1004.21 267.096 1004.26 267.309 1004.35 267.505C1004.43 267.702 1004.56 267.878 1004.72 268.023L1006.76 269.879C1007.03 270.122 1007.37 270.263 1007.73 270.28C1008.09 270.296 1008.44 270.185 1008.73 269.967L1015.09 265.137L1029.7 278.465C1029.93 278.691 1030.2 278.868 1030.5 278.984ZM1032.02 252.29L1020.93 260.704L1032.02 269.119L1032.02 252.29Z" fill="white"/>
</mask>
<g mask="url(#mask0_804_635)">
<path d="M1039.97 246.173L1032.33 242.496C1031.9 242.288 1031.41 242.22 1030.94 242.3C1030.47 242.381 1030.03 242.606 1029.69 242.944L1004.69 265.739C1004.53 265.884 1004.41 266.06 1004.32 266.257C1004.23 266.454 1004.19 266.666 1004.19 266.881C1004.19 267.096 1004.23 267.309 1004.32 267.505C1004.41 267.702 1004.54 267.878 1004.7 268.023L1006.74 269.879C1007 270.122 1007.35 270.263 1007.71 270.279C1008.07 270.296 1008.42 270.185 1008.71 269.967L1038.82 247.127C1039.83 246.361 1041.28 247.081 1041.28 248.349V248.26C1041.28 247.824 1041.15 247.397 1040.92 247.028C1040.69 246.659 1040.36 246.363 1039.97 246.173Z" fill="#0065A9"/>
<g filter="url(#filter0_d_804_635)">
<path d="M1039.97 275.236L1032.33 278.913C1031.9 279.12 1031.41 279.189 1030.94 279.109C1030.47 279.028 1030.03 278.803 1029.7 278.465L1004.69 255.67C1004.54 255.525 1004.41 255.348 1004.32 255.152C1004.24 254.955 1004.19 254.742 1004.19 254.527C1004.19 254.312 1004.24 254.1 1004.32 253.903C1004.41 253.707 1004.54 253.531 1004.7 253.386L1006.74 251.529C1007.01 251.287 1007.35 251.145 1007.71 251.129C1008.07 251.113 1008.42 251.224 1008.71 251.442L1038.82 274.281C1039.83 275.048 1041.28 274.327 1041.28 273.06V273.148C1041.28 273.584 1041.16 274.012 1040.92 274.381C1040.69 274.75 1040.36 275.046 1039.97 275.236Z" fill="#007ACC"/>
</g>
<g filter="url(#filter1_d_804_635)">
<path d="M1032.33 278.913C1031.9 279.121 1031.41 279.189 1030.94 279.109C1030.47 279.028 1030.04 278.803 1029.7 278.465C1030.55 279.319 1032.01 278.714 1032.01 277.505V243.903C1032.01 242.694 1030.55 242.089 1029.7 242.944C1030.04 242.605 1030.47 242.38 1030.94 242.3C1031.41 242.22 1031.9 242.288 1032.33 242.495L1039.97 246.168C1040.36 246.357 1040.69 246.653 1040.92 247.022C1041.16 247.392 1041.28 247.819 1041.28 248.256V273.154C1041.28 273.59 1041.16 274.017 1040.92 274.387C1040.69 274.756 1040.36 275.052 1039.97 275.241L1032.33 278.913Z" fill="#1F9CF0"/>
</g>
<path opacity="0.25" fill-rule="evenodd" clip-rule="evenodd" d="M1030.47 278.984C1030.77 279.099 1031.08 279.152 1031.4 279.14C1031.72 279.127 1032.03 279.05 1032.31 278.913L1039.94 275.241C1040.34 275.052 1040.67 274.755 1040.9 274.386C1041.13 274.017 1041.25 273.589 1041.25 273.153V248.255C1041.25 247.819 1041.13 247.392 1040.9 247.022C1040.67 246.653 1040.34 246.357 1039.94 246.167L1032.31 242.496C1031.88 242.288 1031.4 242.22 1030.92 242.3C1030.45 242.381 1030.02 242.606 1029.68 242.944L1015.07 256.272L1008.71 251.442C1008.42 251.224 1008.07 251.113 1007.71 251.129C1007.35 251.145 1007 251.287 1006.74 251.529L1004.69 253.386C1004.54 253.531 1004.41 253.707 1004.32 253.903C1004.23 254.1 1004.19 254.313 1004.19 254.528C1004.19 254.743 1004.23 254.955 1004.32 255.152C1004.41 255.349 1004.53 255.525 1004.69 255.67L1010.21 260.704L1004.69 265.739C1004.53 265.884 1004.41 266.06 1004.32 266.257C1004.23 266.454 1004.19 266.666 1004.19 266.881C1004.19 267.096 1004.23 267.309 1004.32 267.505C1004.41 267.702 1004.54 267.878 1004.7 268.023L1006.74 269.879C1007 270.122 1007.35 270.263 1007.71 270.279C1008.07 270.295 1008.42 270.185 1008.71 269.967L1015.07 265.137L1029.68 278.465C1029.91 278.691 1030.18 278.868 1030.47 278.984ZM1031.99 252.29L1020.91 260.704L1031.99 269.118V252.29Z" fill="url(#paint18_linear_804_635)"/>
</g>
<rect x="1426" y="398" width="47.409" height="47.409" rx="8.42826" fill="white"/>
<path d="M1449.79 425.318C1451.92 425.318 1453.65 423.592 1453.65 421.464C1453.65 419.335 1451.92 417.609 1449.79 417.609C1447.66 417.609 1445.94 419.335 1445.94 421.464C1445.94 423.592 1447.66 425.318 1449.79 425.318Z" fill="#00D8FF"/>
<path d="M1449.79 413.627C1454.97 413.627 1459.78 414.37 1463.4 415.618C1467.77 417.121 1470.45 419.4 1470.45 421.464C1470.45 423.614 1467.61 426.036 1462.92 427.589C1459.37 428.764 1454.71 429.377 1449.79 429.377C1444.76 429.377 1439.99 428.802 1436.4 427.576C1431.87 426.026 1429.13 423.574 1429.13 421.464C1429.13 419.417 1431.7 417.156 1436 415.654C1439.64 414.386 1444.57 413.627 1449.79 413.627H1449.79Z" stroke="#00D8FF" stroke-width="2.77861"/>
<path d="M1442.97 417.568C1445.56 413.085 1448.6 409.292 1451.49 406.775C1454.98 403.743 1458.29 402.555 1460.08 403.586C1461.94 404.66 1462.62 408.335 1461.62 413.174C1460.87 416.833 1459.07 421.181 1456.62 425.436C1454.1 429.799 1451.22 433.643 1448.37 436.136C1444.76 439.292 1441.27 440.433 1439.44 439.38C1437.67 438.358 1436.99 435.007 1437.84 430.526C1438.56 426.741 1440.36 422.095 1442.97 417.568H1442.97Z" stroke="#00D8FF" stroke-width="2.77861"/>
<path d="M1442.98 425.448C1440.39 420.97 1438.62 416.437 1437.88 412.674C1437 408.141 1437.62 404.676 1439.41 403.642C1441.27 402.564 1444.79 403.814 1448.49 407.095C1451.28 409.575 1454.15 413.305 1456.61 417.557C1459.13 421.915 1461.02 426.331 1461.76 430.048C1462.69 434.751 1461.94 438.344 1460.11 439.401C1458.34 440.426 1455.1 439.341 1451.64 436.366C1448.72 433.853 1445.6 429.97 1442.98 425.448Z" stroke="#00D8FF" stroke-width="2.77861"/>
<rect x="1135" y="236" width="47.409" height="47.409" rx="8.42826" fill="white"/>
<g clip-path="url(#clip0_804_635)">
<path d="M1176.21 250.13C1176.23 250.178 1176.23 250.227 1176.23 250.277V257.991C1176.23 258.192 1176.13 258.378 1175.95 258.479L1169.41 262.206V269.595C1169.41 269.693 1169.39 269.791 1169.34 269.876C1169.29 269.962 1169.22 270.033 1169.13 270.083L1155.49 277.863C1155.46 277.88 1155.42 277.891 1155.39 277.903C1155.38 277.907 1155.37 277.915 1155.35 277.919C1155.26 277.944 1155.16 277.944 1155.06 277.919C1155.05 277.915 1155.03 277.906 1155.02 277.9C1154.99 277.889 1154.95 277.879 1154.92 277.863L1141.29 270.082C1141.2 270.033 1141.13 269.962 1141.08 269.876C1141.03 269.791 1141 269.694 1141 269.595V246.453C1141 246.402 1141.01 246.353 1141.02 246.305C1141.02 246.289 1141.03 246.274 1141.04 246.258C1141.05 246.229 1141.06 246.199 1141.08 246.171C1141.09 246.153 1141.1 246.138 1141.11 246.121C1141.13 246.099 1141.15 246.076 1141.17 246.056C1141.18 246.04 1141.2 246.028 1141.22 246.014C1141.24 245.997 1141.26 245.978 1141.28 245.965H1141.28L1148.1 242.075C1148.19 242.026 1148.29 242 1148.39 242C1148.49 242 1148.59 242.026 1148.67 242.075L1155.49 245.965H1155.49C1155.51 245.979 1155.53 245.997 1155.55 246.013C1155.57 246.027 1155.59 246.04 1155.61 246.055C1155.63 246.076 1155.64 246.099 1155.66 246.121C1155.67 246.138 1155.69 246.153 1155.7 246.171C1155.72 246.199 1155.72 246.229 1155.74 246.258C1155.74 246.274 1155.75 246.289 1155.76 246.306C1155.77 246.354 1155.78 246.403 1155.78 246.453V260.907L1161.46 257.665V250.276C1161.46 250.227 1161.47 250.177 1161.48 250.13C1161.48 250.113 1161.49 250.098 1161.5 250.082C1161.51 250.053 1161.52 250.022 1161.53 249.995C1161.55 249.977 1161.56 249.962 1161.57 249.945C1161.59 249.923 1161.6 249.899 1161.62 249.88C1161.64 249.864 1161.66 249.852 1161.68 249.838C1161.7 249.821 1161.72 249.802 1161.74 249.789H1161.74L1168.56 245.899C1168.65 245.85 1168.75 245.824 1168.85 245.824C1168.95 245.824 1169.04 245.85 1169.13 245.899L1175.95 249.789C1175.97 249.803 1175.99 249.821 1176.01 249.837C1176.03 249.851 1176.05 249.864 1176.07 249.879C1176.09 249.899 1176.1 249.923 1176.12 249.945C1176.13 249.962 1176.15 249.977 1176.16 249.995C1176.17 250.022 1176.18 250.053 1176.19 250.082C1176.2 250.098 1176.21 250.113 1176.21 250.13ZM1175.1 257.665V251.251L1172.71 252.612L1169.41 254.492V260.907L1175.1 257.665H1175.1ZM1168.28 269.269V262.85L1165.04 264.685L1155.78 269.921V276.401L1168.28 269.269V269.269ZM1142.14 247.427V269.269L1154.64 276.4V269.922L1148.11 266.26L1148.11 266.259L1148.1 266.257C1148.08 266.245 1148.06 266.226 1148.04 266.211C1148.02 266.197 1148 266.185 1147.99 266.17L1147.99 266.168C1147.97 266.15 1147.95 266.128 1147.94 266.109C1147.93 266.09 1147.91 266.074 1147.9 266.054L1147.9 266.052C1147.88 266.031 1147.88 266.005 1147.87 265.982C1147.86 265.96 1147.84 265.941 1147.84 265.918V265.918C1147.83 265.891 1147.83 265.863 1147.83 265.835C1147.83 265.814 1147.82 265.793 1147.82 265.772V250.669L1144.52 248.787L1142.14 247.428V247.427ZM1148.39 243.213L1142.71 246.453L1148.39 249.693L1154.07 246.452L1148.39 243.213H1148.39ZM1151.34 263.435L1154.64 261.555V247.427L1152.25 248.788L1148.96 250.669V264.797L1151.34 263.435ZM1168.85 247.037L1163.17 250.277L1168.85 253.517L1174.53 250.276L1168.85 247.037ZM1168.28 254.492L1164.98 252.612L1162.6 251.251V257.665L1165.89 259.545L1168.28 260.907V254.492H1168.28ZM1155.21 268.948L1163.54 264.235L1167.7 261.879L1162.03 258.641L1155.49 262.369L1149.53 265.767L1155.21 268.948Z" fill="#FF2D20"/>
</g>
<rect x="284" y="739" width="195" height="105" rx="6" stroke="url(#paint19_linear_804_635)" stroke-width="4"/>
<rect x="175" y="444" width="130" height="106" rx="6" stroke="url(#paint20_linear_804_635)" stroke-width="4"/>
<rect x="300" y="622" width="130" height="106" rx="6" stroke="url(#paint21_linear_804_635)" stroke-width="4"/>
<rect x="271" y="727" width="195" height="105" rx="6" transform="rotate(-180 271 727)" stroke="url(#paint22_linear_804_635)" stroke-width="4"/>
<rect x="357" y="507" width="130" height="105" rx="6" transform="rotate(-90 357 507)" stroke="url(#paint23_linear_804_635)" stroke-width="4"/>
<rect x="159" y="483" width="130" height="105" rx="6" transform="rotate(90 159 483)" stroke="url(#paint24_linear_804_635)" stroke-width="4"/>
<rect x="1647.36" y="382.64" width="74.72" height="74.72" rx="7.92" transform="rotate(90 1647.36 382.64)" stroke="url(#paint25_linear_804_635)" stroke-width="5.28"/>
<rect x="1294" y="236" width="47.409" height="47.409" rx="8.42826" fill="white"/>
<path d="M1335.31 258.093L1319.35 242.133C1319.13 241.914 1318.87 241.74 1318.59 241.622C1318.3 241.503 1317.99 241.442 1317.68 241.442C1317.38 241.442 1317.07 241.503 1316.78 241.622C1316.5 241.74 1316.24 241.914 1316.02 242.133L1312.71 245.448L1316.91 249.651C1317.4 249.483 1317.94 249.457 1318.45 249.576C1318.96 249.696 1319.42 249.956 1319.79 250.328C1320.16 250.699 1320.42 251.167 1320.53 251.677C1320.65 252.188 1320.62 252.721 1320.45 253.215L1324.5 257.262C1325.1 257.054 1325.76 257.06 1326.36 257.279C1326.96 257.497 1327.47 257.915 1327.8 258.462C1328.13 259.01 1328.26 259.654 1328.18 260.288C1328.09 260.922 1327.79 261.506 1327.32 261.945C1326.86 262.383 1326.26 262.649 1325.62 262.698C1324.98 262.746 1324.34 262.575 1323.82 262.212C1323.29 261.849 1322.9 261.317 1322.72 260.703C1322.54 260.09 1322.58 259.433 1322.82 258.842L1319.04 255.063V265.006C1319.61 265.29 1320.07 265.761 1320.34 266.342C1320.6 266.922 1320.66 267.576 1320.51 268.196C1320.35 268.815 1319.99 269.362 1319.48 269.746C1318.97 270.13 1318.34 270.327 1317.7 270.304C1317.06 270.282 1316.45 270.041 1315.97 269.623C1315.48 269.204 1315.16 268.633 1315.05 268.004C1314.93 267.375 1315.04 266.726 1315.35 266.166C1315.66 265.606 1316.15 265.168 1316.74 264.925V254.89C1316.39 254.75 1316.08 254.543 1315.82 254.282C1315.56 254.022 1315.35 253.711 1315.21 253.37C1315.07 253.029 1315 252.662 1315 252.293C1315 251.923 1315.07 251.558 1315.22 251.217L1311.08 247.076L1300.13 258.023C1299.91 258.242 1299.74 258.501 1299.62 258.787C1299.5 259.073 1299.44 259.379 1299.44 259.688C1299.44 259.998 1299.5 260.304 1299.62 260.59C1299.74 260.876 1299.91 261.135 1300.13 261.354L1316.09 277.308C1316.31 277.527 1316.57 277.701 1316.86 277.819C1317.14 277.938 1317.45 277.999 1317.76 277.999C1318.07 277.999 1318.37 277.938 1318.66 277.819C1318.94 277.701 1319.2 277.527 1319.42 277.308L1335.31 261.418C1335.53 261.199 1335.7 260.94 1335.82 260.654C1335.94 260.368 1336 260.062 1336 259.752C1336 259.443 1335.94 259.137 1335.82 258.851C1335.7 258.565 1335.53 258.306 1335.31 258.087" fill="#DD4C35"/>
<path d="M1312.71 245.448L1316.91 249.651C1317.4 249.483 1317.94 249.457 1318.45 249.576C1318.96 249.696 1319.42 249.956 1319.79 250.327C1320.16 250.699 1320.42 251.167 1320.53 251.677C1320.65 252.188 1320.62 252.721 1320.45 253.215L1324.5 257.262C1325.1 257.054 1325.76 257.06 1326.36 257.278C1326.96 257.497 1327.47 257.915 1327.8 258.462C1328.13 259.01 1328.26 259.654 1328.18 260.288C1328.09 260.921 1327.79 261.506 1327.32 261.945C1326.86 262.383 1326.26 262.649 1325.62 262.698C1324.98 262.746 1324.35 262.575 1323.82 262.212C1323.29 261.849 1322.91 261.317 1322.72 260.703C1322.54 260.09 1322.58 259.433 1322.82 258.842L1319.04 255.062V265.006C1319.61 265.29 1320.07 265.761 1320.34 266.341C1320.6 266.922 1320.67 267.576 1320.51 268.196C1320.35 268.815 1319.99 269.362 1319.48 269.746C1318.97 270.129 1318.34 270.326 1317.7 270.304C1317.06 270.282 1316.45 270.041 1315.97 269.622C1315.49 269.204 1315.16 268.633 1315.05 268.004C1314.93 267.375 1315.04 266.726 1315.35 266.166C1315.66 265.606 1316.15 265.168 1316.74 264.925V254.89C1316.39 254.75 1316.08 254.543 1315.82 254.282C1315.56 254.021 1315.35 253.711 1315.21 253.37C1315.07 253.028 1315 252.662 1315 252.293C1315 251.923 1315.07 251.557 1315.22 251.217L1311.08 247.076" fill="white"/>
<rect x="1113.64" y="62.64" width="74.72" height="74.72" rx="7.92" stroke="url(#paint26_linear_804_635)" stroke-width="5.28"/>
<rect x="1246.64" y="98.36" width="74.72" height="74.72" rx="7.92" transform="rotate(-90 1246.64 98.36)" stroke="url(#paint27_linear_804_635)" stroke-width="5.28"/>
<rect x="1539.64" y="98.36" width="74.72" height="74.72" rx="7.92" transform="rotate(-90 1539.64 98.36)" stroke="url(#paint28_linear_804_635)" stroke-width="5.28"/>
<rect x="2.64" y="334.36" width="74.72" height="74.72" rx="7.92" transform="rotate(-90 2.64 334.36)" stroke="url(#paint29_linear_804_635)" stroke-width="5.28"/>
<defs>
<filter id="filter0_d_804_635" x="996.468" y="243.405" width="52.5329" height="43.4585" filterUnits="userSpaceOnUse" color-interpolation-filters="sRGB">
<feFlood flood-opacity="0" result="BackgroundImageFix"/>
<feColorMatrix in="SourceAlpha" type="matrix" values="0 0 0 0 0 0 0 0 0 0 0 0 0 0 0 0 0 0 127 0" result="hardAlpha"/>
<feOffset/>
<feGaussianBlur stdDeviation="3.86127"/>
<feColorMatrix type="matrix" values="0 0 0 0 0 0 0 0 0 0 0 0 0 0 0 0 0 0 0.25 0"/>
<feBlend mode="overlay" in2="BackgroundImageFix" result="effect1_dropShadow_804_635"/>
<feBlend mode="normal" in="SourceGraphic" in2="effect1_dropShadow_804_635" result="shape"/>
</filter>
<filter id="filter1_d_804_635" x="1021.97" y="234.545" width="27.028" height="52.3192" filterUnits="userSpaceOnUse" color-interpolation-filters="sRGB">
<feFlood flood-opacity="0" result="BackgroundImageFix"/>
<feColorMatrix in="SourceAlpha" type="matrix" values="0 0 0 0 0 0 0 0 0 0 0 0 0 0 0 0 0 0 127 0" result="hardAlpha"/>
<feOffset/>
<feGaussianBlur stdDeviation="3.86127"/>
<feColorMatrix type="matrix" values="0 0 0 0 0 0 0 0 0 0 0 0 0 0 0 0 0 0 0.25 0"/>
<feBlend mode="overlay" in2="BackgroundImageFix" result="effect1_dropShadow_804_635"/>
<feBlend mode="normal" in="SourceGraphic" in2="effect1_dropShadow_804_635" result="shape"/>
</filter>
<linearGradient id="paint0_linear_804_635" x1="864" y1="300" x2="864" y2="380" gradientUnits="userSpaceOnUse">
<stop stop-color="#001324"/>
<stop offset="1" stop-color="#00213E"/>
</linearGradient>
<linearGradient id="paint1_linear_804_635" x1="1024" y1="220" x2="1024" y2="300" gradientUnits="userSpaceOnUse">
<stop stop-color="#001324"/>
<stop offset="1" stop-color="#00213E"/>
</linearGradient>
<linearGradient id="paint2_linear_804_635" x1="114" y1="192" x2="114" y2="272" gradientUnits="userSpaceOnUse">
<stop stop-color="#001324"/>
<stop offset="1" stop-color="#00213E"/>
</linearGradient>
<linearGradient id="paint3_linear_804_635" x1="1024" y1="300" x2="1024" y2="380" gradientUnits="userSpaceOnUse">
<stop stop-color="#001324"/>
<stop offset="1" stop-color="#00213E"/>
</linearGradient>
<linearGradient id="paint4_linear_804_635" x1="1157" y1="300" x2="1157" y2="380" gradientUnits="userSpaceOnUse">
<stop stop-color="#001324"/>
<stop offset="1" stop-color="#00213E"/>
</linearGradient>
<linearGradient id="paint5_linear_804_635" x1="1317" y1="220" x2="1317" y2="300" gradientUnits="userSpaceOnUse">
<stop stop-color="#001324"/>
<stop offset="1" stop-color="#00213E"/>
</linearGradient>
<linearGradient id="paint6_linear_804_635" x1="1104" y1="380" x2="1104" y2="460" gradientUnits="userSpaceOnUse">
<stop stop-color="#001324"/>
<stop offset="1" stop-color="#00213E"/>
</linearGradient>
<linearGradient id="paint7_linear_804_635" x1="944" y1="460" x2="944" y2="540" gradientUnits="userSpaceOnUse">
<stop stop-color="#001324"/>
<stop offset="1" stop-color="#00213E"/>
</linearGradient>
<linearGradient id="paint8_linear_804_635" x1="1317" y1="300" x2="1317" y2="380" gradientUnits="userSpaceOnUse">
<stop stop-color="#001324"/>
<stop offset="1" stop-color="#00213E"/>
</linearGradient>
<linearGradient id="paint9_linear_804_635" x1="1450" y1="300" x2="1450" y2="380" gradientUnits="userSpaceOnUse">
<stop stop-color="#001324"/>
<stop offset="1" stop-color="#00213E"/>
</linearGradient>
<linearGradient id="paint10_linear_804_635" x1="1610" y1="220" x2="1610" y2="300" gradientUnits="userSpaceOnUse">
<stop stop-color="#001324"/>
<stop offset="1" stop-color="#00213E"/>
</linearGradient>
<linearGradient id="paint11_linear_804_635" x1="1610" y1="300" x2="1610" y2="380" gradientUnits="userSpaceOnUse">
<stop stop-color="#001324"/>
<stop offset="1" stop-color="#00213E"/>
</linearGradient>
<linearGradient id="paint12_linear_804_635" x1="361" y1="101" x2="361" y2="181" gradientUnits="userSpaceOnUse">
<stop stop-color="#001324"/>
<stop offset="1" stop-color="#00213E"/>
</linearGradient>
<linearGradient id="paint13_linear_804_635" x1="588" y1="55" x2="588" y2="135" gradientUnits="userSpaceOnUse">
<stop stop-color="#001324"/>
<stop offset="1" stop-color="#00213E"/>
</linearGradient>
<linearGradient id="paint14_linear_804_635" x1="1397" y1="380" x2="1397" y2="460" gradientUnits="userSpaceOnUse">
<stop stop-color="#001324"/>
<stop offset="1" stop-color="#00213E"/>
</linearGradient>
<linearGradient id="paint15_linear_804_635" x1="1237" y1="460" x2="1237" y2="540" gradientUnits="userSpaceOnUse">
<stop stop-color="#001324"/>
<stop offset="1" stop-color="#00213E"/>
</linearGradient>
<linearGradient id="paint16_linear_804_635" x1="881" y1="21" x2="881" y2="101" gradientUnits="userSpaceOnUse">
<stop stop-color="#001324"/>
<stop offset="1" stop-color="#00213E"/>
</linearGradient>
<linearGradient id="paint17_linear_804_635" x1="1530" y1="460" x2="1530" y2="540" gradientUnits="userSpaceOnUse">
<stop stop-color="#001324"/>
<stop offset="1" stop-color="#00213E"/>
</linearGradient>
<linearGradient id="paint18_linear_804_635" x1="1022.72" y1="242.267" x2="1022.72" y2="279.141" gradientUnits="userSpaceOnUse">
<stop stop-color="white"/>
<stop offset="1" stop-color="white" stop-opacity="0"/>
</linearGradient>
<linearGradient id="paint19_linear_804_635" x1="381.5" y1="737" x2="381.5" y2="846" gradientUnits="userSpaceOnUse">
<stop stop-color="#001324"/>
<stop offset="1" stop-color="#00213E"/>
</linearGradient>
<linearGradient id="paint20_linear_804_635" x1="240" y1="442" x2="240" y2="552" gradientUnits="userSpaceOnUse">
<stop stop-color="#001324"/>
<stop offset="1" stop-color="#00213E"/>
</linearGradient>
<linearGradient id="paint21_linear_804_635" x1="365" y1="620" x2="365" y2="730" gradientUnits="userSpaceOnUse">
<stop stop-color="#001324"/>
<stop offset="1" stop-color="#00213E"/>
</linearGradient>
<linearGradient id="paint22_linear_804_635" x1="372.5" y1="729" x2="372.5" y2="838" gradientUnits="userSpaceOnUse">
<stop stop-color="#001324"/>
<stop offset="1" stop-color="#00213E"/>
</linearGradient>
<linearGradient id="paint23_linear_804_635" x1="422" y1="509" x2="422" y2="618" gradientUnits="userSpaceOnUse">
<stop stop-color="#001324"/>
<stop offset="1" stop-color="#00213E"/>
</linearGradient>
<linearGradient id="paint24_linear_804_635" x1="228" y1="481" x2="228" y2="590" gradientUnits="userSpaceOnUse">
<stop stop-color="#001324"/>
<stop offset="1" stop-color="#00213E"/>
</linearGradient>
<linearGradient id="paint25_linear_804_635" x1="1690" y1="380" x2="1690" y2="460" gradientUnits="userSpaceOnUse">
<stop stop-color="#001324"/>
<stop offset="1" stop-color="#00213E"/>
</linearGradient>
<linearGradient id="paint26_linear_804_635" x1="1151" y1="60" x2="1151" y2="140" gradientUnits="userSpaceOnUse">
<stop stop-color="#001324"/>
<stop offset="1" stop-color="#00213E"/>
</linearGradient>
<linearGradient id="paint27_linear_804_635" x1="1284" y1="101" x2="1284" y2="181" gradientUnits="userSpaceOnUse">
<stop stop-color="#001324"/>
<stop offset="1" stop-color="#00213E"/>
</linearGradient>
<linearGradient id="paint28_linear_804_635" x1="1577" y1="101" x2="1577" y2="181" gradientUnits="userSpaceOnUse">
<stop stop-color="#001324"/>
<stop offset="1" stop-color="#00213E"/>
</linearGradient>
<linearGradient id="paint29_linear_804_635" x1="40" y1="337" x2="40" y2="417" gradientUnits="userSpaceOnUse">
<stop stop-color="#001324"/>
<stop offset="1" stop-color="#00213E"/>
</linearGradient>
<clipPath id="clip0_804_635">
<rect width="35.234" height="36" fill="white" transform="translate(1141 242)"/>
</clipPath>
</defs>
</svg>
